<?xml version="1.0" standalone="no"?>
<!DOCTYPE svg PUBLIC "-//W3C//DTD SVG 1.1//EN" "http://www.w3.org/Graphics/SVG/1.1/DTD/svg11.dtd" >
<svg xmlns="http://www.w3.org/2000/svg" width="100%" height="100%">
<metadata>
Created by FontXChange 20110222 at Thu Nov  3 22:59:22 2016
 By EMILIANO HERNANDEZ G.
Copyright 1997, 2002 International Typeface Corporation. All rights reserved. "ITC" is a trademark of International Typeface Corporation Registered in the U.S. Patent and Trademark Office and may be registered in certain jurisdictions;"Conduit" is a trademark of International Typeface Corporation and may be registered in certain jurisdictions.
</metadata>
<defs>
<font id="ConduitITCStd-ExtraLight" horiz-adv-x="515" >
  <font-face 
    font-family="ConduitITCStd"
    font-weight="250"
    font-stretch="normal"
    units-per-em="1000"
    panose-1="2 0 5 6 5 0 0 2 0 4"
    ascent="800"
    descent="-200"
    x-height="435"
    cap-height="628"
    bbox="-79.5505 -250 1193 785"
    underline-thickness="20"
    underline-position="-113"
    stemh="40"
    stemv="51"
    unicode-range="U+0020-FB04"
  />
<missing-glyph horiz-adv-x="500" 
d="M12 0v665h475v-665h-475zM88 618l162 -243l161 243h-323zM60 575v-484c0 -1 161 242 161 242zM440 575l-162 -242l162 -243v485zM411 48l-161 242l-162 -242h323z" />
    <glyph glyph-name="f_i" unicode="fi" horiz-adv-x="462" 
d="M400 604c0 -20 -16 -37 -36 -37s-35 17 -35 37s15 36 35 36s36 -16 36 -36zM390 10c0 -7 -3 -10 -10 -10h-31c-7 0 -10 3 -10 10v416c0 7 3 10 10 10h31c7 0 10 -3 10 -10v-416zM238 358c0 -7 -3 -10 -10 -10h-77c-7 0 -10 -3 -10 -10v-328c0 -7 -3 -10 -10 -10h-31
c-7 0 -10 3 -10 10v328c0 7 -3 10 -10 10h-27c-7 0 -10 3 -10 10v20c0 7 3 10 10 10h27c7 0 10 3 10 10v73c0 54 20 100 57 131c21 17 47 29 78 35c9 2 11 -2 11 -8v-23c0 -6 -3 -9 -9 -11c-51 -13 -86 -57 -86 -114v-83c0 -7 3 -10 10 -10h77c7 0 10 -3 10 -10v-20z" />
    <glyph glyph-name="f_l" unicode="fl" horiz-adv-x="462" 
d="M390 10c0 -7 -3 -10 -10 -10h-31c-7 0 -10 3 -10 10v570c0 4 -3 7 -7 7h-73c-68 0 -118 -50 -118 -118v-71c0 -7 3 -10 10 -10h77c7 0 10 -3 10 -10v-20c0 -7 -3 -10 -10 -10h-77c-7 0 -10 -3 -10 -10v-328c0 -7 -3 -10 -10 -10h-31c-7 0 -10 3 -10 10v328
c0 7 -3 10 -10 10h-27c-7 0 -10 3 -10 10v20c0 7 3 10 10 10h27c7 0 10 3 10 10v61c0 102 71 169 169 169h121c7 0 10 -3 10 -10v-608z" />
    <glyph glyph-name="f_f" unicode="ff" horiz-adv-x="536" 
d="M554 628l-8 -23c-1 -3 -5 -6 -8 -6h-14c-68 0 -118 -50 -118 -118v-83c0 -7 3 -10 10 -10h77c7 0 10 -3 10 -10v-20c0 -7 -3 -10 -10 -10h-77c-7 0 -10 -3 -10 -10v-328c0 -7 -3 -10 -10 -10h-31c-7 0 -10 3 -10 10v328c0 7 -3 10 -10 10h-194c-7 0 -10 -3 -10 -10v-328
c0 -7 -3 -10 -10 -10h-31c-7 0 -10 3 -10 10v328c0 7 -3 10 -10 10h-27c-7 0 -10 3 -10 10v20c0 7 3 10 10 10h27c7 0 10 3 10 10v73c0 102 71 169 169 169c59 0 98 -25 122 -58c3 -5 7 -5 12 1c30 36 76 57 131 57h19c11 0 14 -3 11 -12zM362 522c2 6 -1 13 -5 19
c-23 37 -57 58 -98 58c-68 0 -118 -50 -118 -118v-83c0 -7 3 -10 10 -10h194c7 0 10 3 10 10v73c0 18 3 35 7 51z" />
    <glyph glyph-name="f_f_i" unicode="ffi" horiz-adv-x="727" 
d="M665 604c0 -20 -16 -37 -36 -37s-35 17 -35 37s15 36 35 36s36 -16 36 -36zM655 10c0 -7 -3 -10 -10 -10h-31c-7 0 -10 3 -10 10v416c0 7 3 10 10 10h31c7 0 10 -3 10 -10v-416zM503 358c0 -7 -3 -10 -10 -10h-77c-7 0 -10 -3 -10 -10v-328c0 -7 -3 -10 -10 -10h-31
c-7 0 -10 3 -10 10v328c0 7 -3 10 -10 10h-194c-7 0 -10 -3 -10 -10v-328c0 -7 -3 -10 -10 -10h-31c-7 0 -10 3 -10 10v328c0 7 -3 10 -10 10h-27c-7 0 -10 3 -10 10v20c0 7 3 10 10 10h27c7 0 10 3 10 10v73c0 102 71 169 169 169c59 0 98 -25 122 -58c3 -5 7 -5 12 1
c24 28 57 47 97 54c9 2 11 -2 11 -8v-23c0 -6 -3 -9 -9 -11c-51 -13 -86 -57 -86 -114v-83c0 -7 3 -10 10 -10h77c7 0 10 -3 10 -10v-20zM362 522c2 6 -1 13 -5 19c-23 37 -57 58 -98 58c-68 0 -118 -50 -118 -118v-83c0 -7 3 -10 10 -10h194c7 0 10 3 10 10v73
c0 18 3 35 7 51z" />
    <glyph glyph-name="f_f_l" unicode="ffl" horiz-adv-x="727" 
d="M655 10c0 -7 -3 -10 -10 -10h-31c-7 0 -10 3 -10 10v570c0 4 -3 7 -7 7h-73c-68 0 -118 -50 -118 -118v-71c0 -7 3 -10 10 -10h77c7 0 10 -3 10 -10v-20c0 -7 -3 -10 -10 -10h-77c-7 0 -10 -3 -10 -10v-328c0 -7 -3 -10 -10 -10h-31c-7 0 -10 3 -10 10v328
c0 7 -3 10 -10 10h-194c-7 0 -10 -3 -10 -10v-328c0 -7 -3 -10 -10 -10h-31c-7 0 -10 3 -10 10v328c0 7 -3 10 -10 10h-27c-7 0 -10 3 -10 10v20c0 7 3 10 10 10h27c7 0 10 3 10 10v73c0 102 71 169 169 169c58 0 103 -25 126 -64c4 -6 7 -6 13 1c30 32 74 51 126 51h121
c7 0 10 -3 10 -10v-608zM362 522c2 6 -1 13 -5 19c-23 37 -57 58 -98 58c-68 0 -118 -50 -118 -118v-83c0 -7 3 -10 10 -10h194c7 0 10 3 10 10v73c0 18 3 35 7 51z" />
    <glyph glyph-name=".notdef" horiz-adv-x="500" 
d="M12 0v665h475v-665h-475zM88 618l162 -243l161 243h-323zM60 575v-484c0 -1 161 242 161 242zM440 575l-162 -242l162 -243v485zM411 48l-161 242l-162 -242h323z" />
    <glyph glyph-name="space" unicode=" " horiz-adv-x="171" 
 />
    <glyph glyph-name="exclam" unicode="!" horiz-adv-x="293" 
d="M172 369l-16 -176c-1 -7 -2 -10 -9 -10s-9 3 -10 10l-17 174v251c0 7 3 10 10 10h32c7 0 10 -3 10 -10v-249zM192 25c0 -25 -20 -45 -45 -45s-45 20 -45 45s20 45 45 45s45 -20 45 -45z" />
    <glyph glyph-name="quotedbl" unicode="&#x22;" horiz-adv-x="282" 
d="M223 626l-18 -144c-1 -6 -4 -9 -10 -9h-4c-6 0 -9 3 -10 9l-21 144c-1 7 3 11 10 11h43c7 0 11 -4 10 -11zM109 626l-18 -144c-1 -6 -4 -9 -10 -9h-6c-6 0 -9 3 -10 9l-21 144c-1 7 3 11 10 11h45c7 0 11 -4 10 -11z" />
    <glyph glyph-name="numbersign" unicode="#" horiz-adv-x="568" 
d="M517 426l-6 -20c-2 -7 -6 -10 -13 -10h-61c-5 0 -9 -1 -10 -6l-40 -145c-2 -7 1 -13 10 -13h65c7 0 9 -3 7 -10l-6 -20c-2 -7 -6 -10 -13 -10h-71c-5 0 -9 -3 -11 -9l-50 -176c-1 -5 -5 -7 -10 -7h-24c-9 0 -12 5 -10 13l47 167c2 7 -1 12 -10 12h-128c-5 0 -9 -1 -10 -6
l-52 -179c-1 -5 -5 -7 -10 -7h-24c-9 0 -12 5 -10 13l47 167c2 7 -1 12 -10 12h-53c-7 0 -9 3 -7 10l6 20c2 7 6 10 13 10h58c5 0 9 3 10 8l41 144c2 7 -1 12 -10 12h-61c-7 0 -9 3 -7 10l5 20c2 7 6 10 13 10h67c5 0 9 3 10 8l51 177c1 5 5 7 10 7h24c9 0 12 -5 10 -13
l-47 -166c-2 -7 1 -13 10 -13h129c5 0 9 3 10 8l51 177c1 5 5 7 10 7h24c9 0 12 -5 10 -13l-47 -166c-2 -7 1 -13 10 -13h56c7 0 9 -3 7 -10zM380 384c2 7 -1 12 -10 12h-130c-5 0 -9 -1 -10 -6l-40 -145c-2 -7 1 -13 10 -13h128c5 0 9 3 10 8z" />
    <glyph glyph-name="dollar" unicode="$" 
d="M442 150c0 -87 -59 -150 -150 -159c-6 -1 -10 -4 -10 -11v-33c0 -7 -3 -10 -10 -10h-28c-7 0 -10 3 -10 10v33c0 7 -2 10 -9 10c-48 0 -84 14 -110 33c-14 11 -26 23 -35 36c-4 5 -2 12 4 15l26 14c5 2 9 1 12 -3c28 -36 64 -55 103 -55c6 0 9 3 9 9v251
c0 9 -3 14 -11 18c-76 37 -141 76 -141 173c0 86 57 146 142 157c6 1 10 4 10 12v34c0 7 3 10 10 10h28c7 0 10 -3 10 -10v-34c0 -7 3 -10 11 -11c31 -3 56 -13 77 -26c18 -12 32 -26 44 -43c4 -6 1 -11 -5 -14l-25 -13c-4 -2 -9 -3 -12 1c-20 27 -49 45 -79 52
c-9 2 -11 0 -11 -8v-235c0 -8 3 -13 10 -16c82 -38 150 -78 150 -187zM234 375v213c0 7 -3 10 -10 8c-53 -11 -88 -53 -88 -115c0 -59 42 -89 88 -112c6 -3 10 -1 10 6zM388 150c0 67 -45 100 -96 126c-7 4 -10 1 -10 -6v-230c0 -7 3 -9 11 -8c57 11 95 58 95 118z" />
    <glyph glyph-name="percent" unicode="%" horiz-adv-x="495" 
d="M219 445c0 -50 -35 -85 -90 -85s-90 35 -90 85v100c0 50 35 85 90 85s90 -35 90 -85v-100zM392 614l-260 -608c-2 -4 -5 -6 -9 -6h-24c-9 0 -13 5 -9 14l260 608c2 4 5 6 9 6h24c9 0 13 -5 9 -14zM444 85c0 -50 -35 -85 -90 -85s-90 35 -90 85v100c0 50 35 85 90 85
s90 -35 90 -85v-100zM172 445v100c0 29 -17 44 -43 44c-27 0 -44 -17 -44 -44v-100c0 -27 16 -44 44 -44c30 0 43 19 43 44zM397 85v100c0 29 -17 44 -43 44c-27 0 -44 -17 -44 -44v-100c0 -27 16 -44 44 -44c30 0 43 19 43 44z" />
    <glyph glyph-name="ampersand" unicode="&#x26;" horiz-adv-x="630" 
d="M607 1c0 -7 -4 -12 -11 -10c-65 14 -112 50 -154 92c-5 5 -8 4 -11 -2c-29 -51 -71 -91 -156 -91h-32c-101 0 -169 67 -169 168v26c0 58 45 96 100 125c5 3 6 7 0 10c-67 40 -102 87 -102 150c0 105 64 171 171 171c103 0 170 -66 170 -169v-22c0 -63 -56 -103 -124 -134
c-5 -2 -5 -7 0 -10c52 -33 89 -75 125 -116c7 -8 11 -5 14 4c28 74 64 146 162 146h7c7 0 10 -3 10 -10v-30c0 -7 -3 -10 -10 -10h-7c-78 0 -100 -69 -128 -140c-3 -8 -2 -12 3 -17c36 -38 77 -70 135 -88c5 -2 7 -5 7 -10v-33zM362 461v20c0 68 -54 118 -119 118
c-68 0 -120 -51 -120 -119c0 -69 42 -102 104 -137c6 -3 12 -3 22 1c61 27 113 57 113 117zM396 115c3 7 4 14 -3 22c-46 53 -91 108 -156 144c-9 5 -12 5 -19 2c-48 -20 -93 -58 -93 -102v-31c0 -70 48 -120 118 -120h32c65 0 97 37 121 85z" />
    <glyph glyph-name="quoteright" unicode="&#x2019;" horiz-adv-x="161" 
d="M116 580c0 -43 -8 -76 -23 -101c-10 -17 -23 -31 -39 -42c-6 -4 -10 -1 -14 4l-3 4c-4 5 -2 9 2 13c21 21 36 59 36 105c0 5 -3 10 -10 10h-13c-7 0 -10 3 -10 10v44c0 7 3 10 10 10h54c7 0 10 -3 10 -10v-47z" />
    <glyph glyph-name="parenleft" unicode="(" horiz-adv-x="330" 
d="M255 -181c0 -9 -4 -12 -11 -10c-22 5 -43 14 -60 25c-48 31 -76 83 -76 145v589c0 62 28 112 76 142c17 11 38 19 60 24c7 2 11 -1 11 -10v-23c0 -4 -3 -9 -8 -10c-55 -13 -88 -58 -88 -113v-611c0 -55 33 -100 88 -115c5 -1 8 -6 8 -10v-23z" />
    <glyph glyph-name="parenright" unicode=")" horiz-adv-x="330" 
d="M222 -21c0 -58 -23 -106 -64 -137c-19 -15 -43 -26 -70 -33c-9 -2 -13 1 -13 10v23c0 4 3 9 8 10c55 15 88 60 88 115v611c0 55 -33 98 -88 113c-5 1 -8 6 -8 10v23c0 9 4 12 13 10c23 -6 44 -15 62 -26c46 -30 72 -79 72 -140v-589z" />
    <glyph glyph-name="asterisk" unicode="*" horiz-adv-x="389" 
d="M351 462l-14 -23c-4 -6 -9 -7 -15 -3l-102 71c-9 6 -17 2 -16 -9l15 -124c1 -7 -3 -11 -10 -11h-29c-7 0 -11 4 -10 11l15 124c1 11 -7 16 -16 9l-99 -71c-6 -4 -11 -4 -15 3l-14 24c-4 6 -2 11 5 14l112 48c10 4 10 13 0 18l-112 52c-7 3 -9 8 -5 14l14 23c4 7 9 8 15 3
l97 -73c9 -7 17 -2 16 9l-13 121c-1 7 3 11 10 11h27c7 0 11 -4 10 -11l-14 -121c-1 -11 7 -16 16 -9l103 73c6 4 11 4 15 -3l14 -23c4 -6 2 -11 -5 -14l-117 -52c-10 -4 -10 -14 0 -18l117 -49c7 -3 9 -8 5 -14z" />
    <glyph glyph-name="plus" unicode="+" 
d="M469 225c0 -7 -3 -10 -10 -10h-172c-7 0 -10 -3 -10 -10v-172c0 -7 -3 -10 -10 -10h-16c-7 0 -10 3 -10 10v172c0 7 -3 10 -10 10h-174c-7 0 -10 3 -10 10v18c0 7 3 10 10 10h174c7 0 10 3 10 10v172c0 7 3 10 10 10h16c7 0 10 -3 10 -10v-172c0 -7 3 -10 10 -10h172
c7 0 10 -3 10 -10v-18z" />
    <glyph glyph-name="comma" unicode="," horiz-adv-x="214" 
d="M149 17c0 -47 -11 -84 -31 -112c-12 -18 -27 -32 -44 -43c-4 -3 -10 0 -13 3l-7 6c-5 4 -4 10 0 14c26 24 41 59 41 114c0 7 -3 10 -10 10h-15c-7 0 -10 3 -10 10v49c0 7 3 10 10 10h69c7 0 10 -3 10 -10v-51z" />
    <glyph glyph-name="hyphen" unicode="-" horiz-adv-x="266" 
d="M207 202c0 -7 -3 -10 -10 -10h-128c-7 0 -10 3 -10 10v32c0 7 3 10 10 10h128c7 0 10 -3 10 -10v-32z" />
    <glyph glyph-name="period" unicode="." horiz-adv-x="189" 
d="M140 25c0 -25 -20 -45 -45 -45s-45 20 -45 45s20 45 45 45s45 -20 45 -45z" />
    <glyph glyph-name="slash" unicode="/" horiz-adv-x="310" 
d="M305 616l-261 -610c-2 -4 -5 -6 -9 -6h-34c-9 0 -13 5 -9 14l261 610c2 4 5 6 9 6h34c9 0 13 -5 9 -14z" />
    <glyph glyph-name="zero" unicode="0" 
d="M444 150c0 -93 -68 -160 -171 -160h-32c-103 0 -169 65 -169 160v331c0 95 68 159 169 159h32c105 0 171 -64 171 -159v-331zM393 150v331c0 68 -55 118 -120 118h-32c-68 0 -118 -50 -118 -118v-331c0 -65 50 -120 118 -120h32c68 0 120 52 120 120z" />
    <glyph glyph-name="one" unicode="1" 
d="M424 10c0 -7 -3 -10 -10 -10h-287c-7 0 -10 3 -10 10v20c0 7 3 10 10 10h108c7 0 10 3 10 10v469c0 11 -9 15 -17 7l-79 -78c-5 -5 -10 -6 -14 0l-12 16c-4 5 -5 9 0 14l147 147c1 1 5 3 7 3h9c7 0 10 -3 10 -10v-568c0 -7 3 -10 10 -10h108c7 0 10 -3 10 -10v-20z" />
    <glyph glyph-name="two" unicode="2" 
d="M441 481c0 -112 -89 -155 -164 -200c-77 -46 -134 -94 -134 -179v-52c0 -7 3 -10 10 -10h268c7 0 10 -3 10 -10v-20c0 -7 -3 -10 -10 -10h-319c-7 0 -10 3 -10 10v92c0 117 76 171 149 214c88 51 149 89 149 165c0 62 -42 118 -120 118h-42c-37 0 -76 -21 -100 -53
c-3 -4 -7 -5 -11 -3l-26 13c-6 3 -10 9 -6 14c10 12 20 24 32 33c28 23 63 37 111 37h42c106 0 171 -60 171 -159z" />
    <glyph glyph-name="three" unicode="3" 
d="M421 158c0 -103 -68 -168 -171 -168h-32c-44 0 -77 11 -103 29c-16 11 -30 26 -41 42c-4 6 -1 12 5 15l27 12c5 2 7 1 10 -3c29 -35 64 -55 102 -55h32c65 0 120 49 120 120v36c0 65 -55 118 -120 118h-62c-7 0 -10 3 -10 10v20c0 7 3 10 10 10h62c68 0 120 54 120 122
v15c0 68 -55 118 -120 118h-32c-37 0 -74 -20 -102 -55c-3 -4 -8 -6 -12 -3l-26 15c-6 3 -8 9 -4 14c10 13 21 25 34 35c27 22 62 35 110 35h32c104 0 171 -63 171 -169v-17c0 -55 -42 -107 -90 -125c-7 -2 -7 -7 0 -9c40 -12 90 -61 90 -131v-31z" />
    <glyph glyph-name="four" unicode="4" 
d="M484 166c0 -7 -3 -10 -10 -10h-77c-7 0 -10 -3 -10 -10v-136c0 -7 -3 -10 -10 -10h-31c-7 0 -10 3 -10 10v136c0 7 -3 10 -10 10h-268c-7 0 -10 3 -10 10v47l272 411c2 2 5 4 8 4h49c7 0 10 -3 10 -10v-413c0 -7 3 -10 10 -10h77c7 0 10 -3 10 -10v-19zM336 205v331
c0 12 -10 16 -17 6l-220 -331c-6 -9 -2 -16 8 -16h219c7 0 10 3 10 10z" />
    <glyph glyph-name="five" unicode="5" 
d="M442 158c0 -99 -68 -168 -171 -168h-32c-50 0 -84 14 -111 35c-13 10 -24 21 -34 34c-4 5 -2 12 4 15l27 14c5 2 9 1 12 -3c27 -35 65 -55 102 -55h32c65 0 120 48 120 120v36c0 65 -49 118 -120 118h-148c-7 0 -10 3 -10 10v304c0 7 3 10 10 10h297c7 0 10 -3 10 -10
v-26c0 -7 -3 -10 -10 -10h-246c-7 0 -10 -3 -10 -10v-218c0 -7 3 -10 10 -10h97c103 0 171 -63 171 -166v-20z" />
    <glyph glyph-name="six" unicode="6" 
d="M452 150c0 -91 -68 -160 -171 -160h-30c-103 0 -168 65 -168 160v331c0 95 67 159 168 159h30c52 0 88 -14 115 -36c12 -10 22 -21 31 -34c4 -6 0 -11 -6 -14l-26 -13c-4 -2 -8 -1 -11 3c-26 32 -58 53 -103 53h-30c-70 0 -117 -47 -117 -118v-170c0 -11 8 -13 16 -5
c31 30 70 45 113 45h30c88 0 159 -65 159 -158v-43zM401 150v43c0 57 -42 118 -120 118h-30c-66 0 -117 -51 -117 -118v-43c0 -65 49 -120 117 -120h30c65 0 120 52 120 120z" />
    <glyph glyph-name="seven" unicode="7" 
d="M434 528c0 -118 -88 -178 -157 -222c-68 -43 -111 -87 -111 -156v-140c0 -7 -3 -10 -10 -10h-31c-7 0 -10 3 -10 10v140c0 98 67 151 130 192c77 50 138 95 138 186v44c0 7 -3 10 -10 10h-270c-7 0 -10 3 -10 10v26c0 7 3 10 10 10h321c7 0 10 -3 10 -10v-90z" />
    <glyph glyph-name="eight" unicode="8" 
d="M444 158c0 -100 -68 -168 -171 -168h-32c-103 0 -168 65 -168 168v26c0 66 49 115 93 129c6 2 7 6 0 8c-43 12 -94 63 -94 128v22c0 103 70 169 169 169h32c106 0 171 -68 171 -169v-22c0 -57 -41 -106 -86 -124c-6 -3 -7 -6 0 -9c41 -15 86 -66 86 -132v-26zM393 461v20
c0 68 -55 118 -120 118h-32c-68 0 -118 -50 -118 -118v-20c0 -68 50 -122 118 -122h32c68 0 120 54 120 122zM393 150v31c0 65 -53 118 -120 118h-32c-68 0 -118 -51 -118 -118v-31c0 -65 50 -120 118 -120h32c65 0 120 49 120 120z" />
    <glyph glyph-name="nine" unicode="9" 
d="M433 149c0 -95 -67 -159 -168 -159h-30c-53 0 -89 14 -116 37c-11 9 -21 21 -30 33c-4 6 0 11 6 14l26 13c4 2 8 1 11 -3c26 -32 58 -53 103 -53h30c70 0 117 47 117 118v132c0 11 -8 13 -16 5c-31 -30 -70 -45 -113 -45h-30c-88 0 -159 65 -159 158v81
c0 91 68 160 171 160h30c103 0 168 -65 168 -160v-331zM382 399v81c0 65 -49 120 -117 120h-30c-65 0 -120 -52 -120 -120v-81c0 -57 42 -118 120 -118h30c66 0 117 51 117 118z" />
    <glyph glyph-name="colon" unicode=":" horiz-adv-x="189" 
d="M140 315c0 -25 -20 -45 -45 -45s-45 20 -45 45s20 45 45 45s45 -20 45 -45zM140 25c0 -25 -20 -45 -45 -45s-45 20 -45 45s20 45 45 45s45 -20 45 -45z" />
    <glyph glyph-name="semicolon" unicode=";" horiz-adv-x="202" 
d="M144 315c0 -25 -20 -45 -45 -45s-45 20 -45 45s20 45 45 45s45 -20 45 -45zM145 17c0 -50 -13 -88 -34 -117c-12 -15 -25 -28 -41 -38c-4 -3 -10 0 -13 3l-7 6c-5 4 -4 10 0 14c26 24 41 59 41 114c0 7 -3 10 -10 10h-15c-7 0 -10 3 -10 10v49c0 7 3 10 10 10h69
c7 0 10 -3 10 -10v-51z" />
    <glyph glyph-name="less" unicode="&#x3c;" 
d="M413 435c4 -6 2 -11 -4 -14l-302 -173c-9 -5 -9 -13 0 -18l301 -176c7 -4 6 -9 2 -15l-8 -12c-3 -4 -9 -5 -13 -2l-313 179c-3 2 -5 6 -5 9v47c0 3 2 7 5 9l315 181c6 3 10 2 14 -4z" />
    <glyph glyph-name="equal" unicode="=" 
d="M469 322c0 -7 -3 -10 -10 -10h-402c-7 0 -10 3 -10 10v16c0 7 3 10 10 10h402c7 0 10 -3 10 -10v-16zM469 130c0 -7 -3 -10 -10 -10h-402c-7 0 -10 3 -10 10v16c0 7 3 10 10 10h402c7 0 10 -3 10 -10v-16z" />
    <glyph glyph-name="greater" unicode="&#x3e;" 
d="M447 215c0 -3 -2 -7 -5 -9l-314 -181c-6 -3 -10 -2 -14 4l-7 11c-4 6 -2 11 4 14l300 176c9 5 9 13 0 18l-300 173c-6 3 -8 8 -4 14l7 11c4 6 8 7 14 4l314 -183c3 -2 5 -6 5 -9v-43z" />
    <glyph glyph-name="question" unicode="?" 
d="M440 481c0 -96 -61 -131 -115 -157c-66 -32 -90 -55 -90 -109v-12c0 -7 -3 -11 -10 -11h-32c-6 0 -9 4 -9 10v25c0 68 47 104 112 134c55 25 95 54 95 120c0 68 -55 118 -120 118h-42c-38 0 -74 -19 -102 -55c-3 -4 -8 -6 -12 -3l-26 15c-6 3 -8 9 -4 14
c14 18 29 33 47 45c25 16 56 25 97 25h42c103 0 169 -64 169 -159zM271 25c0 -25 -20 -45 -45 -45s-45 20 -45 45s20 45 45 45s45 -20 45 -45z" />
    <glyph glyph-name="at" unicode="@" horiz-adv-x="703" 
d="M626 245c0 -50 -35 -85 -90 -85h-13c-33 0 -58 12 -74 32c-5 6 -10 6 -15 1c-20 -18 -58 -33 -79 -33c-75 0 -123 47 -123 116v83c0 69 49 115 123 115c18 0 45 -9 64 -22c9 -6 16 -3 16 8v4c0 7 3 10 10 10h24c7 0 10 -3 10 -10v-214c0 -26 19 -45 45 -45h12
c24 0 45 21 45 45v210c0 74 -53 125 -135 125h-180c-82 0 -135 -51 -135 -125v-290c0 -74 53 -125 135 -125h260c7 0 10 -3 10 -10v-25c0 -7 -3 -10 -10 -10h-260c-110 0 -180 70 -180 170v290c0 100 70 170 180 170h180c110 0 180 -70 180 -170v-215zM435 284v67
c0 44 -36 78 -80 78c-42 0 -78 -36 -78 -78v-67c0 -44 34 -79 78 -79c43 0 80 36 80 79z" />
    <glyph glyph-name="A" unicode="A" horiz-adv-x="450" 
d="M433 13c2 -8 -1 -13 -10 -13h-33c-5 0 -9 2 -10 7l-40 140c-2 6 -5 9 -11 9h-208c-5 0 -9 -1 -10 -6l-41 -143c-1 -5 -5 -7 -10 -7h-32c-9 0 -12 5 -10 13l184 608c1 5 5 7 10 7h26c5 0 9 -2 10 -7zM321 208l-84 309c-7 26 -11 55 -11 55h-3s-3 -29 -10 -54l-87 -310
c-2 -7 1 -13 10 -13h175c9 0 12 6 10 13z" />
    <glyph glyph-name="B" unicode="B" horiz-adv-x="516" 
d="M454 169c0 -103 -68 -169 -171 -169h-190c-7 0 -10 3 -10 10v608c0 7 3 10 10 10h190c100 0 171 -57 171 -155v-18c0 -57 -38 -109 -93 -131c-6 -2 -7 -8 0 -10c48 -16 93 -66 93 -130v-15zM403 461v10c0 72 -49 118 -120 118h-139c-7 0 -10 -3 -10 -10v-230
c0 -7 3 -10 10 -10h139c68 0 120 54 120 122zM403 160v21c0 65 -52 118 -120 118h-139c-7 0 -10 -3 -10 -10v-239c0 -7 3 -10 10 -10h139c68 0 120 52 120 120z" />
    <glyph glyph-name="C" unicode="C" horiz-adv-x="462" 
d="M419 61c-9 -14 -20 -26 -33 -36c-27 -22 -63 -35 -113 -35h-32c-103 0 -168 65 -168 160v331c0 95 65 159 168 159h32c45 0 81 -12 108 -32c15 -10 28 -23 38 -38c4 -6 1 -11 -5 -14l-26 -13c-4 -2 -9 -2 -11 1c-28 34 -64 55 -104 55h-32c-68 0 -117 -50 -117 -118v-331
c0 -65 49 -120 117 -120h32c40 0 77 19 103 56c3 4 7 4 11 2l26 -12c6 -3 10 -9 6 -15z" />
    <glyph glyph-name="D" unicode="D" horiz-adv-x="526" 
d="M454 171c0 -104 -68 -171 -171 -171h-190c-7 0 -10 3 -10 10v608c0 7 3 10 10 10h190c103 0 171 -64 171 -167v-290zM403 160v311c0 65 -52 118 -120 118h-139c-7 0 -10 -3 -10 -10v-529c0 -7 3 -10 10 -10h139c68 0 120 52 120 120z" />
    <glyph glyph-name="E" unicode="E" horiz-adv-x="462" 
d="M422 10c0 -7 -3 -10 -10 -10h-319c-7 0 -10 3 -10 10v608c0 7 3 10 10 10h319c7 0 10 -3 10 -10v-19c0 -7 -3 -10 -10 -10h-268c-7 0 -10 -3 -10 -10v-230c0 -7 3 -10 10 -10h220c7 0 10 -3 10 -10v-20c0 -7 -3 -10 -10 -10h-220c-7 0 -10 -3 -10 -10v-239
c0 -7 3 -10 10 -10h268c7 0 10 -3 10 -10v-20z" />
    <glyph glyph-name="F" unicode="F" horiz-adv-x="432" 
d="M422 599c0 -7 -3 -10 -10 -10h-268c-7 0 -10 -3 -10 -10v-230c0 -7 3 -10 10 -10h220c7 0 10 -3 10 -10v-20c0 -7 -3 -10 -10 -10h-220c-7 0 -10 -3 -10 -10v-279c0 -7 -3 -10 -10 -10h-31c-7 0 -10 3 -10 10v608c0 7 3 10 10 10h319c7 0 10 -3 10 -10v-19z" />
    <glyph glyph-name="G" unicode="G" horiz-adv-x="505" 
d="M443 150c0 -90 -67 -160 -170 -160h-32c-103 0 -168 65 -168 160v331c0 93 65 159 168 159h52c44 0 77 -11 104 -30c15 -11 29 -25 40 -40c5 -6 1 -11 -5 -14l-26 -13c-4 -2 -8 -3 -11 1c-27 36 -60 55 -102 55h-52c-71 0 -117 -45 -117 -118v-331
c0 -68 49 -120 117 -120h32c71 0 119 55 119 120v91c0 7 -3 10 -10 10h-108c-7 0 -10 3 -10 10v21c0 7 3 10 10 10h159c7 0 10 -3 10 -10v-132z" />
    <glyph glyph-name="H" unicode="H" horiz-adv-x="551" 
d="M469 10c0 -7 -3 -10 -10 -10h-31c-7 0 -10 3 -10 10v279c0 7 -3 10 -10 10h-264c-7 0 -10 -3 -10 -10v-279c0 -7 -3 -10 -10 -10h-31c-7 0 -10 3 -10 10v608c0 7 3 10 10 10h31c7 0 10 -3 10 -10v-269c0 -7 3 -10 10 -10h264c7 0 10 3 10 10v269c0 7 3 10 10 10h31
c7 0 10 -3 10 -10v-608z" />
    <glyph glyph-name="I" unicode="I" horiz-adv-x="216" 
d="M134 10c0 -7 -3 -10 -10 -10h-31c-7 0 -10 3 -10 10v608c0 7 3 10 10 10h31c7 0 10 -3 10 -10v-608z" />
    <glyph glyph-name="J" unicode="J" horiz-adv-x="402" 
d="M325 160c0 -101 -65 -170 -170 -170c-44 0 -79 13 -107 34c-14 10 -26 23 -37 37c-5 7 -4 12 3 16l26 13c5 2 9 1 12 -3c28 -35 61 -57 103 -57c75 0 119 48 119 120v468c0 7 3 10 10 10h31c7 0 10 -3 10 -10v-458z" />
    <glyph glyph-name="K" unicode="K" horiz-adv-x="498" 
d="M488 15c6 -9 1 -15 -9 -15h-36c-4 0 -7 2 -9 5l-191 313c-7 11 -13 10 -20 1l-89 -112v-197c0 -7 -3 -10 -10 -10h-31c-7 0 -10 3 -10 10v608c0 7 3 10 10 10h31c7 0 10 -3 10 -10v-327c0 -12 11 -16 18 -6l258 339c2 2 5 4 8 4h31c11 0 15 -8 8 -16l-184 -227
c-4 -5 -6 -12 -1 -20z" />
    <glyph glyph-name="L" unicode="L" horiz-adv-x="430" 
d="M422 10c0 -7 -3 -10 -10 -10h-319c-7 0 -10 3 -10 10v608c0 7 3 10 10 10h31c7 0 10 -3 10 -10v-568c0 -7 3 -10 10 -10h268c7 0 10 -3 10 -10v-20z" />
    <glyph glyph-name="M" unicode="M" horiz-adv-x="649" 
d="M567 10c0 -7 -3 -10 -10 -10h-31c-7 0 -10 3 -10 10v286c0 79 9 215 11 239l-4 1c-6 -20 -21 -60 -28 -76l-157 -354c-2 -4 -5 -6 -9 -6h-9c-4 0 -7 2 -9 6l-155 354c-8 18 -24 62 -29 77l-4 -1c2 -24 11 -158 11 -237v-289c0 -7 -3 -10 -10 -10h-31c-7 0 -10 3 -10 10
v608c0 7 3 10 10 10h34c4 0 7 -2 9 -6l174 -397c5 -12 13 -32 16 -43h3c4 11 10 28 16 41l171 399c2 4 5 6 9 6h32c7 0 10 -3 10 -10v-608z" />
    <glyph glyph-name="N" unicode="N" horiz-adv-x="551" 
d="M469 10c0 -7 -3 -10 -10 -10h-32c-4 0 -7 2 -9 5l-266 481c-14 26 -21 52 -21 52h-3s6 -45 6 -124v-404c0 -7 -3 -10 -10 -10h-31c-7 0 -10 3 -10 10v608c0 7 3 10 10 10h30c4 0 7 -2 9 -5l268 -486c12 -22 22 -54 22 -54h3s-7 59 -7 138v397c0 7 3 10 10 10h31
c7 0 10 -3 10 -10v-608z" />
    <glyph glyph-name="O" unicode="O" 
d="M443 150c0 -95 -67 -160 -170 -160h-32c-103 0 -168 65 -168 160v331c0 95 65 159 168 159h32c103 0 170 -64 170 -159v-331zM392 150v331c0 68 -54 118 -119 118h-32c-68 0 -117 -50 -117 -118v-331c0 -65 49 -120 117 -120h32c65 0 119 55 119 120z" />
    <glyph glyph-name="P" unicode="P" horiz-adv-x="466" 
d="M454 461c0 -90 -68 -162 -171 -162h-139c-7 0 -10 -3 -10 -10v-279c0 -7 -3 -10 -10 -10h-31c-7 0 -10 3 -10 10v608c0 7 3 10 10 10h190c103 0 171 -65 171 -167zM403 461v10c0 65 -52 118 -120 118h-139c-7 0 -10 -3 -10 -10v-230c0 -7 3 -10 10 -10h139
c68 0 120 54 120 122z" />
    <glyph glyph-name="Q" unicode="Q" 
d="M443 150c0 -82 -56 -145 -158 -160c-6 -1 -8 -4 -8 -10v-67c0 -7 -3 -10 -10 -10h-20c-7 0 -10 3 -10 10v67c0 6 -4 9 -10 10c-104 15 -154 78 -154 160v331c0 95 65 159 168 159h32c103 0 170 -64 170 -159v-331zM392 150v331c0 68 -54 118 -119 118h-32
c-68 0 -117 -50 -117 -118v-331c0 -55 29 -100 99 -119c10 -3 14 0 14 9v54c0 7 3 10 10 10h20c7 0 10 -3 10 -10v-56c0 -9 3 -9 12 -7c72 17 103 66 103 119z" />
    <glyph glyph-name="R" unicode="R" horiz-adv-x="507" 
d="M455 451c0 -57 -42 -114 -101 -135c-5 -2 -7 -5 -5 -10l101 -293c3 -8 0 -13 -9 -13h-36c-4 0 -8 3 -9 7l-99 286c-1 4 -4 6 -8 6h-145c-7 0 -10 -3 -10 -10v-279c0 -7 -3 -10 -10 -10h-31c-7 0 -10 3 -10 10v608c0 7 3 10 10 10h190c106 0 172 -61 172 -160v-17z
M403 461v10c0 68 -47 118 -120 118h-139c-7 0 -10 -3 -10 -10v-230c0 -7 3 -10 10 -10h139c68 0 120 54 120 122z" />
    <glyph glyph-name="S" unicode="S" horiz-adv-x="450" 
d="M404 150c0 -95 -68 -160 -173 -160h-43c-44 0 -77 12 -102 28c-18 12 -32 26 -43 41c-4 5 -2 12 4 15l26 14c5 2 9 1 12 -3c28 -36 64 -55 103 -55h43c71 0 120 52 120 120c0 87 -77 118 -143 149c-86 40 -161 76 -161 182c0 95 68 159 168 159h16c41 0 75 -10 101 -27
c18 -11 33 -26 45 -43c4 -6 1 -11 -5 -14l-25 -13c-4 -2 -9 -3 -12 1c-26 35 -65 55 -104 55h-16c-69 0 -116 -46 -116 -118c0 -76 71 -105 128 -132c94 -44 177 -78 177 -199z" />
    <glyph glyph-name="T" unicode="T" horiz-adv-x="372" 
d="M357 599c0 -7 -3 -10 -10 -10h-125c-7 0 -10 -3 -10 -10v-569c0 -7 -3 -10 -10 -10h-31c-7 0 -10 3 -10 10v569c0 7 -3 10 -10 10h-125c-7 0 -10 3 -10 10v19c0 7 3 10 10 10h321c7 0 10 -3 10 -10v-19z" />
    <glyph glyph-name="U" unicode="U" horiz-adv-x="525" 
d="M448 150c0 -91 -70 -160 -170 -160h-32c-103 0 -168 69 -168 160v468c0 7 3 10 10 10h31c7 0 10 -3 10 -10v-468c0 -69 44 -120 117 -120h32c71 0 119 52 119 120v468c0 7 3 10 10 10h31c7 0 10 -3 10 -10v-468z" />
    <glyph glyph-name="V" unicode="V" horiz-adv-x="450" 
d="M433 615l-186 -608c-1 -5 -5 -7 -10 -7h-23c-5 0 -9 2 -10 7l-186 608c-2 8 1 13 10 13h35c5 0 9 -2 10 -7l143 -503c8 -29 11 -49 11 -49h3s3 20 11 50l138 502c1 5 5 7 10 7h34c9 0 12 -5 10 -13z" />
    <glyph glyph-name="W" unicode="W" horiz-adv-x="681" 
d="M659 616l-134 -608c-1 -5 -5 -8 -10 -8h-23c-5 0 -9 2 -10 7l-130 447c-8 29 -10 54 -10 54h-3s-3 -24 -12 -54l-130 -447c-1 -5 -5 -7 -10 -7h-22c-5 0 -9 3 -10 8l-132 608c-2 8 2 12 10 12h34c5 0 9 -3 10 -8l94 -467c8 -38 9 -55 9 -55h3s4 17 14 54l127 471
c1 5 5 7 10 7h13c5 0 9 -2 10 -7l129 -473c10 -35 14 -55 14 -55h3s2 21 9 56l93 469c1 5 5 8 10 8h34c8 0 12 -4 10 -12z" />
    <glyph glyph-name="X" unicode="X" horiz-adv-x="454" 
d="M419 14c4 -8 0 -14 -9 -14h-38c-4 0 -7 2 -9 6l-126 263c-5 10 -13 10 -18 0l-131 -263c-2 -3 -5 -6 -9 -6h-32c-10 0 -14 6 -9 15l151 296c1 3 1 6 0 9l-153 293c-5 9 -1 15 9 15h38c4 0 7 -3 9 -6l130 -261c5 -10 13 -10 18 0l123 261c2 4 5 6 9 6h35c9 0 13 -6 9 -14
l-146 -292c-2 -4 -2 -7 0 -11z" />
    <glyph glyph-name="Y" unicode="Y" horiz-adv-x="414" 
d="M404 613l-172 -320v-283c0 -7 -3 -10 -10 -10h-31c-7 0 -10 3 -10 10v283l-170 320c-5 9 -1 15 9 15h38c4 0 7 -3 9 -6l133 -270c5 -10 13 -10 18 0l129 270c2 3 5 6 9 6h39c10 0 14 -6 9 -15z" />
    <glyph glyph-name="Z" unicode="Z" horiz-adv-x="412" 
d="M382 10c0 -7 -3 -10 -10 -10h-326c-9 0 -13 6 -9 14l250 561c4 8 0 14 -9 14h-227c-7 0 -10 3 -10 10v19c0 7 3 10 10 10h301c9 0 13 -6 9 -14l-251 -560c-4 -8 0 -14 9 -14h253c7 0 10 -3 10 -10v-20z" />
    <glyph glyph-name="bracketleft" unicode="[" horiz-adv-x="330" 
d="M255 -182c0 -7 -3 -10 -10 -10h-127c-7 0 -10 3 -10 10v907c0 7 3 10 10 10h127c7 0 10 -3 10 -10v-19c0 -7 -3 -10 -10 -10h-76c-7 0 -10 -3 -10 -10v-828c0 -7 3 -10 10 -10h76c7 0 10 -3 10 -10v-20z" />
    <glyph glyph-name="backslash" unicode="\" horiz-adv-x="310" 
d="M305 14c4 -9 0 -14 -9 -14h-34c-4 0 -7 2 -9 6l-260 608c-4 9 0 14 9 14h34c4 0 7 -2 9 -6z" />
    <glyph glyph-name="bracketright" unicode="]" horiz-adv-x="330" 
d="M222 -182c0 -7 -3 -10 -10 -10h-127c-7 0 -10 3 -10 10v20c0 7 3 10 10 10h76c7 0 10 3 10 10v828c0 7 -3 10 -10 10h-76c-7 0 -10 3 -10 10v19c0 7 3 10 10 10h127c7 0 10 -3 10 -10v-907z" />
    <glyph glyph-name="asciicircum" unicode="^" 
d="M449 321h-42l-148 262h-2l-149 -262h-42l186 319h12z" />
    <glyph glyph-name="underscore" unicode="_" horiz-adv-x="205" 
d="M211 -215c0 -7 -3 -10 -10 -10h-210c-7 0 -10 3 -10 10v25c0 7 3 10 10 10h210c7 0 10 -3 10 -10v-25z" />
    <glyph glyph-name="quoteleft" unicode="&#x2018;" horiz-adv-x="161" 
d="M124 666c2 -4 0 -8 -3 -11c-24 -22 -37 -61 -37 -112c0 -7 3 -10 10 -10h13c7 0 10 -3 10 -10v-44c0 -7 -3 -10 -10 -10h-54c-7 0 -10 3 -10 10v49c0 39 6 70 18 94c11 23 27 40 46 53c6 4 10 4 14 -3z" />
    <glyph glyph-name="a" unicode="a" horiz-adv-x="438" 
d="M371 10c0 -7 -3 -10 -10 -10h-19c-7 0 -10 3 -10 10v46c0 13 -12 15 -19 6c-29 -38 -68 -62 -107 -62h-41c-67 0 -120 46 -120 111v13c0 67 53 113 120 113h145c7 0 10 3 10 10v39c0 66 -49 116 -119 116c-39 0 -77 -20 -102 -54c-3 -4 -7 -6 -12 -4l-28 14
c-6 3 -8 8 -4 14c11 15 24 30 42 42c26 17 60 29 104 29c103 0 170 -62 170 -157v-276zM320 138v49c0 7 -3 10 -10 10h-145c-39 0 -70 -31 -70 -70v-16c0 -39 28 -71 70 -71h41c50 0 95 46 114 98z" />
    <glyph glyph-name="b" unicode="b" horiz-adv-x="470" 
d="M413 160c0 -93 -68 -160 -171 -160c-49 0 -83 19 -110 53c-7 9 -20 9 -20 -4v-39c0 -7 -3 -10 -10 -10h-19c-7 0 -10 3 -10 10v608c0 7 3 10 10 10h31c7 0 10 -3 10 -10v-221c0 -13 11 -12 18 -5c33 33 68 44 110 44c90 0 161 -65 161 -158v-118zM362 160v118
c0 65 -53 118 -120 118c-66 0 -118 -51 -118 -118v-118c0 -65 53 -120 118 -120c70 0 120 50 120 120z" />
    <glyph glyph-name="c" unicode="c" horiz-adv-x="420" 
d="M373 61c-13 -19 -29 -36 -49 -48c-24 -15 -55 -23 -97 -23c-103 0 -169 65 -169 160v138c0 75 66 158 169 158c43 0 74 -8 98 -22c20 -12 35 -28 48 -47c4 -6 1 -11 -5 -14l-25 -12c-4 -2 -9 -2 -12 1c-30 35 -64 54 -104 54c-66 0 -118 -51 -118 -118v-138
c0 -69 47 -120 118 -120c41 0 76 20 104 56c3 4 6 4 10 2l26 -12c6 -3 10 -9 6 -15z" />
    <glyph glyph-name="d" unicode="d" horiz-adv-x="470" 
d="M398 10c0 -7 -3 -10 -10 -10h-19c-7 0 -10 3 -10 10v39c0 13 -13 13 -20 4c-27 -34 -61 -53 -110 -53c-103 0 -171 67 -171 160v118c0 93 71 158 161 158c42 0 77 -11 110 -44c7 -7 18 -8 18 5v221c0 7 3 10 10 10h31c7 0 10 -3 10 -10v-608zM347 160v118
c0 66 -51 118 -118 118s-120 -53 -120 -118v-118c0 -70 50 -120 120 -120c65 0 118 55 118 120z" />
    <glyph glyph-name="e" unicode="e" horiz-adv-x="455" 
d="M398 224c0 -7 -3 -10 -10 -10h-269c-7 0 -10 -3 -10 -10v-54c0 -69 47 -120 118 -120h15c43 0 77 20 104 56c3 4 6 4 10 2l26 -12c6 -3 10 -9 6 -15c-12 -17 -27 -32 -45 -44c-26 -17 -60 -27 -101 -27h-15c-103 0 -169 65 -169 160v138c0 75 66 158 169 158
c109 0 171 -77 171 -163v-59zM347 264v16c0 71 -49 126 -120 126c-66 0 -118 -51 -118 -118v-19c0 -11 2 -15 10 -15h218c7 0 10 3 10 10z" />
    <glyph glyph-name="f" unicode="f" horiz-adv-x="271" 
d="M289 628l-8 -23c-1 -3 -5 -6 -8 -6h-14c-68 0 -118 -50 -118 -118v-83c0 -7 3 -10 10 -10h77c7 0 10 -3 10 -10v-20c0 -7 -3 -10 -10 -10h-77c-7 0 -10 -3 -10 -10v-328c0 -7 -3 -10 -10 -10h-31c-7 0 -10 3 -10 10v328c0 7 -3 10 -10 10h-27c-7 0 -10 3 -10 10v20
c0 7 3 10 10 10h27c7 0 10 3 10 10v73c0 102 71 169 169 169h19c11 0 14 -3 11 -12z" />
    <glyph glyph-name="g" unicode="g" horiz-adv-x="450" 
d="M438 -116c0 -72 -57 -109 -123 -109h-145c-66 0 -119 38 -119 109v3c0 37 23 74 67 91c6 2 8 9 4 13c-17 20 -25 41 -25 61c0 24 10 48 29 66c5 4 3 10 -2 14c-54 39 -73 84 -73 136v10c0 93 72 158 167 158c50 0 83 -18 113 -52c8 -9 19 -8 19 5v37c0 7 3 10 10 10h20
c7 0 10 -3 10 -10v-158c0 -93 -75 -160 -172 -160c-9 0 -29 2 -39 3c-21 -8 -35 -33 -35 -59c0 -28 17 -52 43 -59h128c75 0 123 -38 123 -106v-3zM336 268v10c0 65 -53 118 -118 118c-66 0 -115 -51 -115 -118v-10c0 -66 46 -120 115 -120c72 0 118 55 118 120zM387 -116v3
c0 38 -27 65 -72 65h-145c-40 0 -70 -25 -70 -65v-3c0 -42 26 -68 70 -68h145c44 0 72 26 72 68z" />
    <glyph glyph-name="h" unicode="h" horiz-adv-x="480" 
d="M413 10c0 -7 -3 -10 -10 -10h-31c-7 0 -10 3 -10 10v268c0 65 -55 118 -120 118c-66 0 -118 -51 -118 -118v-268c0 -7 -3 -10 -10 -10h-31c-7 0 -10 3 -10 10v608c0 7 3 10 10 10h31c7 0 10 -3 10 -10v-221c0 -13 11 -12 18 -5c30 30 63 44 110 44c91 0 161 -65 161 -158
v-268z" />
    <glyph glyph-name="i" unicode="i" horiz-adv-x="196" 
d="M134 604c0 -20 -16 -37 -36 -37s-35 17 -35 37s15 36 35 36s36 -16 36 -36zM124 10c0 -7 -3 -10 -10 -10h-31c-7 0 -10 3 -10 10v416c0 7 3 10 10 10h31c7 0 10 -3 10 -10v-416z" />
    <glyph glyph-name="j" unicode="j" horiz-adv-x="196" 
d="M134 604c0 -20 -16 -37 -36 -37s-35 17 -35 37s15 36 35 36s36 -16 36 -36zM124 -66c0 -64 -27 -114 -75 -144c-17 -11 -37 -20 -59 -25c-9 -2 -13 1 -13 10v22c0 4 3 9 8 10c55 15 88 60 88 115v504c0 7 3 10 10 10h31c7 0 10 -3 10 -10v-492z" />
    <glyph glyph-name="k" unicode="k" horiz-adv-x="430" 
d="M408 15c5 -9 1 -15 -9 -15h-36c-3 0 -7 2 -9 5l-146 240c-4 7 -10 8 -16 2l-68 -69v-168c0 -7 -3 -10 -10 -10h-31c-7 0 -10 3 -10 10v608c0 7 3 10 10 10h31c7 0 10 -3 10 -10v-368c0 -11 9 -15 17 -7l169 186c4 4 9 7 14 7h28c11 0 15 -9 7 -17l-119 -119
c-4 -4 -5 -8 -2 -12z" />
    <glyph glyph-name="l" unicode="l" horiz-adv-x="196" 
d="M124 10c0 -7 -3 -10 -10 -10h-31c-7 0 -10 3 -10 10v608c0 7 3 10 10 10h31c7 0 10 -3 10 -10v-608z" />
    <glyph glyph-name="m" unicode="m" horiz-adv-x="725" 
d="M658 10c0 -7 -3 -10 -10 -10h-31c-7 0 -10 3 -10 10v268c0 70 -46 118 -110 118c-49 0 -106 -52 -106 -118v-268c0 -7 -3 -10 -10 -10h-31c-7 0 -10 3 -10 10v268c0 66 -48 118 -110 118c-48 0 -106 -49 -106 -118v-268c0 -7 -3 -10 -10 -10h-31c-7 0 -10 3 -10 10v416
c0 7 3 10 10 10h19c7 0 10 -3 10 -10v-40c0 -13 10 -15 18 -6c31 37 68 56 112 56c53 0 92 -30 119 -71c5 -8 11 -7 16 0c33 45 76 71 124 71c90 0 157 -65 157 -158v-268z" />
    <glyph glyph-name="n" unicode="n" horiz-adv-x="480" 
d="M413 10c0 -7 -3 -10 -10 -10h-31c-7 0 -10 3 -10 10v268c0 67 -48 118 -120 118c-66 0 -118 -51 -118 -118v-268c0 -7 -3 -10 -10 -10h-31c-7 0 -10 3 -10 10v416c0 7 3 10 10 10h19c7 0 10 -3 10 -10v-41c0 -13 13 -13 20 -4c30 37 71 55 110 55c103 0 171 -65 171 -158
v-268z" />
    <glyph glyph-name="o" unicode="o" horiz-adv-x="454" 
d="M397 150c0 -98 -78 -160 -172 -160c-95 0 -167 63 -167 160v138c0 99 71 158 167 158s172 -57 172 -158v-138zM346 150v138c0 70 -52 118 -121 118c-71 0 -116 -47 -116 -118v-138c0 -69 45 -120 116 -120c68 0 121 52 121 120z" />
    <glyph glyph-name="p" unicode="p" horiz-adv-x="470" 
d="M413 158c0 -93 -71 -158 -161 -158c-42 0 -77 11 -110 44c-7 7 -18 8 -18 -5v-254c0 -7 -3 -10 -10 -10h-31c-7 0 -10 3 -10 10v641c0 7 3 10 10 10h19c7 0 10 -3 10 -10v-39c0 -13 13 -13 20 -4c27 34 61 53 110 53c103 0 171 -67 171 -160v-118zM362 158v118
c0 70 -50 120 -120 120c-65 0 -118 -55 -118 -120v-118c0 -66 51 -118 118 -118s120 53 120 118z" />
    <glyph glyph-name="q" unicode="q" horiz-adv-x="470" 
d="M398 -215c0 -7 -3 -10 -10 -10h-31c-7 0 -10 3 -10 10v254c0 13 -11 12 -18 5c-33 -33 -68 -44 -110 -44c-90 0 -161 65 -161 158v118c0 93 68 160 171 160c49 0 83 -19 110 -53c7 -9 20 -9 20 4v39c0 7 3 10 10 10h19c7 0 10 -3 10 -10v-641zM347 158v118
c0 65 -53 120 -118 120c-70 0 -120 -50 -120 -120v-118c0 -65 53 -118 120 -118c66 0 118 51 118 118z" />
    <glyph glyph-name="r" unicode="r" horiz-adv-x="266" 
d="M263 395c0 -7 -3 -10 -10 -10h-11c-67 0 -118 -57 -118 -117v-258c0 -7 -3 -10 -10 -10h-31c-7 0 -10 3 -10 10v416c0 7 3 10 10 10h19c7 0 10 -3 10 -10v-46c0 -13 13 -14 20 -5c34 43 71 61 110 61h10c8 0 11 -2 11 -10v-31z" />
    <glyph glyph-name="s" unicode="s" horiz-adv-x="439" 
d="M389 123c0 -76 -55 -133 -155 -133h-32c-48 0 -84 15 -111 35c-14 10 -25 22 -34 34c-5 6 -3 12 5 15l25 11c6 3 10 0 13 -4c23 -34 60 -56 102 -56h32c70 0 105 45 105 90c0 61 -65 68 -134 84s-152 33 -152 120c0 85 67 127 149 127h32c39 0 72 -10 98 -26
c18 -11 33 -25 44 -39c5 -6 1 -12 -5 -15l-23 -11c-4 -2 -8 0 -11 4c-26 32 -64 52 -103 52h-32c-71 0 -99 -39 -99 -84c0 -60 69 -70 113 -80c88 -19 173 -34 173 -124z" />
    <glyph glyph-name="t" unicode="t" horiz-adv-x="267" 
d="M235 1c0 -7 -4 -11 -11 -10c-31 6 -57 18 -77 33c-38 29 -58 72 -58 126v236c0 7 -3 10 -10 10h-60c-7 0 -10 3 -10 10v7l109 117c1 1 5 3 7 3h5c7 0 10 -3 10 -10v-77c0 -7 3 -10 10 -10h75c7 0 10 -3 10 -10v-20c0 -7 -3 -10 -10 -10h-75c-7 0 -10 -3 -10 -10v-236
c0 -55 32 -101 87 -116c5 -1 8 -6 8 -10v-23z" />
    <glyph glyph-name="u" unicode="u" horiz-adv-x="482" 
d="M410 10c0 -7 -3 -10 -10 -10h-21c-7 0 -10 3 -10 10v41c0 13 -12 14 -19 5c-29 -36 -65 -56 -113 -56c-103 0 -169 67 -169 160v266c0 7 3 10 10 10h31c7 0 10 -3 10 -10v-266c0 -70 53 -120 118 -120c68 0 122 52 122 120v266c0 7 3 10 10 10h31c7 0 10 -3 10 -10v-416z
" />
    <glyph glyph-name="v" unicode="v" horiz-adv-x="408" 
d="M396 422l-169 -416c-2 -4 -5 -6 -9 -6h-28c-4 0 -7 2 -9 6l-168 416c-4 9 0 14 9 14h36c4 0 7 -2 9 -6l126 -324c2 -6 10 -30 11 -39h4c1 9 9 34 11 39l125 324c2 4 5 6 9 6h34c9 0 13 -5 9 -14z" />
    <glyph glyph-name="w" unicode="w" horiz-adv-x="597" 
d="M580 423l-127 -416c-1 -5 -5 -7 -10 -7h-23c-5 0 -9 2 -10 7l-98 332c-7 23 -7 25 -10 39h-4c-3 -14 -3 -16 -10 -39l-100 -332c-1 -5 -5 -7 -10 -7h-22c-5 0 -9 2 -10 7l-128 416c-3 8 1 13 10 13h35c5 0 9 -2 10 -7l82 -317c4 -16 7 -25 10 -39h4c3 14 5 23 10 39
l92 317c1 5 5 7 10 7h41c5 0 9 -2 10 -7l89 -317c4 -15 6 -25 9 -39h4c3 14 6 22 10 38l81 318c1 5 5 7 10 7h35c9 0 12 -5 10 -13z" />
    <glyph glyph-name="x" unicode="x" horiz-adv-x="412" 
d="M375 15c5 -8 2 -15 -8 -15h-38c-3 0 -7 2 -9 5l-109 179c-4 6 -7 6 -11 0l-111 -179c-2 -3 -4 -5 -7 -5h-36c-10 0 -13 7 -8 15l131 201c2 2 2 8 0 10l-129 195c-5 8 -2 15 8 15h37c3 0 6 -2 8 -5l110 -174c4 -7 9 -7 13 0l106 174c2 3 5 5 8 5h35c10 0 13 -7 8 -15
l-127 -194c-2 -3 -2 -7 0 -10z" />
    <glyph glyph-name="y" unicode="y" horiz-adv-x="482" 
d="M410 -64c0 -99 -59 -171 -173 -171c-49 0 -84 13 -110 33c-14 11 -25 24 -34 39c-4 6 0 11 6 14l26 13c5 2 8 1 11 -3c25 -34 58 -56 101 -56c72 0 122 52 122 120v114c0 13 -9 16 -20 5c-34 -34 -68 -44 -110 -44c-90 0 -161 65 -161 158v268c0 7 3 10 10 10h31
c7 0 10 -3 10 -10v-268c0 -65 53 -118 120 -118c66 0 120 51 120 118v268c0 7 3 10 10 10h31c7 0 10 -3 10 -10v-490z" />
    <glyph glyph-name="z" unicode="z" horiz-adv-x="391" 
d="M361 10c0 -7 -3 -10 -10 -10h-307c-10 0 -14 6 -9 15l215 365c5 9 1 15 -9 15h-208c-7 0 -10 3 -10 10v20c0 7 3 10 10 10h289c10 0 14 -6 9 -15l-216 -365c-5 -9 -1 -15 9 -15h227c7 0 10 -3 10 -10v-20z" />
    <glyph glyph-name="braceleft" unicode="{" horiz-adv-x="371" 
d="M296 -181c0 -9 -4 -12 -11 -10c-34 8 -62 23 -84 44c-33 31 -52 75 -52 126v154c0 55 -32 98 -87 113c-5 1 -8 6 -8 10v31c0 4 3 9 8 10c55 15 87 60 87 115v156c0 47 16 87 45 117c23 24 54 40 91 49c7 2 11 -1 11 -10v-23c0 -4 -3 -9 -8 -10c-55 -13 -87 -58 -87 -113
v-178c0 -36 -28 -97 -77 -120c-5 -2 -6 -6 0 -9c48 -25 77 -98 77 -135v-169c0 -55 32 -100 87 -115c5 -1 8 -6 8 -10v-23z" />
    <glyph glyph-name="bar" unicode="|" horiz-adv-x="232" 
d="M98 -250v1000h36v-1000h-36z" />
    <glyph glyph-name="braceright" unicode="}" horiz-adv-x="371" 
d="M317 256c0 -4 -3 -9 -8 -10c-55 -15 -87 -58 -87 -113v-154c0 -55 -21 -101 -59 -133c-21 -17 -47 -30 -77 -37c-7 -2 -11 1 -11 10v23c0 4 3 9 8 10c55 15 87 60 87 115v169c0 37 29 110 77 135c6 3 5 7 0 9c-49 23 -77 84 -77 120v178c0 55 -32 100 -87 113
c-5 1 -8 6 -8 10v23c0 9 4 12 11 10c32 -7 60 -21 82 -40c34 -31 54 -74 54 -126v-156c0 -55 32 -100 87 -115c5 -1 8 -6 8 -10v-31z" />
    <glyph glyph-name="asciitilde" unicode="~" 
d="M452 258c-23 -37 -58 -72 -107 -72c-37 0 -69 14 -96 31c-24 15 -52 30 -80 30c-27 0 -60 -20 -83 -60l-24 23c24 38 57 72 109 72c35 0 65 -12 93 -31c27 -17 53 -30 80 -30c28 0 61 20 84 60z" />
    <glyph glyph-name="exclamdown" unicode="&#xa1;" horiz-adv-x="293" 
d="M191 411c0 -25 -20 -45 -45 -45s-45 20 -45 45s20 45 45 45s45 -20 45 -45zM173 -182c0 -7 -3 -10 -10 -10h-32c-7 0 -10 3 -10 10v249l16 176c1 7 2 10 9 10s9 -3 10 -10l17 -174v-251z" />
    <glyph glyph-name="cent" unicode="&#xa2;" 
d="M409 79c-11 -16 -23 -30 -39 -41c-19 -14 -42 -24 -73 -28c-9 -1 -12 -6 -12 -14v-66c0 -7 -3 -10 -10 -10h-25c-7 0 -10 3 -10 10v66c0 9 -4 14 -13 15c-81 13 -133 74 -133 157v138c0 66 51 139 134 155c9 2 12 6 12 12v67c0 7 3 10 10 10h25c7 0 10 -3 10 -10v-66
c0 -8 5 -11 12 -12c29 -4 51 -12 69 -24c18 -11 31 -26 43 -43c4 -6 1 -11 -5 -14l-25 -12c-4 -2 -9 -2 -12 1c-21 25 -45 41 -71 49c-8 2 -11 -1 -11 -9v-348c0 -8 4 -12 13 -9c26 8 49 26 69 51c3 4 6 4 10 2l26 -12c6 -3 10 -9 6 -15zM240 61v349c0 9 -4 12 -13 9
c-48 -15 -82 -59 -82 -113v-138c0 -57 32 -101 83 -115c9 -3 12 1 12 8z" />
    <glyph glyph-name="sterling" unicode="&#xa3;" 
d="M471 570c4 -6 1 -11 -5 -14l-25 -13c-4 -2 -8 -3 -11 1c-29 37 -62 55 -103 55c-68 0 -118 -54 -118 -118v-132c0 -7 3 -10 10 -10h76c7 0 10 -3 10 -10v-20c0 -7 -3 -10 -10 -10h-76c-7 0 -10 -3 -10 -10v-137c0 -33 -13 -72 -43 -99c-5 -5 -4 -13 6 -13h268
c7 0 10 -3 10 -10v-20c0 -7 -3 -10 -10 -10h-416c-7 0 -10 3 -10 10v20c0 7 3 10 10 10h20c61 0 114 54 114 120v129c0 7 -3 10 -10 10h-29c-7 0 -10 3 -10 10v20c0 7 3 10 10 10h29c7 0 10 3 10 10v122c0 95 70 169 169 169c46 0 78 -10 103 -27c16 -11 29 -26 41 -43z" />
    <glyph glyph-name="fraction" unicode="&#x2044;" horiz-adv-x="141" 
d="M224 614l-260 -608c-2 -4 -5 -6 -9 -6h-24c-9 0 -13 5 -9 14l260 608c2 4 5 6 9 6h24c9 0 13 -5 9 -14z" />
    <glyph glyph-name="yen" unicode="&#xa5;" 
d="M465 107c0 -7 -3 -10 -10 -10h-161c-7 0 -10 -3 -10 -10v-77c0 -7 -3 -10 -10 -10h-31c-7 0 -10 3 -10 10v77c0 7 -3 10 -10 10h-162c-7 0 -10 3 -10 10v26c0 7 3 10 10 10h162c7 0 10 3 10 10v97c0 7 -3 10 -10 10h-162c-7 0 -10 3 -10 10v27c0 7 3 10 10 10h145
c10 0 14 6 9 15l-154 291c-5 9 -1 15 9 15h38c4 0 7 -3 9 -6l133 -270c5 -10 13 -10 18 0l129 270c2 3 5 6 9 6h38c10 0 14 -6 9 -15l-154 -291c-5 -9 -1 -15 9 -15h147c7 0 10 -3 10 -10v-27c0 -7 -3 -10 -10 -10h-161c-7 0 -10 -3 -10 -10v-97c0 -7 3 -10 10 -10h161
c7 0 10 -3 10 -10v-26z" />
    <glyph glyph-name="florin" unicode="&#x192;" 
d="M414 628l-8 -23c-1 -3 -5 -6 -8 -6h-14c-68 0 -118 -50 -118 -118v-132c0 -7 3 -10 10 -10h77c7 0 10 -3 10 -10v-20c0 -7 -3 -10 -10 -10h-77c-7 0 -10 -3 -10 -10v-354c0 -102 -71 -169 -169 -169h-19c-11 0 -14 3 -11 12l8 23c1 3 5 6 8 6h14c68 0 118 50 118 118v364
c0 7 -3 10 -10 10h-27c-7 0 -10 3 -10 10v20c0 7 3 10 10 10h27c7 0 10 3 10 10v122c0 102 71 169 169 169h19c11 0 14 -3 11 -12z" />
    <glyph glyph-name="section" unicode="&#xa7;" 
d="M447 -81c0 -93 -68 -160 -171 -160h-46c-44 0 -80 14 -108 35c-14 11 -26 24 -36 38c-4 6 -1 11 5 14l27 12c5 2 7 1 10 -3c28 -35 65 -56 102 -56h46c70 0 120 53 120 120c0 175 -306 144 -306 333c0 39 16 77 39 107c5 7 5 11 0 17c-23 27 -39 60 -39 105
c0 95 65 159 168 159h18c45 0 78 -11 105 -30c16 -11 29 -24 41 -40c5 -6 1 -11 -5 -14l-26 -13c-4 -2 -8 -2 -11 1c-32 36 -66 55 -104 55h-18c-72 0 -118 -48 -118 -118c0 -167 307 -126 307 -331c0 -36 -15 -73 -37 -103c-4 -6 -4 -13 1 -19c22 -28 36 -63 36 -109z
M396 150c0 102 -122 126 -212 181c-8 5 -12 4 -17 -2c-17 -23 -27 -51 -27 -77c0 -95 127 -116 218 -177c8 -5 12 -4 16 3c13 23 22 50 22 72z" />
    <glyph glyph-name="currency" unicode="&#xa4;" horiz-adv-x="618" 
d="M523 173c-10 -10 -20 -21 -30 -31l-66 66c-32 -26 -74 -42 -118 -42c-33 0 -80 10 -118 42l-66 -66c-11 10 -20 21 -31 31c22 21 45 43 67 64c-23 31 -40 71 -40 117s15 88 40 117c-22 22 -45 43 -67 65c11 10 20 21 31 31l66 -66c41 31 85 41 118 41
c37 0 84 -13 117 -41c22 22 45 44 67 66c10 -10 20 -21 30 -31c-22 -22 -45 -43 -67 -65c28 -34 41 -76 41 -117c0 -45 -16 -84 -41 -117c22 -21 45 -43 67 -64zM454 355c0 86 -73 144 -144 144c-85 0 -146 -67 -146 -144c0 -78 65 -146 145 -146c79 0 145 67 145 146z" />
    <glyph glyph-name="quotesingle" unicode="'" horiz-adv-x="161" 
d="M109 626l-18 -144c-1 -6 -4 -9 -10 -9h-6c-6 0 -9 3 -10 9l-21 144c-1 7 3 11 10 11h45c7 0 11 -4 10 -11z" />
    <glyph glyph-name="quotedblleft" unicode="&#x201c;" horiz-adv-x="282" 
d="M245 666c2 -4 0 -8 -3 -11c-24 -22 -37 -61 -37 -112c0 -7 3 -10 10 -10h13c7 0 10 -3 10 -10v-44c0 -7 -3 -10 -10 -10h-54c-7 0 -10 3 -10 10v49c0 44 8 78 23 103c10 18 24 33 41 44c6 4 10 4 14 -3zM124 666c2 -4 0 -8 -3 -11c-24 -22 -37 -61 -37 -112
c0 -7 3 -10 10 -10h13c7 0 10 -3 10 -10v-44c0 -7 -3 -10 -10 -10h-54c-7 0 -10 3 -10 10v49c0 44 8 78 23 103c10 18 24 33 41 44c6 4 10 4 14 -3z" />
    <glyph glyph-name="guillemotleft" unicode="&#xab;" horiz-adv-x="561" 
d="M495 118c0 -11 -7 -14 -16 -8l-186 133c-2 2 -4 5 -4 8v52c0 3 2 6 4 8l186 130c9 6 16 3 16 -8v-30c0 -3 -2 -6 -4 -8l-153 -110c-7 -5 -7 -11 0 -16l153 -111c2 -2 4 -5 4 -8v-32zM263 120c0 -11 -7 -14 -16 -8l-183 131c-2 2 -4 5 -4 8v52c0 3 2 6 4 8l183 130
c9 6 16 3 16 -8v-30c0 -3 -2 -6 -4 -8l-153 -110c-7 -5 -7 -11 0 -16l153 -111c2 -2 4 -5 4 -8v-30z" />
    <glyph glyph-name="guilsinglleft" unicode="&#x2039;" horiz-adv-x="330" 
d="M263 120c0 -11 -7 -14 -16 -8l-183 131c-2 2 -4 5 -4 8v52c0 3 2 6 4 8l183 130c9 6 16 3 16 -8v-30c0 -3 -2 -6 -4 -8l-153 -110c-7 -5 -7 -11 0 -16l153 -111c2 -2 4 -5 4 -8v-30z" />
    <glyph glyph-name="guilsinglright" unicode="&#x203a;" horiz-adv-x="330" 
d="M277 251c0 -3 -2 -6 -4 -8l-186 -131c-9 -6 -16 -3 -16 8v30c0 3 2 6 4 8l152 111c7 5 7 11 0 16l-152 110c-2 2 -4 5 -4 8v30c0 11 7 14 16 8l186 -130c2 -2 4 -5 4 -8v-52z" />
    <glyph glyph-name="endash" unicode="&#x2013;" horiz-adv-x="594" 
d="M535 225c0 -7 -3 -10 -10 -10h-456c-7 0 -10 3 -10 10v18c0 7 3 10 10 10h456c7 0 10 -3 10 -10v-18z" />
    <glyph glyph-name="dagger" unicode="&#x2020;" horiz-adv-x="415" 
d="M404 418c0 -7 -4 -11 -11 -10l-166 14c-9 1 -12 -3 -11 -11l15 -89l-21 -537c0 -4 -2 -7 -6 -7s-6 3 -6 7l-21 537l15 89c1 8 -2 12 -11 11l-167 -14c-7 -1 -11 3 -11 10v30c0 7 4 11 11 10l168 -13c8 -1 12 3 11 11l-14 163c-1 7 3 11 10 11h30c7 0 11 -4 10 -11
l-13 -163c-1 -8 3 -12 11 -11l166 13c7 1 11 -3 11 -10v-30z" />
    <glyph glyph-name="daggerdbl" unicode="&#x2021;" horiz-adv-x="415" 
d="M404 198c0 -7 -4 -11 -11 -10l-158 13c-7 1 -11 -3 -11 -10l-14 -406c0 -4 -2 -7 -6 -7s-6 3 -6 7l-14 406c0 7 -4 11 -11 10l-159 -13c-7 -1 -11 3 -11 10v30c0 7 4 11 11 10l159 -13c8 -1 12 3 11 11l-7 87l15 88c1 8 -2 12 -11 11l-167 -14c-7 -1 -11 3 -11 10v30
c0 7 4 11 11 10l168 -13c8 -1 12 3 11 11l-14 163c-1 7 3 11 10 11h30c7 0 11 -4 10 -11l-13 -163c-1 -8 3 -12 11 -11l166 13c7 1 11 -3 11 -10v-30c0 -7 -4 -11 -11 -10l-166 14c-9 1 -12 -3 -11 -11l15 -87l-7 -88c-1 -8 3 -12 11 -11l158 13c7 1 11 -3 11 -10v-30z" />
    <glyph glyph-name="periodcentered" unicode="&#xb7;" 
d="M303 233c0 -25 -20 -45 -45 -45s-46 20 -46 45s20 45 45 45s46 -20 46 -45z" />
    <glyph glyph-name="paragraph" unicode="&#xb6;" horiz-adv-x="623" 
d="M541 -215c0 -7 -3 -10 -10 -10h-29c-7 0 -10 3 -10 10v794c0 7 -3 10 -10 10h-123c-7 0 -10 -3 -10 -10v-794c0 -7 -3 -10 -10 -10h-31c-7 0 -10 3 -10 10v302c0 7 -3 10 -10 10h-45c-103 0 -169 68 -169 160v204c0 102 66 167 169 167h288c7 0 10 -3 10 -10v-833z" />
    <glyph glyph-name="bullet" unicode="&#x2022;" horiz-adv-x="500" 
d="M390 305c0 -76 -56 -128 -138 -128h-4c-84 0 -138 52 -138 128v22c0 76 53 126 137 126h4c82 0 139 -50 139 -126v-22z" />
    <glyph glyph-name="quotesinglbase" unicode="&#x201a;" horiz-adv-x="161" 
d="M122 23c0 -41 -8 -72 -21 -97c-10 -19 -24 -34 -41 -46c-6 -4 -10 -1 -14 4l-3 4c-4 5 -2 9 2 13c21 21 36 59 36 105c0 5 -3 10 -10 10h-13c-7 0 -10 3 -10 10v44c0 7 3 10 10 10h54c7 0 10 -3 10 -10v-47z" />
    <glyph glyph-name="quotedblbase" unicode="&#x201e;" horiz-adv-x="282" 
d="M239 23c0 -41 -8 -72 -21 -97c-10 -19 -24 -34 -41 -46c-6 -4 -10 -1 -14 4l-3 4c-4 5 -2 9 2 13c21 21 36 59 36 105c0 5 -3 10 -10 10h-13c-7 0 -10 3 -10 10v44c0 7 3 10 10 10h54c7 0 10 -3 10 -10v-47zM117 23c0 -41 -8 -72 -21 -97c-10 -19 -24 -34 -41 -46
c-6 -4 -10 -1 -14 4l-3 4c-4 5 -2 9 2 13c21 21 36 59 36 105c0 5 -3 10 -10 10h-13c-7 0 -10 3 -10 10v44c0 7 3 10 10 10h54c7 0 10 -3 10 -10v-47z" />
    <glyph glyph-name="quotedblright" unicode="&#x201d;" horiz-adv-x="282" 
d="M240 578c0 -39 -7 -69 -18 -93c-11 -23 -26 -41 -46 -54c-6 -4 -10 -4 -14 3l-3 6c-2 4 0 8 3 11c24 22 37 61 37 112c0 7 -3 10 -10 10h-13c-7 0 -10 3 -10 10v44c0 7 3 10 10 10h54c7 0 10 -3 10 -10v-49zM119 578c0 -37 -6 -66 -16 -90c-11 -25 -27 -43 -48 -57
c-6 -4 -10 -4 -14 3l-3 6c-2 4 0 8 3 11c24 22 37 61 37 112c0 7 -3 10 -10 10h-13c-7 0 -10 3 -10 10v44c0 7 3 10 10 10h54c7 0 10 -3 10 -10v-49z" />
    <glyph glyph-name="guillemotright" unicode="&#xbb;" horiz-adv-x="561" 
d="M506 251c0 -3 -2 -6 -4 -8l-183 -131c-9 -6 -16 -3 -16 8v30c0 3 2 6 4 8l152 111c7 5 7 11 0 16l-152 110c-2 2 -4 5 -4 8v30c0 11 7 14 16 8l183 -130c2 -2 4 -5 4 -8v-52zM277 251c0 -3 -2 -6 -4 -8l-186 -131c-9 -6 -16 -3 -16 8v30c0 3 2 6 4 8l152 111
c7 5 7 11 0 16l-152 110c-2 2 -4 5 -4 8v30c0 11 7 14 16 8l186 -130c2 -2 4 -5 4 -8v-52z" />
    <glyph glyph-name="ellipsis" unicode="&#x2026;" horiz-adv-x="1000" 
d="M816 25c0 -25 -20 -45 -45 -45s-45 20 -45 45s20 45 45 45s45 -20 45 -45zM544 25c0 -25 -20 -45 -45 -45s-45 20 -45 45s20 45 45 45s45 -20 45 -45zM272 25c0 -25 -20 -45 -45 -45s-45 20 -45 45s20 45 45 45s45 -20 45 -45z" />
    <glyph glyph-name="perthousand" unicode="&#x2030;" horiz-adv-x="727" 
d="M676 85c0 -50 -35 -85 -90 -85s-90 35 -90 85v100c0 50 35 85 90 85s90 -35 90 -85v-100zM219 445c0 -50 -35 -85 -90 -85s-90 35 -90 85v100c0 50 35 85 90 85s90 -35 90 -85v-100zM393 616l-261 -610c-2 -4 -5 -6 -9 -6h-24c-9 0 -13 5 -9 14l261 610c2 4 5 6 9 6h24
c9 0 13 -5 9 -14zM444 85c0 -50 -35 -85 -90 -85s-90 35 -90 85v100c0 50 35 85 90 85s90 -35 90 -85v-100zM629 85v100c0 29 -17 44 -43 44c-27 0 -44 -17 -44 -44v-100c0 -27 16 -44 44 -44c30 0 43 19 43 44zM172 445v100c0 29 -17 44 -43 44c-27 0 -44 -17 -44 -44v-100
c0 -27 16 -44 44 -44c30 0 43 19 43 44zM397 85v100c0 29 -17 44 -43 44c-27 0 -44 -17 -44 -44v-100c0 -27 16 -44 44 -44c30 0 43 19 43 44z" />
    <glyph glyph-name="questiondown" unicode="&#xbf;" 
d="M337 411c0 -25 -20 -45 -45 -45s-45 20 -45 45s20 45 45 45s45 -20 45 -45zM433 -134c-12 -16 -26 -30 -42 -42c-26 -18 -59 -28 -102 -28h-42c-103 0 -169 64 -169 159c0 96 61 131 115 157c66 32 90 55 90 109v12c0 7 3 11 10 11h32c6 0 9 -4 9 -10v-25
c0 -68 -47 -104 -112 -134c-55 -25 -95 -54 -95 -120c0 -68 55 -118 120 -118h42c38 0 74 19 102 55c3 4 8 6 12 3l26 -15c6 -3 8 -9 4 -14z" />
    <glyph glyph-name="grave" unicode="`" horiz-adv-x="505" 
d="M271 498c4 -6 2 -10 -5 -10h-4c-6 0 -10 2 -18 8l-120 98c-9 7 -4 17 7 17h53c4 0 7 -1 9 -4z" />
    <glyph glyph-name="acute" unicode="&#xb4;" horiz-adv-x="505" 
d="M373 594l-120 -98c-8 -6 -11 -8 -18 -8h-4c-7 0 -9 4 -5 10l78 109c2 3 5 4 9 4h53c11 0 16 -10 7 -17z" />
    <glyph glyph-name="circumflex" unicode="&#x2c6;" horiz-adv-x="505" 
d="M350 500c4 -5 2 -12 -6 -12h-27c-4 0 -7 2 -10 5l-46 60c-5 7 -10 7 -15 0l-46 -60c-3 -3 -6 -5 -10 -5h-27c-8 0 -10 7 -6 12l75 94c2 2 5 4 8 4h27c3 0 6 -2 8 -4z" />
    <glyph glyph-name="tilde" unicode="&#x2dc;" horiz-adv-x="505" 
d="M390 549c-24 -36 -47 -54 -74 -54c-18 0 -37 12 -61 27l-20 12c-16 10 -33 16 -47 16c-15 0 -31 -4 -55 -24c-4 -3 -6 -3 -11 -1l-4 2c-5 2 -5 7 -2 12c23 38 45 54 72 54c21 0 35 -8 56 -23l23 -16c12 -8 33 -18 49 -18c15 0 35 7 58 26c4 3 3 4 9 2l5 -2
c6 -2 5 -8 2 -13z" />
    <glyph glyph-name="macron" unicode="&#xaf;" horiz-adv-x="505" 
d="M354 531c0 -7 -3 -10 -10 -10h-182c-7 0 -10 3 -10 10v20c0 7 3 10 10 10h182c7 0 10 -3 10 -10v-20z" />
    <glyph glyph-name="breve" unicode="&#x2d8;" horiz-adv-x="505" 
d="M360 556c0 -39 -35 -68 -85 -68h-47c-51 0 -81 27 -81 68v32c0 7 2 10 9 10h2c7 0 8 -3 8 -10v-14c0 -29 26 -54 62 -54h47c36 0 64 25 64 54v14c0 7 2 10 9 10h3c7 0 9 -3 9 -10v-32z" />
    <glyph glyph-name="dotaccent" unicode="&#x2d9;" horiz-adv-x="505" 
d="M295 526c0 -22 -19 -37 -43 -37c-25 0 -41 14 -41 37v32c0 22 14 36 41 36c24 0 43 -13 43 -36v-32z" />
    <glyph glyph-name="dieresis" unicode="&#xa8;" horiz-adv-x="505" 
d="M377 544c0 -22 -17 -40 -39 -40s-40 18 -40 40s18 39 40 39s39 -17 39 -39zM209 544c0 -22 -17 -40 -39 -40s-40 18 -40 40s18 39 40 39s39 -17 39 -39z" />
    <glyph glyph-name="ring" unicode="&#x2da;" horiz-adv-x="505" 
d="M333 559c0 -43 -36 -71 -80 -71c-46 0 -77 28 -77 71v32c0 43 31 71 77 71c44 0 80 -28 80 -71v-32zM302 559v32c0 26 -19 43 -49 43s-46 -17 -46 -43v-32c0 -27 16 -43 46 -43s49 17 49 43z" />
    <glyph glyph-name="cedilla" unicode="&#xb8;" horiz-adv-x="505" 
d="M323 -163c0 -53 -43 -86 -95 -86h-32c-7 0 -13 4 -13 13v8c0 9 4 13 13 13h32c30 0 51 23 51 52v9c0 19 -19 33 -48 46c-11 5 -12 15 -8 23l48 103c3 6 8 9 14 9h17c10 0 13 -7 9 -15l-42 -87c-2 -4 -2 -9 2 -11c34 -18 52 -39 52 -68v-9z" />
    <glyph glyph-name="hungarumlaut" unicode="&#x2dd;" horiz-adv-x="505" 
d="M338 589l-67 -100c-2 -3 -4 -5 -7 -5h-2c-5 0 -8 3 -6 8l40 105c1 4 5 7 9 7h26c10 0 12 -8 7 -15zM244 589l-67 -100c-2 -3 -4 -5 -7 -5h-2c-5 0 -8 3 -6 8l40 105c1 4 5 7 9 7h26c10 0 12 -8 7 -15z" />
    <glyph glyph-name="ogonek" unicode="&#x2db;" horiz-adv-x="505" 
d="M311 -229l-3 -7c-4 -10 -13 -11 -21 -8c-55 20 -92 70 -92 126v140c0 11 7 18 18 18h7c11 0 18 -7 18 -18v-147c0 -33 25 -71 61 -83c12 -4 16 -12 12 -21z" />
    <glyph glyph-name="caron" unicode="&#x2c7;" horiz-adv-x="505" 
d="M350 586l-75 -94c-2 -2 -5 -4 -8 -4h-27c-3 0 -6 2 -8 4l-75 94c-4 5 -2 12 6 12h27c4 0 7 -2 10 -5l46 -60c5 -7 10 -7 15 0l46 60c3 3 6 5 10 5h27c8 0 10 -7 6 -12z" />
    <glyph glyph-name="emdash" unicode="&#x2014;" horiz-adv-x="844" 
d="M824 225c0 -7 -3 -10 -10 -10h-745c-7 0 -10 3 -10 10v18c0 7 3 10 10 10h745c7 0 10 -3 10 -10v-18z" />
    <glyph glyph-name="AE" unicode="&#xc6;" horiz-adv-x="697" 
d="M657 10c0 -7 -3 -10 -10 -10h-321c-7 0 -10 3 -10 10v136c0 7 -3 10 -10 10h-207c-5 0 -8 -1 -10 -4l-84 -147c-2 -3 -6 -5 -9 -5h-29c-10 0 -14 6 -9 15l360 608c2 3 6 5 9 5h320c7 0 10 -3 10 -10v-19c0 -7 -3 -10 -10 -10h-270c-7 0 -10 -3 -10 -10v-230
c0 -7 3 -10 10 -10h222c7 0 10 -3 10 -10v-20c0 -7 -3 -10 -10 -10h-222c-7 0 -10 -3 -10 -10v-239c0 -7 3 -10 10 -10h270c7 0 10 -3 10 -10v-20zM318 546h-3s-5 -15 -18 -37l-175 -299c-5 -9 -1 -15 9 -15h175c7 0 10 3 10 10v263c0 58 2 78 2 78z" />
    <glyph glyph-name="ordfeminine" unicode="&#xaa;" horiz-adv-x="323" 
d="M264 332c0 -9 -3 -12 -12 -12h-14c-9 0 -12 3 -12 12v45c0 4 -4 5 -6 1c-16 -33 -46 -57 -77 -57h-28c-50 0 -90 31 -90 83v3c0 51 39 82 90 82h95c5 0 7 2 7 7v29c0 44 -33 76 -78 76c-25 0 -52 -10 -68 -33c-4 -6 -9 -9 -15 -6l-19 10c-6 3 -10 11 -5 18
c8 11 18 22 30 30c19 13 44 20 77 20c75 0 125 -45 125 -115v-193zM217 422v30c0 3 -2 6 -6 6h-96c-24 0 -46 -19 -46 -44v-10c0 -27 19 -46 46 -46h28c33 0 60 30 74 64z" />
    <glyph glyph-name="Lslash" unicode="&#x141;" horiz-adv-x="430" 
d="M422 10c0 -7 -3 -10 -10 -10h-319c-7 0 -10 3 -10 10v234c0 10 -4 13 -11 6l-37 -37c-4 -4 -10 -4 -14 0l-18 18c-4 4 -4 10 0 14l71 70c7 7 9 13 9 25v278c0 7 3 10 10 10h31c7 0 10 -3 10 -10v-226c0 -8 6 -11 12 -5l37 37c4 4 10 4 14 0l17 -17c4 -4 4 -11 0 -15
l-69 -69c-7 -7 -11 -15 -11 -26v-247c0 -7 3 -10 10 -10h268c7 0 10 -3 10 -10v-20z" />
    <glyph glyph-name="Oslash" unicode="&#xd8;" 
d="M443 150c0 -95 -67 -160 -170 -160h-32c-103 0 -168 65 -168 160v331c0 95 65 159 168 159h32c103 0 170 -64 170 -159v-331zM337 562c4 10 3 18 -5 22c-17 10 -38 15 -59 15h-32c-68 0 -117 -50 -117 -118v-331c0 -13 2 -26 6 -38c2 -7 9 -9 13 -1zM392 150v331
c0 18 -4 33 -10 48c-4 9 -10 7 -13 0l-199 -458c-4 -9 -2 -16 4 -20c19 -13 41 -21 67 -21h32c65 0 119 55 119 120z" />
    <glyph glyph-name="OE" unicode="&#x152;" horiz-adv-x="773" 
d="M733 10c0 -7 -3 -10 -10 -10h-387c-16 -6 -40 -10 -62 -10h-32c-103 0 -169 65 -169 160v331c0 95 66 159 169 159h32c21 0 48 -6 68 -12h381c7 0 10 -3 10 -10v-19c0 -7 -3 -10 -10 -10h-297c-9 0 -13 -6 -9 -14c24 -47 28 -69 28 -94v-132c0 -7 3 -10 10 -10h221
c7 0 10 -3 10 -10v-20c0 -7 -3 -10 -10 -10h-221c-7 0 -10 -3 -10 -10v-139c0 -25 -4 -49 -28 -96c-4 -8 0 -14 9 -14h297c7 0 10 -3 10 -10v-20zM394 150v331c0 68 -55 118 -120 118h-32c-68 0 -118 -50 -118 -118v-331c0 -65 50 -120 118 -120h32c65 0 120 55 120 120z
" />
    <glyph glyph-name="ordmasculine" unicode="&#xba;" horiz-adv-x="326" 
d="M288 429c0 -69 -51 -117 -126 -117s-122 47 -122 117v96c0 69 47 115 122 115s126 -45 126 -115v-96zM241 429v96c0 49 -36 77 -79 77s-77 -27 -77 -77v-96c0 -48 35 -79 77 -79c43 0 79 32 79 79z" />
    <glyph glyph-name="ae" unicode="&#xe6;" horiz-adv-x="717" 
d="M660 214c0 -7 -3 -10 -10 -10h-269c-7 0 -10 -3 -10 -10v-44c0 -69 47 -120 118 -120h15c43 0 77 20 104 56c3 4 6 4 10 2l26 -12c6 -3 10 -9 6 -15c-10 -15 -23 -28 -38 -39c-27 -20 -63 -32 -108 -32h-15c-73 0 -127 32 -152 85c-3 6 -6 4 -9 0
c-24 -37 -73 -85 -122 -85h-41c-69 0 -120 45 -120 115v23c0 70 52 116 120 116h145c7 0 10 3 10 10v34c0 65 -50 114 -119 114c-39 0 -77 -20 -102 -54c-3 -4 -7 -6 -12 -4l-28 14c-6 3 -8 8 -4 14c11 15 24 30 42 42c26 17 60 29 104 29c62 0 112 -23 141 -62
c4 -5 8 -5 11 -1c29 38 76 66 136 66c109 0 171 -77 171 -163v-69zM609 254v26c0 71 -49 126 -120 126c-66 0 -118 -51 -118 -118v-29c0 -11 2 -15 10 -15h218c7 0 10 3 10 10zM320 138v56c0 7 -3 10 -10 10h-145c-42 0 -70 -32 -70 -73v-26c0 -43 28 -75 70 -75h41
c50 0 95 56 114 108z" />
    <glyph glyph-name="dotlessi" unicode="&#x131;" horiz-adv-x="196" 
d="M124 10c0 -7 -3 -10 -10 -10h-31c-7 0 -10 3 -10 10v416c0 7 3 10 10 10h31c7 0 10 -3 10 -10v-416z" />
    <glyph glyph-name="lslash" unicode="&#x142;" horiz-adv-x="196" 
d="M204 392l-69 -69c-7 -7 -11 -15 -11 -26v-287c0 -7 -3 -10 -10 -10h-31c-7 0 -10 3 -10 10v234c0 10 -4 13 -11 6l-37 -37c-4 -4 -10 -4 -14 0l-18 18c-4 4 -4 10 0 14l71 70c7 7 9 13 9 25v278c0 7 3 10 10 10h31c7 0 10 -3 10 -10v-226c0 -8 6 -11 12 -5l37 37
c4 4 10 4 14 0l17 -17c4 -4 4 -11 0 -15z" />
    <glyph glyph-name="oslash" unicode="&#xf8;" horiz-adv-x="454" 
d="M397 150c0 -90 -69 -160 -172 -160s-167 70 -167 160v138c0 95 66 158 167 158c103 0 172 -63 172 -158v-138zM346 150v138c0 29 -8 53 -23 72c-7 9 -12 8 -16 -1l-131 -304c-4 -10 -2 -15 5 -18c13 -5 28 -7 44 -7c68 0 121 52 121 120zM268 381c4 10 2 17 -7 20
c-11 3 -23 5 -36 5c-69 0 -116 -45 -116 -118v-138c0 -25 6 -48 17 -66c5 -9 10 -8 14 1z" />
    <glyph glyph-name="oe" unicode="&#x153;" horiz-adv-x="743" 
d="M686 224c0 -7 -3 -10 -10 -10h-269c-7 0 -10 -3 -10 -10v-54c0 -69 47 -120 118 -120h15c43 0 77 20 104 56c3 4 6 4 10 2l26 -12c6 -3 10 -9 6 -15c-12 -17 -26 -31 -44 -43c-26 -17 -60 -28 -102 -28h-15c-62 0 -111 24 -140 64c-3 5 -6 3 -9 0
c-30 -39 -80 -64 -141 -64c-103 0 -167 70 -167 160v138c0 95 66 158 167 158c64 0 115 -24 144 -65c4 -6 7 -5 11 0c29 38 76 65 135 65c109 0 171 -77 171 -163v-59zM635 264v16c0 71 -49 126 -120 126c-66 0 -118 -51 -118 -118v-19c0 -11 2 -15 10 -15h218
c7 0 10 3 10 10zM346 150v138c0 71 -53 118 -121 118c-69 0 -116 -45 -116 -118v-138c0 -71 47 -120 116 -120c68 0 121 52 121 120z" />
    <glyph glyph-name="germandbls" unicode="&#xdf;" horiz-adv-x="489" 
d="M432 158c0 -56 -21 -101 -60 -132c-21 -16 -47 -28 -77 -35c-7 -2 -11 3 -11 10v23c0 4 3 9 8 10c55 15 89 61 89 116v31c0 55 -34 99 -89 114c-5 1 -8 6 -8 10v29c0 4 3 9 8 10c55 16 89 60 89 117v20c0 68 -53 118 -120 118c-71 0 -119 -50 -119 -118v-471
c0 -7 -3 -10 -10 -10h-31c-7 0 -10 3 -10 10v328c0 7 -3 10 -10 10h-28c-7 0 -10 3 -10 10v20c0 7 3 10 10 10h28c7 0 10 3 10 10v73c0 102 67 169 170 169c105 0 171 -66 171 -169v-22c0 -49 -39 -99 -86 -118c-12 -5 -13 -16 0 -20c54 -18 86 -69 86 -127v-26z" />
    <glyph glyph-name="onesuperior" unicode="&#xb9;" horiz-adv-x="303" 
d="M265 257c0 -4 -2 -6 -6 -6h-193c-5 0 -7 2 -7 6v25c0 4 2 6 7 6h68c5 0 7 2 7 7v178c0 7 -6 10 -11 5l-43 -43c-4 -3 -6 -3 -9 0l-17 18c-2 3 -3 6 0 9l100 100s3 2 4 2h13c4 0 6 -2 6 -7v-262c0 -5 2 -7 7 -7h68c4 0 6 -2 6 -6v-25z" />
    <glyph glyph-name="logicalnot" unicode="&#xac;" 
d="M469 130c0 -7 -3 -10 -10 -10h-19c-7 0 -10 3 -10 10v172c0 7 -3 10 -10 10h-363c-7 0 -10 3 -10 10v16c0 7 3 10 10 10h402c7 0 10 -3 10 -10v-208z" />
    <glyph glyph-name="mu" unicode="&#xb5;" horiz-adv-x="487" 
d="M412 10c0 -7 -3 -10 -10 -10h-21c-7 0 -10 3 -10 10v41c0 13 -12 14 -19 5c-29 -36 -65 -56 -113 -56c-42 0 -78 11 -106 31c-7 5 -12 2 -12 -5v-176c0 -7 -3 -10 -10 -10h-31c-7 0 -10 3 -10 10v576c0 7 3 10 10 10h31c7 0 10 -3 10 -10v-266c0 -70 53 -120 118 -120
c68 0 122 52 122 120v266c0 7 3 10 10 10h31c7 0 10 -3 10 -10v-416z" />
    <glyph glyph-name="trademark" unicode="&#x2122;" horiz-adv-x="393" 
d="M352 370c0 -6 -2 -7 -8 -7h-12c-6 0 -7 1 -7 7v72c0 16 -16 18 -24 6l-25 -41c-1 -2 -5 -3 -7 -3h-4c-2 0 -4 0 -6 3l-27 41c-8 12 -22 10 -22 -6v-72c0 -6 -2 -7 -8 -7h-12c-6 0 -7 1 -7 7v168c0 6 1 8 7 8h12c2 0 6 -2 7 -4l47 -81c6 -11 16 -11 22 0l47 81
c1 2 5 4 7 4h12c6 0 8 -2 8 -8v-168zM140 527c0 -6 -2 -7 -8 -7h-27c-8 0 -12 -5 -12 -13v-137c0 -6 -2 -7 -8 -7h-12c-6 0 -7 1 -7 7v137c0 8 -5 13 -13 13h-27c-6 0 -7 1 -7 7v11c0 6 1 8 7 8h106c6 0 8 -2 8 -8v-11z" />
    <glyph glyph-name="Eth" unicode="&#xd0;" horiz-adv-x="526" 
d="M454 171c0 -104 -68 -171 -171 -171h-190c-7 0 -10 3 -10 10v270c0 6 -2 9 -8 9h-42c-7 0 -10 3 -10 10v30c0 7 3 10 10 10h42c5 0 8 4 8 9v270c0 7 3 10 10 10h190c103 0 171 -64 171 -167v-290zM403 160v311c0 65 -52 118 -120 118h-139c-7 0 -10 -3 -10 -10v-232
c0 -6 4 -8 9 -8h89c7 0 10 -3 10 -10v-30c0 -7 -3 -10 -10 -10h-90c-5 0 -8 -3 -8 -8v-231c0 -7 3 -10 10 -10h139c68 0 120 52 120 120z" />
    <glyph glyph-name="onehalf" unicode="&#xbd;" horiz-adv-x="808" 
d="M717 214c0 -67 -57 -78 -105 -98c-46 -19 -81 -30 -81 -67v-7c0 -4 2 -5 7 -5h170c4 0 6 -1 6 -5v-27c0 -4 -2 -5 -6 -5h-215c-4 0 -6 1 -6 5v37c0 65 51 87 99 106c54 21 87 27 87 66c0 33 -21 61 -67 61h-27c-23 0 -47 -14 -62 -36c-1 -2 -4 -4 -7 -2l-28 13
c-5 3 -5 7 -4 9c9 15 19 26 31 35c18 13 41 19 70 19h27c71 0 111 -40 111 -99zM555 614l-260 -608c-2 -4 -5 -6 -9 -6h-24c-9 0 -13 5 -9 14l260 608c2 4 5 6 9 6h24c9 0 13 -5 9 -14zM265 257c0 -4 -2 -6 -6 -6h-193c-5 0 -7 2 -7 6v25c0 4 2 6 7 6h68c5 0 7 2 7 7v178
c0 7 -6 10 -11 5l-43 -43c-4 -3 -6 -3 -9 0l-17 18c-2 3 -3 6 0 9l100 100s3 2 4 2h13c4 0 6 -2 6 -7v-262c0 -5 2 -7 7 -7h68c4 0 6 -2 6 -6v-25z" />
    <glyph glyph-name="plusminus" unicode="&#xb1;" 
d="M469 278c0 -7 -3 -10 -10 -10h-172c-7 0 -10 -3 -10 -10v-172c0 -7 -3 -10 -10 -10h-16c-7 0 -10 3 -10 10v172c0 7 -3 10 -10 10h-174c-7 0 -10 3 -10 10v18c0 7 3 10 10 10h174c7 0 10 3 10 10v172c0 7 3 10 10 10h16c7 0 10 -3 10 -10v-172c0 -7 3 -10 10 -10h172
c7 0 10 -3 10 -10v-18zM469 10c0 -7 -3 -10 -10 -10h-402c-7 0 -10 3 -10 10v18c0 7 3 10 10 10h402c7 0 10 -3 10 -10v-18z" />
    <glyph glyph-name="Thorn" unicode="&#xde;" horiz-adv-x="466" 
d="M454 341c0 -90 -68 -162 -171 -162h-139c-7 0 -10 -3 -10 -10v-159c0 -7 -3 -10 -10 -10h-31c-7 0 -10 3 -10 10v608c0 7 3 10 10 10h31c7 0 10 -3 10 -10v-101c0 -7 3 -9 10 -9h139c103 0 171 -65 171 -167zM403 341v10c0 65 -52 118 -120 118h-139c-7 0 -10 -3 -10 -10
v-230c0 -7 3 -10 10 -10h139c68 0 120 54 120 122z" />
    <glyph glyph-name="onequarter" unicode="&#xbc;" horiz-adv-x="808" 
d="M555 614l-260 -608c-2 -4 -5 -6 -9 -6h-24c-9 0 -13 5 -9 14l260 608c2 4 5 6 9 6h24c9 0 13 -5 9 -14zM725 6c0 -4 -2 -6 -7 -6h-48c-5 0 -6 -2 -6 -6v-91c0 -4 -2 -6 -7 -6h-31c-4 0 -6 2 -6 6v91c0 4 -2 6 -7 6h-169c-5 0 -7 2 -7 6v38l176 259c1 1 3 2 5 2h39
c5 0 7 -1 7 -6v-255c0 -5 1 -7 6 -7h48c5 0 7 -2 7 -6v-25zM265 257c0 -4 -2 -6 -6 -6h-193c-5 0 -7 2 -7 6v25c0 4 2 6 7 6h68c5 0 7 2 7 7v178c0 7 -6 10 -11 5l-43 -43c-4 -3 -6 -3 -9 0l-17 18c-2 3 -3 6 0 9l100 100s3 2 4 2h13c4 0 6 -2 6 -7v-262c0 -5 2 -7 7 -7h68
c4 0 6 -2 6 -6v-25zM620 44v159v27c0 8 -7 11 -12 4l-19 -28l-108 -158c-4 -6 -1 -11 5 -11h127c5 0 7 2 7 7z" />
    <glyph glyph-name="divide" unicode="&#xf7;" 
d="M303 400c0 -25 -20 -45 -45 -45s-45 20 -45 45s20 45 45 45s45 -20 45 -45zM469 225c0 -7 -3 -10 -10 -10h-402c-7 0 -10 3 -10 10v18c0 7 3 10 10 10h402c7 0 10 -3 10 -10v-18zM303 68c0 -25 -20 -45 -45 -45s-45 20 -45 45s20 45 45 45s45 -20 45 -45z" />
    <glyph glyph-name="brokenbar" unicode="&#xa6;" horiz-adv-x="232" 
d="M134 363h-36v372h36v-372zM134 -192h-36v372h36v-372z" />
    <glyph glyph-name="degree" unicode="&#xb0;" horiz-adv-x="258" 
d="M219 445c0 -50 -35 -85 -90 -85s-90 35 -90 85v100c0 50 35 85 90 85s90 -35 90 -85v-100zM172 445v100c0 29 -17 44 -43 44c-27 0 -44 -17 -44 -44v-100c0 -27 16 -44 44 -44c30 0 43 19 43 44z" />
    <glyph glyph-name="thorn" unicode="&#xfe;" horiz-adv-x="470" 
d="M413 158c0 -93 -71 -158 -161 -158c-42 0 -77 11 -110 44c-7 7 -18 8 -18 -5v-254c0 -7 -3 -10 -10 -10h-31c-7 0 -10 3 -10 10v833c0 7 3 10 10 10h26c7 0 10 -3 10 -10v-231c0 -8 7 -11 13 -4c27 34 61 53 110 53c103 0 171 -67 171 -160v-118zM362 158v118
c0 70 -50 120 -120 120c-65 0 -118 -55 -118 -120v-118c0 -66 51 -118 118 -118s120 53 120 118z" />
    <glyph glyph-name="threequarters" unicode="&#xbe;" horiz-adv-x="808" 
d="M555 614l-260 -608c-2 -4 -5 -6 -9 -6h-24c-9 0 -13 5 -9 14l260 608c2 4 5 6 9 6h24c9 0 13 -5 9 -14zM725 6c0 -4 -2 -6 -7 -6h-48c-5 0 -6 -2 -6 -6v-91c0 -4 -2 -6 -7 -6h-31c-4 0 -6 2 -6 6v91c0 4 -2 6 -7 6h-169c-5 0 -7 2 -7 6v38l176 259c1 1 3 2 5 2h39
c5 0 7 -1 7 -6v-255c0 -5 1 -7 6 -7h48c5 0 7 -2 7 -6v-25zM297 324c0 -69 -44 -112 -113 -112h-20c-33 0 -56 8 -73 21c-12 9 -20 20 -27 32c-2 4 -1 8 3 10l28 13c3 2 6 1 7 -2c16 -24 39 -37 62 -37h20c37 0 69 32 69 70v23c0 38 -32 69 -69 69h-46c-4 0 -6 2 -6 7v24
c0 4 2 6 6 6h46c39 0 69 31 69 70v10c0 39 -32 69 -69 69h-20c-23 0 -46 -12 -62 -36c-1 -3 -5 -4 -8 -2l-27 14c-4 2 -5 5 -3 9c7 12 15 23 27 32c17 13 40 21 73 21h20c69 0 113 -45 113 -113v-11c0 -41 -33 -72 -61 -80v-2c22 -8 61 -40 61 -85v-20zM620 44v159v27
c0 8 -7 11 -12 4l-19 -28l-108 -158c-4 -6 -1 -11 5 -11h127c5 0 7 2 7 7z" />
    <glyph glyph-name="twosuperior" unicode="&#xb2;" horiz-adv-x="303" 
d="M264 465c0 -67 -57 -78 -105 -98c-46 -19 -81 -30 -81 -67v-7c0 -4 2 -5 7 -5h170c4 0 6 -1 6 -5v-27c0 -4 -2 -5 -6 -5h-215c-4 0 -6 1 -6 5v37c0 65 51 87 99 106c54 21 87 27 87 66c0 33 -21 61 -67 61h-27c-23 0 -47 -14 -62 -36c-1 -2 -4 -4 -7 -2l-28 13
c-5 3 -5 7 -4 9c9 14 19 26 30 34c19 14 41 20 71 20h27c71 0 111 -40 111 -99z" />
    <glyph glyph-name="registered" unicode="&#xae;" horiz-adv-x="425" 
d="M386 440c0 -99 -69 -167 -178 -167h-4c-109 0 -177 68 -177 167v20c0 99 68 168 177 168h4c109 0 178 -69 178 -168v-20zM361 440v20c0 85 -61 143 -153 143h-4c-92 0 -152 -58 -152 -143v-20c0 -85 60 -142 152 -142h4c92 0 153 57 153 142zM278 481
c0 -15 -13 -33 -26 -43c-5 -4 -6 -9 -3 -15l25 -50c3 -6 0 -10 -7 -10h-16c-3 0 -6 1 -7 4l-23 53c-2 5 -6 8 -11 8h-25c-8 0 -12 -5 -12 -13v-45c0 -5 -2 -7 -8 -7h-11c-6 0 -7 1 -7 7v168c0 6 2 8 7 8h63c37 0 61 -24 61 -61v-4zM251 485v3c0 19 -15 35 -34 35h-32
c-8 0 -12 -5 -12 -13v-47c0 -8 4 -12 12 -12h32c19 0 34 15 34 34z" />
    <glyph glyph-name="minus" unicode="&#x2212;" 
d="M469 225c0 -7 -3 -10 -10 -10h-402c-7 0 -10 3 -10 10v18c0 7 3 10 10 10h402c7 0 10 -3 10 -10v-18z" />
    <glyph glyph-name="eth" unicode="&#xf0;" horiz-adv-x="454" 
d="M397 150c0 -90 -69 -160 -172 -160s-167 70 -167 160v138c0 95 66 158 167 158c7 0 14 0 20 -1l-66 66l-90 -42c-6 -3 -14 0 -14 5v14c0 7 1 14 6 16l72 33l-78 78c-7 7 1 13 10 13h35c5 0 6 -3 10 -7l65 -64l98 46c5 2 14 0 14 -6v-17c0 -5 -3 -11 -8 -13l-77 -36
l145 -146c19 -25 30 -59 30 -97v-138zM346 150v138c0 71 -53 118 -121 118c-69 0 -116 -45 -116 -118v-138c0 -71 47 -120 116 -120c68 0 121 52 121 120z" />
    <glyph glyph-name="multiply" unicode="&#xd7;" 
d="M428 77l-12 -11c-5 -5 -9 -5 -14 0l-136 135c-4 5 -9 5 -14 0l-137 -137c-5 -5 -9 -5 -14 0l-13 13c-5 5 -5 9 0 14l137 137c5 5 5 10 0 14l-135 136c-5 5 -5 9 0 14l11 12c5 5 9 5 14 0l136 -136c5 -5 9 -5 14 0l136 136c5 5 9 5 14 0l13 -13c5 -5 5 -9 0 -14l-136 -136
c-5 -5 -5 -9 0 -14l136 -136c5 -5 5 -9 0 -14z" />
    <glyph glyph-name="threesuperior" unicode="&#xb3;" horiz-adv-x="303" 
d="M259 324c0 -69 -44 -112 -113 -112h-20c-36 0 -60 9 -77 24c-10 8 -17 18 -23 29c-2 4 -1 8 3 10l28 13c3 2 6 1 7 -2c16 -24 39 -37 62 -37h20c37 0 69 32 69 70v23c0 38 -32 69 -69 69h-46c-4 0 -6 2 -6 7v24c0 4 2 6 6 6h46c39 0 69 31 69 70v10c0 39 -32 69 -69 69
h-20c-23 0 -46 -12 -62 -36c-1 -3 -5 -4 -8 -2l-27 14c-4 2 -5 5 -3 9c5 10 12 19 20 26c17 16 42 27 80 27h20c69 0 113 -45 113 -113v-11c0 -41 -33 -72 -61 -80v-2c22 -8 61 -40 61 -85v-20z" />
    <glyph glyph-name="copyright" unicode="&#xa9;" horiz-adv-x="705" 
d="M614 90c0 -99 -69 -167 -178 -167h-180c-109 0 -177 68 -177 167v290c0 101 68 168 177 168h180c112 0 178 -69 178 -168v-290zM574 90v290c0 76 -55 128 -138 128h-180c-85 0 -137 -53 -137 -128v-290c0 -76 54 -127 137 -127h180c83 0 138 51 138 127zM455 132
c-9 -14 -19 -25 -32 -35c-19 -14 -43 -22 -78 -22c-76 0 -124 47 -124 117v99c0 69 48 116 124 116c34 0 59 -9 78 -23c12 -10 22 -21 30 -33c3 -5 3 -8 -2 -10l-29 -15c-4 -2 -8 -1 -10 3c-16 26 -39 38 -67 38c-46 0 -76 -30 -76 -76v-99c0 -48 33 -76 76 -76
c30 0 50 11 67 39c2 4 6 5 10 3l30 -16c5 -3 6 -6 3 -10z" />
    <glyph glyph-name="Aacute" unicode="&#xc1;" horiz-adv-x="450" 
d="M332 766l-96 -75c-3 -3 -6 -4 -11 -4h-17c-5 0 -7 4 -4 9l53 77c2 3 5 4 11 4h60c7 0 9 -7 4 -11zM433 13c2 -8 -1 -13 -10 -13h-33c-5 0 -9 2 -10 7l-41 143c-1 5 -5 6 -10 6h-208c-5 0 -9 -1 -10 -6l-41 -143c-1 -5 -5 -7 -10 -7h-32c-9 0 -12 5 -10 13l184 608
c1 5 5 7 10 7h26c5 0 9 -2 10 -7zM321 208l-84 309c-7 26 -11 55 -11 55h-3s-3 -29 -10 -54l-87 -310c-2 -7 1 -13 10 -13h175c9 0 12 6 10 13z" />
    <glyph glyph-name="Acircumflex" unicode="&#xc2;" horiz-adv-x="450" 
d="M315 693c3 -4 1 -8 -4 -8h-34c-5 0 -8 2 -11 7l-35 55c-3 5 -7 4 -10 0l-35 -55c-3 -5 -5 -7 -11 -7h-34c-5 0 -7 4 -4 8l66 88c2 3 4 4 7 4h32c3 0 5 -1 7 -4zM433 13c2 -8 -1 -13 -10 -13h-33c-5 0 -9 2 -10 7l-41 143c-1 5 -5 6 -10 6h-208c-5 0 -9 -1 -10 -6
l-41 -143c-1 -5 -5 -7 -10 -7h-32c-9 0 -12 5 -10 13l184 608c1 5 5 7 10 7h26c5 0 9 -2 10 -7zM321 208l-84 309c-7 26 -11 55 -11 55h-3s-3 -29 -10 -54l-87 -310c-2 -7 1 -13 10 -13h175c9 0 12 6 10 13z" />
    <glyph glyph-name="Adieresis" unicode="&#xc4;" horiz-adv-x="450" 
d="M336 734c0 -20 -16 -37 -35 -37s-34 17 -34 37s15 37 34 37s35 -17 35 -37zM185 734c0 -20 -16 -37 -35 -37s-34 17 -34 37s15 37 34 37s35 -17 35 -37zM433 13c2 -8 -1 -13 -10 -13h-33c-5 0 -9 2 -10 7l-41 143c-1 5 -5 6 -10 6h-208c-5 0 -9 -1 -10 -6l-41 -143
c-1 -5 -5 -7 -10 -7h-32c-9 0 -12 5 -10 13l184 608c1 5 5 7 10 7h26c5 0 9 -2 10 -7zM321 208l-84 309c-7 26 -11 55 -11 55h-3s-3 -29 -10 -54l-87 -310c-2 -7 1 -13 10 -13h175c9 0 12 6 10 13z" />
    <glyph glyph-name="Agrave" unicode="&#xc0;" horiz-adv-x="450" 
d="M248 696c3 -5 1 -9 -4 -9h-17c-5 0 -8 1 -11 4l-96 75c-5 4 -3 11 4 11h60c6 0 9 -1 11 -4zM433 13c2 -8 -1 -13 -10 -13h-33c-5 0 -9 2 -10 7l-41 143c-1 5 -5 6 -10 6h-208c-5 0 -9 -1 -10 -6l-41 -143c-1 -5 -5 -7 -10 -7h-32c-9 0 -12 5 -10 13l184 608c1 5 5 7 10 7
h26c5 0 9 -2 10 -7zM321 208l-84 309c-7 26 -11 55 -11 55h-3s-3 -29 -10 -54l-87 -310c-2 -7 1 -13 10 -13h175c9 0 12 6 10 13z" />
    <glyph glyph-name="Aring" unicode="&#xc5;" horiz-adv-x="450" 
d="M433 13c2 -8 -1 -13 -10 -13h-33c-5 0 -9 2 -10 7l-41 143c-1 5 -5 6 -10 6h-208c-5 0 -9 -1 -10 -6l-41 -143c-1 -5 -5 -7 -10 -7h-32c-9 0 -12 5 -10 13l175 578c2 6 0 10 -5 12c-25 11 -40 34 -40 64v32c0 43 31 71 77 71c44 0 80 -28 80 -71v-32
c0 -30 -18 -53 -43 -64c-5 -2 -7 -5 -5 -11zM274 667v32c0 26 -19 43 -49 43s-46 -17 -46 -43v-32c0 -27 16 -43 46 -43s49 17 49 43zM321 208l-84 309c-7 26 -11 55 -11 55h-3s-3 -29 -10 -54l-87 -310c-2 -7 1 -13 10 -13h175c9 0 12 6 10 13z" />
    <glyph glyph-name="Atilde" unicode="&#xc3;" horiz-adv-x="450" 
d="M342 746c-24 -37 -43 -53 -67 -53c-44 0 -64 39 -101 39c-12 0 -28 -8 -46 -26c-4 -4 -6 -3 -9 0l-11 12c-3 3 -2 6 1 11c22 31 38 46 62 46c43 0 65 -38 101 -38c13 0 27 7 48 29c4 4 7 4 10 1l11 -11c2 -2 4 -6 1 -10zM433 13c2 -8 -1 -13 -10 -13h-33c-5 0 -9 2 -10 7
l-41 143c-1 5 -5 6 -10 6h-208c-5 0 -9 -1 -10 -6l-41 -143c-1 -5 -5 -7 -10 -7h-32c-9 0 -12 5 -10 13l184 608c1 5 5 7 10 7h26c5 0 9 -2 10 -7zM321 208l-84 309c-7 26 -11 55 -11 55h-3s-3 -29 -10 -54l-87 -310c-2 -7 1 -13 10 -13h175c9 0 12 6 10 13z" />
    <glyph glyph-name="Ccedilla" unicode="&#xc7;" horiz-adv-x="462" 
d="M419 61c-11 -16 -24 -30 -40 -41c-25 -18 -57 -29 -99 -30c-6 0 -10 -2 -13 -8l-28 -57c-2 -4 -2 -9 2 -11c34 -18 52 -39 52 -68v-9c0 -53 -43 -86 -95 -86h-32c-7 0 -13 4 -13 13v8c0 9 4 13 13 13h32c30 0 51 23 51 52v9c0 19 -19 33 -48 46c-11 5 -12 15 -8 23l31 66
c3 6 1 9 -5 10c-90 9 -146 71 -146 159v331c0 95 65 159 168 159h32c43 0 78 -10 105 -29c16 -11 30 -25 41 -41c4 -6 1 -11 -5 -14l-26 -13c-4 -2 -9 -2 -11 1c-28 34 -64 55 -104 55h-32c-68 0 -117 -50 -117 -118v-331c0 -65 49 -120 117 -120h32c40 0 77 19 103 56
c3 4 7 4 11 2l26 -12c6 -3 10 -9 6 -15z" />
    <glyph glyph-name="Eacute" unicode="&#xc9;" horiz-adv-x="462" 
d="M358 766l-96 -75c-3 -3 -6 -4 -11 -4h-17c-5 0 -7 4 -4 9l53 77c2 3 5 4 11 4h60c7 0 9 -7 4 -11zM422 10c0 -7 -3 -10 -10 -10h-319c-7 0 -10 3 -10 10v608c0 7 3 10 10 10h319c7 0 10 -3 10 -10v-19c0 -7 -3 -10 -10 -10h-268c-7 0 -10 -3 -10 -10v-230
c0 -7 3 -10 10 -10h220c7 0 10 -3 10 -10v-20c0 -7 -3 -10 -10 -10h-220c-7 0 -10 -3 -10 -10v-239c0 -7 3 -10 10 -10h268c7 0 10 -3 10 -10v-20z" />
    <glyph glyph-name="Ecircumflex" unicode="&#xca;" horiz-adv-x="462" 
d="M341 693c3 -4 1 -8 -4 -8h-34c-5 0 -8 2 -11 7l-35 55c-3 5 -7 4 -10 0l-35 -55c-3 -5 -5 -7 -11 -7h-34c-5 0 -7 4 -4 8l66 88c2 3 4 4 7 4h32c3 0 5 -1 7 -4zM422 10c0 -7 -3 -10 -10 -10h-319c-7 0 -10 3 -10 10v608c0 7 3 10 10 10h319c7 0 10 -3 10 -10v-19
c0 -7 -3 -10 -10 -10h-268c-7 0 -10 -3 -10 -10v-230c0 -7 3 -10 10 -10h220c7 0 10 -3 10 -10v-20c0 -7 -3 -10 -10 -10h-220c-7 0 -10 -3 -10 -10v-239c0 -7 3 -10 10 -10h268c7 0 10 -3 10 -10v-20z" />
    <glyph glyph-name="Edieresis" unicode="&#xcb;" horiz-adv-x="462" 
d="M362 734c0 -20 -16 -37 -35 -37s-34 17 -34 37s15 37 34 37s35 -17 35 -37zM211 734c0 -20 -16 -37 -35 -37s-34 17 -34 37s15 37 34 37s35 -17 35 -37zM422 10c0 -7 -3 -10 -10 -10h-319c-7 0 -10 3 -10 10v608c0 7 3 10 10 10h319c7 0 10 -3 10 -10v-19
c0 -7 -3 -10 -10 -10h-268c-7 0 -10 -3 -10 -10v-230c0 -7 3 -10 10 -10h220c7 0 10 -3 10 -10v-20c0 -7 -3 -10 -10 -10h-220c-7 0 -10 -3 -10 -10v-239c0 -7 3 -10 10 -10h268c7 0 10 -3 10 -10v-20z" />
    <glyph glyph-name="Egrave" unicode="&#xc8;" horiz-adv-x="462" 
d="M274 696c3 -5 1 -9 -4 -9h-17c-5 0 -8 1 -11 4l-96 75c-5 4 -3 11 4 11h60c6 0 9 -1 11 -4zM422 10c0 -7 -3 -10 -10 -10h-319c-7 0 -10 3 -10 10v608c0 7 3 10 10 10h319c7 0 10 -3 10 -10v-19c0 -7 -3 -10 -10 -10h-268c-7 0 -10 -3 -10 -10v-230c0 -7 3 -10 10 -10
h220c7 0 10 -3 10 -10v-20c0 -7 -3 -10 -10 -10h-220c-7 0 -10 -3 -10 -10v-239c0 -7 3 -10 10 -10h268c7 0 10 -3 10 -10v-20z" />
    <glyph glyph-name="Iacute" unicode="&#xcd;" horiz-adv-x="216" 
d="M215 766l-96 -75c-3 -3 -6 -4 -11 -4h-17c-5 0 -7 4 -4 9l53 77c2 3 5 4 11 4h60c7 0 9 -7 4 -11zM134 10c0 -7 -3 -10 -10 -10h-31c-7 0 -10 3 -10 10v608c0 7 3 10 10 10h31c7 0 10 -3 10 -10v-608z" />
    <glyph glyph-name="Icircumflex" unicode="&#xce;" horiz-adv-x="216" 
d="M198 693c3 -4 1 -8 -4 -8h-34c-5 0 -8 2 -11 7l-35 55c-3 5 -7 4 -10 0l-35 -55c-3 -5 -5 -7 -11 -7h-34c-5 0 -7 4 -4 8l66 88c2 3 4 4 7 4h32c3 0 5 -1 7 -4zM134 10c0 -7 -3 -10 -10 -10h-31c-7 0 -10 3 -10 10v608c0 7 3 10 10 10h31c7 0 10 -3 10 -10v-608z" />
    <glyph glyph-name="Idieresis" unicode="&#xcf;" horiz-adv-x="216" 
d="M219 734c0 -20 -16 -37 -35 -37s-34 17 -34 37s15 37 34 37s35 -17 35 -37zM68 734c0 -20 -16 -37 -35 -37s-34 17 -34 37s15 37 34 37s35 -17 35 -37zM134 10c0 -7 -3 -10 -10 -10h-31c-7 0 -10 3 -10 10v608c0 7 3 10 10 10h31c7 0 10 -3 10 -10v-608z" />
    <glyph glyph-name="Igrave" unicode="&#xcc;" horiz-adv-x="216" 
d="M131 696c3 -5 1 -9 -4 -9h-17c-5 0 -8 1 -11 4l-96 75c-5 4 -3 11 4 11h60c6 0 9 -1 11 -4zM134 10c0 -7 -3 -10 -10 -10h-31c-7 0 -10 3 -10 10v608c0 7 3 10 10 10h31c7 0 10 -3 10 -10v-608z" />
    <glyph glyph-name="Ntilde" unicode="&#xd1;" horiz-adv-x="551" 
d="M394 746c-24 -37 -43 -53 -67 -53c-44 0 -64 39 -101 39c-12 0 -28 -8 -46 -26c-4 -4 -6 -3 -9 0l-11 12c-3 3 -2 6 1 11c22 31 38 46 62 46c43 0 65 -38 101 -38c13 0 27 7 48 29c4 4 7 4 10 1l11 -11c2 -2 4 -6 1 -10zM469 10c0 -7 -3 -10 -10 -10h-32c-4 0 -7 2 -9 5
l-266 481c-14 26 -21 52 -21 52h-3s6 -45 6 -124v-404c0 -7 -3 -10 -10 -10h-31c-7 0 -10 3 -10 10v608c0 7 3 10 10 10h30c4 0 7 -2 9 -5l268 -486c12 -22 22 -54 22 -54h3s-7 59 -7 138v397c0 7 3 10 10 10h31c7 0 10 -3 10 -10v-608z" />
    <glyph glyph-name="Oacute" unicode="&#xd3;" 
d="M363 766l-96 -75c-3 -3 -6 -4 -11 -4h-17c-5 0 -7 4 -4 9l53 77c2 3 5 4 11 4h60c7 0 9 -7 4 -11zM443 150c0 -95 -67 -160 -170 -160h-32c-103 0 -168 65 -168 160v331c0 95 65 159 168 159h32c103 0 170 -64 170 -159v-331zM392 150v331c0 68 -54 118 -119 118h-32
c-68 0 -117 -50 -117 -118v-331c0 -65 49 -120 117 -120h32c65 0 119 55 119 120z" />
    <glyph glyph-name="Ocircumflex" unicode="&#xd4;" 
d="M346 693c3 -4 1 -8 -4 -8h-34c-5 0 -8 2 -11 7l-35 55c-3 5 -7 4 -10 0l-35 -55c-3 -5 -5 -7 -11 -7h-34c-5 0 -7 4 -4 8l66 88c2 3 4 4 7 4h32c3 0 5 -1 7 -4zM443 150c0 -95 -67 -160 -170 -160h-32c-103 0 -168 65 -168 160v331c0 95 65 159 168 159h32
c103 0 170 -64 170 -159v-331zM392 150v331c0 68 -54 118 -119 118h-32c-68 0 -117 -50 -117 -118v-331c0 -65 49 -120 117 -120h32c65 0 119 55 119 120z" />
    <glyph glyph-name="Odieresis" unicode="&#xd6;" 
d="M367 734c0 -20 -16 -37 -35 -37s-34 17 -34 37s15 37 34 37s35 -17 35 -37zM216 734c0 -20 -16 -37 -35 -37s-34 17 -34 37s15 37 34 37s35 -17 35 -37zM443 150c0 -95 -67 -160 -170 -160h-32c-103 0 -168 65 -168 160v331c0 95 65 159 168 159h32
c103 0 170 -64 170 -159v-331zM392 150v331c0 68 -54 118 -119 118h-32c-68 0 -117 -50 -117 -118v-331c0 -65 49 -120 117 -120h32c65 0 119 55 119 120z" />
    <glyph glyph-name="Ograve" unicode="&#xd2;" 
d="M279 696c3 -5 1 -9 -4 -9h-17c-5 0 -8 1 -11 4l-96 75c-5 4 -3 11 4 11h60c6 0 9 -1 11 -4zM443 150c0 -95 -67 -160 -170 -160h-32c-103 0 -168 65 -168 160v331c0 95 65 159 168 159h32c103 0 170 -64 170 -159v-331zM392 150v331c0 68 -54 118 -119 118h-32
c-68 0 -117 -50 -117 -118v-331c0 -65 49 -120 117 -120h32c65 0 119 55 119 120z" />
    <glyph glyph-name="Otilde" unicode="&#xd5;" 
d="M373 746c-24 -37 -43 -53 -67 -53c-44 0 -64 39 -101 39c-12 0 -28 -8 -46 -26c-4 -4 -6 -3 -9 0l-11 12c-3 3 -2 6 1 11c22 31 38 46 62 46c43 0 65 -38 101 -38c13 0 27 7 48 29c4 4 7 4 10 1l11 -11c2 -2 4 -6 1 -10zM443 150c0 -95 -67 -160 -170 -160h-32
c-103 0 -168 65 -168 160v331c0 95 65 159 168 159h32c103 0 170 -64 170 -159v-331zM392 150v331c0 68 -54 118 -119 118h-32c-68 0 -117 -50 -117 -118v-331c0 -65 49 -120 117 -120h32c65 0 119 55 119 120z" />
    <glyph glyph-name="Scaron" unicode="&#x160;" horiz-adv-x="450" 
d="M314 777l-66 -88c-2 -3 -4 -4 -7 -4h-32c-3 0 -5 1 -7 4l-66 88c-3 4 -1 8 4 8h34c5 0 8 -2 11 -7l35 -55c3 -5 7 -4 10 0l35 55c3 5 5 7 11 7h34c5 0 7 -4 4 -8zM404 150c0 -95 -68 -160 -173 -160h-43c-42 0 -74 10 -99 26c-19 12 -34 27 -46 43c-4 5 -2 12 4 15l26 14
c5 2 9 1 12 -3c28 -36 64 -55 103 -55h43c71 0 120 52 120 120c0 87 -77 118 -143 149c-86 40 -161 76 -161 182c0 95 68 159 168 159h16c42 0 76 -11 103 -28c17 -11 32 -26 43 -42c4 -6 1 -11 -5 -14l-25 -13c-4 -2 -9 -3 -12 1c-26 35 -65 55 -104 55h-16
c-69 0 -116 -46 -116 -118c0 -76 71 -105 128 -132c94 -44 177 -78 177 -199z" />
    <glyph glyph-name="Uacute" unicode="&#xda;" horiz-adv-x="525" 
d="M369 766l-96 -75c-3 -3 -6 -4 -11 -4h-17c-5 0 -7 4 -4 9l53 77c2 3 5 4 11 4h60c7 0 9 -7 4 -11zM448 150c0 -91 -70 -160 -170 -160h-32c-103 0 -168 69 -168 160v468c0 7 3 10 10 10h31c7 0 10 -3 10 -10v-468c0 -69 44 -120 117 -120h32c71 0 119 52 119 120v468
c0 7 3 10 10 10h31c7 0 10 -3 10 -10v-468z" />
    <glyph glyph-name="Ucircumflex" unicode="&#xdb;" horiz-adv-x="525" 
d="M352 693c3 -4 1 -8 -4 -8h-34c-5 0 -8 2 -11 7l-35 55c-3 5 -7 4 -10 0l-35 -55c-3 -5 -5 -7 -11 -7h-34c-5 0 -7 4 -4 8l66 88c2 3 4 4 7 4h32c3 0 5 -1 7 -4zM448 150c0 -91 -70 -160 -170 -160h-32c-103 0 -168 69 -168 160v468c0 7 3 10 10 10h31c7 0 10 -3 10 -10
v-468c0 -69 44 -120 117 -120h32c71 0 119 52 119 120v468c0 7 3 10 10 10h31c7 0 10 -3 10 -10v-468z" />
    <glyph glyph-name="Udieresis" unicode="&#xdc;" horiz-adv-x="525" 
d="M373 734c0 -20 -16 -37 -35 -37s-34 17 -34 37s15 37 34 37s35 -17 35 -37zM222 734c0 -20 -16 -37 -35 -37s-34 17 -34 37s15 37 34 37s35 -17 35 -37zM448 150c0 -91 -70 -160 -170 -160h-32c-103 0 -168 69 -168 160v468c0 7 3 10 10 10h31c7 0 10 -3 10 -10v-468
c0 -69 44 -120 117 -120h32c71 0 119 52 119 120v468c0 7 3 10 10 10h31c7 0 10 -3 10 -10v-468z" />
    <glyph glyph-name="Ugrave" unicode="&#xd9;" horiz-adv-x="525" 
d="M285 696c3 -5 1 -9 -4 -9h-17c-5 0 -8 1 -11 4l-96 75c-5 4 -3 11 4 11h60c6 0 9 -1 11 -4zM448 150c0 -91 -70 -160 -170 -160h-32c-103 0 -168 69 -168 160v468c0 7 3 10 10 10h31c7 0 10 -3 10 -10v-468c0 -69 44 -120 117 -120h32c71 0 119 52 119 120v468
c0 7 3 10 10 10h31c7 0 10 -3 10 -10v-468z" />
    <glyph glyph-name="Yacute" unicode="&#xdd;" horiz-adv-x="414" 
d="M313 766l-96 -75c-3 -3 -6 -4 -11 -4h-17c-5 0 -7 4 -4 9l53 77c2 3 5 4 11 4h60c7 0 9 -7 4 -11zM404 613l-172 -320v-283c0 -7 -3 -10 -10 -10h-31c-7 0 -10 3 -10 10v283l-170 320c-5 9 -1 15 9 15h38c4 0 7 -3 9 -6l133 -270c5 -10 13 -10 18 0l129 270c2 3 5 6 9 6
h39c10 0 14 -6 9 -15z" />
    <glyph glyph-name="Ydieresis" unicode="&#x178;" horiz-adv-x="414" 
d="M317 734c0 -20 -16 -37 -35 -37s-34 17 -34 37s15 37 34 37s35 -17 35 -37zM166 734c0 -20 -16 -37 -35 -37s-34 17 -34 37s15 37 34 37s35 -17 35 -37zM404 613l-172 -320v-283c0 -7 -3 -10 -10 -10h-31c-7 0 -10 3 -10 10v283l-170 320c-5 9 -1 15 9 15h38
c4 0 7 -3 9 -6l133 -270c5 -10 13 -10 18 0l129 270c2 3 5 6 9 6h39c10 0 14 -6 9 -15z" />
    <glyph glyph-name="Zcaron" unicode="&#x17d;" horiz-adv-x="412" 
d="M294 777l-66 -88c-2 -3 -4 -4 -7 -4h-32c-3 0 -5 1 -7 4l-66 88c-3 4 -1 8 4 8h34c5 0 8 -2 11 -7l35 -55c3 -5 7 -4 10 0l35 55c3 5 5 7 11 7h34c5 0 7 -4 4 -8zM382 10c0 -7 -3 -10 -10 -10h-326c-9 0 -13 6 -9 14l250 561c4 8 0 14 -9 14h-227c-7 0 -10 3 -10 10v19
c0 7 3 10 10 10h301c9 0 13 -6 9 -14l-251 -560c-4 -8 0 -14 9 -14h253c7 0 10 -3 10 -10v-20z" />
    <glyph glyph-name="aacute" unicode="&#xe1;" horiz-adv-x="438" 
d="M335 594l-120 -98c-8 -6 -11 -8 -18 -8h-4c-7 0 -9 4 -5 10l78 109c2 3 5 4 9 4h53c11 0 16 -10 7 -17zM371 10c0 -7 -3 -10 -10 -10h-19c-7 0 -10 3 -10 10v46c0 13 -12 15 -19 6c-29 -38 -68 -62 -107 -62h-41c-67 0 -120 46 -120 111v13c0 67 53 113 120 113h145
c7 0 10 3 10 10v39c0 66 -49 116 -119 116c-39 0 -77 -20 -102 -54c-3 -4 -7 -6 -12 -4l-28 14c-6 3 -8 8 -4 14c8 12 18 24 31 34c27 22 64 37 115 37c103 0 170 -62 170 -157v-276zM320 138v49c0 7 -3 10 -10 10h-145c-39 0 -70 -31 -70 -70v-16c0 -39 28 -71 70 -71h41
c50 0 95 46 114 98z" />
    <glyph glyph-name="acircumflex" unicode="&#xe2;" horiz-adv-x="438" 
d="M305 500c4 -5 2 -12 -6 -12h-27c-4 0 -7 2 -10 5l-46 60c-5 7 -10 7 -15 0l-46 -60c-3 -3 -6 -5 -10 -5h-27c-8 0 -10 7 -6 12l75 94c2 2 5 4 8 4h27c3 0 6 -2 8 -4zM371 10c0 -7 -3 -10 -10 -10h-19c-7 0 -10 3 -10 10v46c0 13 -12 15 -19 6c-29 -38 -68 -62 -107 -62
h-41c-67 0 -120 46 -120 111v13c0 67 53 113 120 113h145c7 0 10 3 10 10v39c0 66 -49 116 -119 116c-39 0 -77 -20 -102 -54c-3 -4 -7 -6 -12 -4l-28 14c-6 3 -8 8 -4 14c8 12 18 24 31 34c27 22 64 37 115 37c103 0 170 -62 170 -157v-276zM320 138v49c0 7 -3 10 -10 10
h-145c-39 0 -70 -31 -70 -70v-16c0 -39 28 -71 70 -71h41c50 0 95 46 114 98z" />
    <glyph glyph-name="adieresis" unicode="&#xe4;" horiz-adv-x="438" 
d="M335 544c0 -22 -17 -40 -39 -40s-40 18 -40 40s18 39 40 39s39 -17 39 -39zM167 544c0 -22 -17 -40 -39 -40s-40 18 -40 40s18 39 40 39s39 -17 39 -39zM371 10c0 -7 -3 -10 -10 -10h-19c-7 0 -10 3 -10 10v46c0 13 -12 15 -19 6c-29 -38 -68 -62 -107 -62h-41
c-67 0 -120 46 -120 111v13c0 67 53 113 120 113h145c7 0 10 3 10 10v39c0 66 -49 116 -119 116c-39 0 -77 -20 -102 -54c-3 -4 -7 -6 -12 -4l-28 14c-6 3 -8 8 -4 14c8 12 18 24 31 34c27 22 64 37 115 37c103 0 170 -62 170 -157v-276zM320 138v49c0 7 -3 10 -10 10h-145
c-39 0 -70 -31 -70 -70v-16c0 -39 28 -71 70 -71h41c50 0 95 46 114 98z" />
    <glyph glyph-name="agrave" unicode="&#xe0;" horiz-adv-x="438" 
d="M233 498c4 -6 2 -10 -5 -10h-4c-6 0 -10 2 -18 8l-120 98c-9 7 -4 17 7 17h53c4 0 7 -1 9 -4zM371 10c0 -7 -3 -10 -10 -10h-19c-7 0 -10 3 -10 10v46c0 13 -12 15 -19 6c-29 -38 -68 -62 -107 -62h-41c-67 0 -120 46 -120 111v13c0 67 53 113 120 113h145
c7 0 10 3 10 10v39c0 66 -49 116 -119 116c-39 0 -77 -20 -102 -54c-3 -4 -7 -6 -12 -4l-28 14c-6 3 -8 8 -4 14c8 12 18 24 31 34c27 22 64 37 115 37c103 0 170 -62 170 -157v-276zM320 138v49c0 7 -3 10 -10 10h-145c-39 0 -70 -31 -70 -70v-16c0 -39 28 -71 70 -71h41
c50 0 95 46 114 98z" />
    <glyph glyph-name="aring" unicode="&#xe5;" horiz-adv-x="438" 
d="M295 559c0 -43 -36 -71 -80 -71c-46 0 -77 28 -77 71v32c0 43 31 71 77 71c44 0 80 -28 80 -71v-32zM371 10c0 -7 -3 -10 -10 -10h-19c-7 0 -10 3 -10 10v46c0 13 -12 15 -19 6c-29 -38 -68 -62 -107 -62h-41c-67 0 -120 46 -120 111v13c0 67 53 113 120 113h145
c7 0 10 3 10 10v39c0 66 -49 116 -119 116c-39 0 -77 -20 -102 -54c-3 -4 -7 -6 -12 -4l-28 14c-6 3 -8 8 -4 14c9 13 20 25 33 35c27 21 64 36 113 36c103 0 170 -62 170 -157v-276zM264 559v32c0 26 -19 43 -49 43s-46 -17 -46 -43v-32c0 -27 16 -43 46 -43s49 17 49 43z
M320 138v49c0 7 -3 10 -10 10h-145c-39 0 -70 -31 -70 -70v-16c0 -39 28 -71 70 -71h41c50 0 95 46 114 98z" />
    <glyph glyph-name="atilde" unicode="&#xe3;" horiz-adv-x="438" 
d="M356 549c-24 -36 -47 -54 -74 -54c-18 0 -37 12 -61 27l-20 12c-16 10 -33 16 -47 16c-15 0 -31 -4 -55 -24c-4 -3 -6 -3 -11 -1l-4 2c-5 2 -5 7 -2 12c23 38 45 54 72 54c21 0 35 -8 56 -23l23 -16c12 -8 33 -18 49 -18c15 0 35 7 58 26c4 3 3 4 9 2l5 -2
c6 -2 5 -8 2 -13zM371 10c0 -7 -3 -10 -10 -10h-19c-7 0 -10 3 -10 10v46c0 13 -12 15 -19 6c-29 -38 -68 -62 -107 -62h-41c-67 0 -120 46 -120 111v13c0 67 53 113 120 113h145c7 0 10 3 10 10v39c0 66 -49 116 -119 116c-39 0 -77 -20 -102 -54c-3 -4 -7 -6 -12 -4
l-28 14c-6 3 -8 8 -4 14c8 12 18 24 31 34c27 22 64 37 115 37c103 0 170 -62 170 -157v-276zM320 138v49c0 7 -3 10 -10 10h-145c-39 0 -70 -31 -70 -70v-16c0 -39 28 -71 70 -71h41c50 0 95 46 114 98z" />
    <glyph glyph-name="ccedilla" unicode="&#xe7;" horiz-adv-x="420" 
d="M373 61c-9 -14 -20 -27 -33 -37c-21 -17 -48 -29 -85 -33c-9 -1 -13 -4 -16 -10l-27 -56c-2 -4 -2 -9 2 -11c34 -18 52 -39 52 -68v-9c0 -53 -43 -86 -95 -86h-32c-7 0 -13 4 -13 13v8c0 9 4 13 13 13h32c30 0 51 23 51 52v9c0 19 -19 33 -48 46c-11 5 -12 15 -8 23
l31 66c3 5 2 11 -6 12c-82 14 -133 74 -133 157v138c0 75 66 158 169 158c49 0 83 -11 108 -29c15 -11 27 -24 38 -40c4 -6 1 -11 -5 -14l-25 -12c-4 -2 -9 -2 -12 1c-30 35 -64 54 -104 54c-66 0 -118 -51 -118 -118v-138c0 -69 47 -120 118 -120c41 0 76 20 104 56
c3 4 6 4 10 2l26 -12c6 -3 10 -9 6 -15z" />
    <glyph glyph-name="eacute" unicode="&#xe9;" horiz-adv-x="455" 
d="M353 594l-120 -98c-8 -6 -11 -8 -18 -8h-4c-7 0 -9 4 -5 10l78 109c2 3 5 4 9 4h53c11 0 16 -10 7 -17zM398 224c0 -7 -3 -10 -10 -10h-269c-7 0 -10 -3 -10 -10v-54c0 -69 47 -120 118 -120h15c43 0 77 20 104 56c3 4 6 4 10 2l26 -12c6 -3 10 -9 6 -15
c-11 -16 -24 -29 -40 -41c-27 -19 -62 -30 -106 -30h-15c-103 0 -169 65 -169 160v138c0 75 66 158 169 158c109 0 171 -77 171 -163v-59zM347 264v16c0 71 -49 126 -120 126c-66 0 -118 -51 -118 -118v-19c0 -11 2 -15 10 -15h218c7 0 10 3 10 10z" />
    <glyph glyph-name="ecircumflex" unicode="&#xea;" horiz-adv-x="455" 
d="M324 500c4 -5 2 -12 -6 -12h-27c-4 0 -7 2 -10 5l-46 60c-5 7 -10 7 -15 0l-46 -60c-3 -3 -6 -5 -10 -5h-27c-8 0 -10 7 -6 12l75 94c2 2 5 4 8 4h27c3 0 6 -2 8 -4zM398 224c0 -7 -3 -10 -10 -10h-269c-7 0 -10 -3 -10 -10v-54c0 -69 47 -120 118 -120h15
c43 0 77 20 104 56c3 4 6 4 10 2l26 -12c6 -3 10 -9 6 -15c-11 -16 -24 -29 -40 -41c-27 -19 -62 -30 -106 -30h-15c-103 0 -169 65 -169 160v138c0 75 66 158 169 158c109 0 171 -77 171 -163v-59zM347 264v16c0 71 -49 126 -120 126c-66 0 -118 -51 -118 -118v-19
c0 -11 2 -15 10 -15h218c7 0 10 3 10 10z" />
    <glyph glyph-name="edieresis" unicode="&#xeb;" horiz-adv-x="455" 
d="M352 544c0 -22 -17 -40 -39 -40s-40 18 -40 40s18 39 40 39s39 -17 39 -39zM184 544c0 -22 -17 -40 -39 -40s-40 18 -40 40s18 39 40 39s39 -17 39 -39zM398 224c0 -7 -3 -10 -10 -10h-269c-7 0 -10 -3 -10 -10v-54c0 -69 47 -120 118 -120h15c43 0 77 20 104 56
c3 4 6 4 10 2l26 -12c6 -3 10 -9 6 -15c-11 -16 -24 -29 -40 -41c-27 -19 -62 -30 -106 -30h-15c-103 0 -169 65 -169 160v138c0 75 66 158 169 158c109 0 171 -77 171 -163v-59zM347 264v16c0 71 -49 126 -120 126c-66 0 -118 -51 -118 -118v-19c0 -11 2 -15 10 -15h218
c7 0 10 3 10 10z" />
    <glyph glyph-name="egrave" unicode="&#xe8;" horiz-adv-x="455" 
d="M251 498c4 -6 2 -10 -5 -10h-4c-6 0 -10 2 -18 8l-120 98c-9 7 -4 17 7 17h53c4 0 7 -1 9 -4zM398 224c0 -7 -3 -10 -10 -10h-269c-7 0 -10 -3 -10 -10v-54c0 -69 47 -120 118 -120h15c43 0 77 20 104 56c3 4 6 4 10 2l26 -12c6 -3 10 -9 6 -15c-11 -16 -24 -29 -40 -41
c-27 -19 -62 -30 -106 -30h-15c-103 0 -169 65 -169 160v138c0 75 66 158 169 158c109 0 171 -77 171 -163v-59zM347 264v16c0 71 -49 126 -120 126c-66 0 -118 -51 -118 -118v-19c0 -11 2 -15 10 -15h218c7 0 10 3 10 10z" />
    <glyph glyph-name="iacute" unicode="&#xed;" horiz-adv-x="196" 
d="M222 594l-120 -98c-8 -6 -11 -8 -18 -8h-4c-7 0 -9 4 -5 10l78 109c2 3 5 4 9 4h53c11 0 16 -10 7 -17zM124 10c0 -7 -3 -10 -10 -10h-31c-7 0 -10 3 -10 10v416c0 7 3 10 10 10h31c7 0 10 -3 10 -10v-416z" />
    <glyph glyph-name="icircumflex" unicode="&#xee;" horiz-adv-x="196" 
d="M195 500c4 -5 2 -12 -6 -12h-27c-4 0 -7 2 -10 5l-46 60c-5 7 -10 7 -15 0l-46 -60c-3 -3 -6 -5 -10 -5h-27c-8 0 -10 7 -6 12l75 94c2 2 5 4 8 4h27c3 0 6 -2 8 -4zM124 10c0 -7 -3 -10 -10 -10h-31c-7 0 -10 3 -10 10v416c0 7 3 10 10 10h31c7 0 10 -3 10 -10v-416z
" />
    <glyph glyph-name="idieresis" unicode="&#xef;" horiz-adv-x="196" 
d="M222 544c0 -22 -17 -40 -39 -40s-40 18 -40 40s18 39 40 39s39 -17 39 -39zM54 544c0 -22 -17 -40 -39 -40s-40 18 -40 40s18 39 40 39s39 -17 39 -39zM124 10c0 -7 -3 -10 -10 -10h-31c-7 0 -10 3 -10 10v416c0 7 3 10 10 10h31c7 0 10 -3 10 -10v-416z" />
    <glyph glyph-name="igrave" unicode="&#xec;" horiz-adv-x="196" 
d="M120 498c4 -6 2 -10 -5 -10h-4c-6 0 -10 2 -18 8l-120 98c-9 7 -4 17 7 17h53c4 0 7 -1 9 -4zM124 10c0 -7 -3 -10 -10 -10h-31c-7 0 -10 3 -10 10v416c0 7 3 10 10 10h31c7 0 10 -3 10 -10v-416z" />
    <glyph glyph-name="ntilde" unicode="&#xf1;" horiz-adv-x="480" 
d="M391 549c-24 -36 -47 -54 -74 -54c-18 0 -37 12 -61 27l-20 12c-16 10 -33 16 -47 16c-15 0 -31 -4 -55 -24c-4 -3 -6 -3 -11 -1l-4 2c-5 2 -5 7 -2 12c23 38 45 54 72 54c21 0 35 -8 56 -23l23 -16c12 -8 33 -18 49 -18c15 0 35 7 58 26c4 3 3 4 9 2l5 -2
c6 -2 5 -8 2 -13zM413 10c0 -7 -3 -10 -10 -10h-31c-7 0 -10 3 -10 10v268c0 67 -48 118 -120 118c-66 0 -118 -51 -118 -118v-268c0 -7 -3 -10 -10 -10h-31c-7 0 -10 3 -10 10v416c0 7 3 10 10 10h19c7 0 10 -3 10 -10v-41c0 -13 13 -13 20 -4c30 37 71 55 110 55
c103 0 171 -65 171 -158v-268z" />
    <glyph glyph-name="oacute" unicode="&#xf3;" horiz-adv-x="454" 
d="M353 594l-120 -98c-8 -6 -11 -8 -18 -8h-4c-7 0 -9 4 -5 10l78 109c2 3 5 4 9 4h53c11 0 16 -10 7 -17zM397 150c0 -90 -69 -160 -172 -160s-167 70 -167 160v138c0 95 66 158 167 158c103 0 172 -63 172 -158v-138zM346 150v138c0 71 -53 118 -121 118
c-69 0 -116 -45 -116 -118v-138c0 -71 47 -120 116 -120c68 0 121 52 121 120z" />
    <glyph glyph-name="ocircumflex" unicode="&#xf4;" horiz-adv-x="454" 
d="M322 500c4 -5 2 -12 -6 -12h-27c-4 0 -7 2 -10 5l-46 60c-5 7 -10 7 -15 0l-46 -60c-3 -3 -6 -5 -10 -5h-27c-8 0 -10 7 -6 12l75 94c2 2 5 4 8 4h27c3 0 6 -2 8 -4zM397 150c0 -90 -69 -160 -172 -160s-167 70 -167 160v138c0 95 66 158 167 158c103 0 172 -63 172 -158
v-138zM346 150v138c0 71 -53 118 -121 118c-69 0 -116 -45 -116 -118v-138c0 -71 47 -120 116 -120c68 0 121 52 121 120z" />
    <glyph glyph-name="odieresis" unicode="&#xf6;" horiz-adv-x="454" 
d="M349 544c0 -22 -17 -40 -39 -40s-40 18 -40 40s18 39 40 39s39 -17 39 -39zM181 544c0 -22 -17 -40 -39 -40s-40 18 -40 40s18 39 40 39s39 -17 39 -39zM397 150c0 -90 -69 -160 -172 -160s-167 70 -167 160v138c0 95 66 158 167 158c103 0 172 -63 172 -158v-138z
M346 150v138c0 71 -53 118 -121 118c-69 0 -116 -45 -116 -118v-138c0 -71 47 -120 116 -120c68 0 121 52 121 120z" />
    <glyph glyph-name="ograve" unicode="&#xf2;" horiz-adv-x="454" 
d="M251 498c4 -6 2 -10 -5 -10h-4c-6 0 -10 2 -18 8l-120 98c-9 7 -4 17 7 17h53c4 0 7 -1 9 -4zM397 150c0 -90 -69 -160 -172 -160s-167 70 -167 160v138c0 95 66 158 167 158c103 0 172 -63 172 -158v-138zM346 150v138c0 71 -53 118 -121 118c-69 0 -116 -45 -116 -118
v-138c0 -71 47 -120 116 -120c68 0 121 52 121 120z" />
    <glyph glyph-name="otilde" unicode="&#xf5;" horiz-adv-x="454" 
d="M366 549c-24 -36 -47 -54 -74 -54c-18 0 -37 12 -61 27l-20 12c-16 10 -33 16 -47 16c-15 0 -31 -4 -55 -24c-4 -3 -6 -3 -11 -1l-4 2c-5 2 -5 7 -2 12c23 38 45 54 72 54c21 0 35 -8 56 -23l23 -16c12 -8 33 -18 49 -18c15 0 35 7 58 26c4 3 3 4 9 2l5 -2
c6 -2 5 -8 2 -13zM397 150c0 -90 -69 -160 -172 -160s-167 70 -167 160v138c0 95 66 158 167 158c103 0 172 -63 172 -158v-138zM346 150v138c0 71 -53 118 -121 118c-69 0 -116 -45 -116 -118v-138c0 -71 47 -120 116 -120c68 0 121 52 121 120z" />
    <glyph glyph-name="scaron" unicode="&#x161;" horiz-adv-x="439" 
d="M319 586l-75 -94c-2 -2 -5 -4 -8 -4h-27c-3 0 -6 2 -8 4l-75 94c-4 5 -2 12 6 12h27c4 0 7 -2 10 -5l46 -60c5 -7 10 -7 15 0l46 60c3 3 6 5 10 5h27c8 0 10 -7 6 -12zM389 123c0 -76 -55 -133 -155 -133h-32c-43 0 -77 12 -103 29c-17 12 -31 26 -42 40c-5 6 -3 12 5 15
l25 11c6 3 10 0 13 -4c23 -34 60 -56 102 -56h32c70 0 105 45 105 90c0 61 -65 68 -134 84s-152 33 -152 120c0 85 67 127 149 127h32c40 0 74 -11 100 -27c17 -11 32 -24 42 -38c5 -6 1 -12 -5 -15l-23 -11c-4 -2 -8 0 -11 4c-26 32 -64 52 -103 52h-32
c-71 0 -99 -39 -99 -84c0 -60 69 -70 113 -80c88 -19 173 -34 173 -124z" />
    <glyph glyph-name="uacute" unicode="&#xfa;" horiz-adv-x="482" 
d="M363 594l-120 -98c-8 -6 -11 -8 -18 -8h-4c-7 0 -9 4 -5 10l78 109c2 3 5 4 9 4h53c11 0 16 -10 7 -17zM410 10c0 -7 -3 -10 -10 -10h-21c-7 0 -10 3 -10 10v41c0 13 -12 14 -19 5c-29 -36 -65 -56 -113 -56c-103 0 -169 67 -169 160v266c0 7 3 10 10 10h31
c7 0 10 -3 10 -10v-266c0 -70 53 -120 118 -120c68 0 122 52 122 120v266c0 7 3 10 10 10h31c7 0 10 -3 10 -10v-416z" />
    <glyph glyph-name="ucircumflex" unicode="&#xfb;" horiz-adv-x="482" 
d="M337 500c4 -5 2 -12 -6 -12h-27c-4 0 -7 2 -10 5l-46 60c-5 7 -10 7 -15 0l-46 -60c-3 -3 -6 -5 -10 -5h-27c-8 0 -10 7 -6 12l75 94c2 2 5 4 8 4h27c3 0 6 -2 8 -4zM410 10c0 -7 -3 -10 -10 -10h-21c-7 0 -10 3 -10 10v41c0 13 -12 14 -19 5c-29 -36 -65 -56 -113 -56
c-103 0 -169 67 -169 160v266c0 7 3 10 10 10h31c7 0 10 -3 10 -10v-266c0 -70 53 -120 118 -120c68 0 122 52 122 120v266c0 7 3 10 10 10h31c7 0 10 -3 10 -10v-416z" />
    <glyph glyph-name="udieresis" unicode="&#xfc;" horiz-adv-x="482" 
d="M363 544c0 -22 -17 -40 -39 -40s-40 18 -40 40s18 39 40 39s39 -17 39 -39zM195 544c0 -22 -17 -40 -39 -40s-40 18 -40 40s18 39 40 39s39 -17 39 -39zM410 10c0 -7 -3 -10 -10 -10h-21c-7 0 -10 3 -10 10v41c0 13 -12 14 -19 5c-29 -36 -65 -56 -113 -56
c-103 0 -169 67 -169 160v266c0 7 3 10 10 10h31c7 0 10 -3 10 -10v-266c0 -70 53 -120 118 -120c68 0 122 52 122 120v266c0 7 3 10 10 10h31c7 0 10 -3 10 -10v-416z" />
    <glyph glyph-name="ugrave" unicode="&#xf9;" horiz-adv-x="482" 
d="M261 498c4 -6 2 -10 -5 -10h-4c-6 0 -10 2 -18 8l-120 98c-9 7 -4 17 7 17h53c4 0 7 -1 9 -4zM410 10c0 -7 -3 -10 -10 -10h-21c-7 0 -10 3 -10 10v41c0 13 -12 14 -19 5c-29 -36 -65 -56 -113 -56c-103 0 -169 67 -169 160v266c0 7 3 10 10 10h31c7 0 10 -3 10 -10v-266
c0 -70 53 -120 118 -120c68 0 122 52 122 120v266c0 7 3 10 10 10h31c7 0 10 -3 10 -10v-416z" />
    <glyph glyph-name="yacute" unicode="&#xfd;" horiz-adv-x="482" 
d="M363 594l-120 -98c-8 -6 -11 -8 -18 -8h-4c-7 0 -9 4 -5 10l78 109c2 3 5 4 9 4h53c11 0 16 -10 7 -17zM410 -64c0 -99 -59 -171 -173 -171c-46 0 -80 11 -105 29c-16 12 -29 26 -39 43c-4 6 0 11 6 14l26 13c5 2 8 1 11 -3c25 -34 58 -56 101 -56c72 0 122 52 122 120
v114c0 13 -13 12 -20 5c-33 -33 -68 -44 -110 -44c-90 0 -161 65 -161 158v268c0 7 3 10 10 10h31c7 0 10 -3 10 -10v-268c0 -65 53 -118 120 -118c66 0 120 51 120 118v268c0 7 3 10 10 10h31c7 0 10 -3 10 -10v-490z" />
    <glyph glyph-name="ydieresis" unicode="&#xff;" horiz-adv-x="482" 
d="M363 544c0 -22 -17 -40 -39 -40s-40 18 -40 40s18 39 40 39s39 -17 39 -39zM195 544c0 -22 -17 -40 -39 -40s-40 18 -40 40s18 39 40 39s39 -17 39 -39zM410 -64c0 -99 -59 -171 -173 -171c-50 0 -86 13 -112 35c-13 10 -23 23 -32 37c-4 6 0 11 6 14l26 13
c5 2 8 1 11 -3c25 -34 58 -56 101 -56c72 0 122 52 122 120v114c0 13 -13 12 -20 5c-33 -33 -68 -44 -110 -44c-90 0 -161 65 -161 158v268c0 7 3 10 10 10h31c7 0 10 -3 10 -10v-268c0 -65 53 -118 120 -118c66 0 120 51 120 118v268c0 7 3 10 10 10h31c7 0 10 -3 10 -10
v-490z" />
    <glyph glyph-name="zcaron" unicode="&#x17e;" horiz-adv-x="391" 
d="M281 586l-75 -94c-2 -2 -5 -4 -8 -4h-27c-3 0 -6 2 -8 4l-75 94c-4 5 -2 12 6 12h27c4 0 7 -2 10 -5l46 -60c5 -7 10 -7 15 0l46 60c3 3 6 5 10 5h27c8 0 10 -7 6 -12zM361 10c0 -7 -3 -10 -10 -10h-307c-10 0 -14 6 -9 15l215 365c5 9 1 15 -9 15h-208
c-7 0 -10 3 -10 10v20c0 7 3 10 10 10h289c10 0 14 -6 9 -15l-216 -365c-5 -9 -1 -15 9 -15h227c7 0 10 -3 10 -10v-20z" />
    <glyph glyph-name="notequal" unicode="&#x2260;" horiz-adv-x="565" 
d="M471 172h-231l-64 -138h-34l64 138h-111v36h128l78 166h-206v36h223l62 135h34l-63 -135h120v-36h-137l-77 -166h214v-36z" />
    <glyph glyph-name="infinity" unicode="&#x221e;" horiz-adv-x="798" 
d="M742 294c0 -84 -57 -158 -156 -158c-85 0 -149 55 -187 117h-2c-44 -66 -109 -117 -183 -117c-102 0 -159 69 -159 154c0 89 57 158 156 158c89 0 149 -59 187 -117h2c34 52 96 117 182 117c93 0 160 -59 160 -154zM693 293c0 61 -34 112 -110 112
c-69 0 -119 -48 -162 -113c43 -72 102 -113 161 -113c78 0 111 54 111 114zM375 292c-40 68 -104 113 -161 113c-77 0 -110 -53 -110 -115c0 -66 47 -111 109 -111c67 0 123 52 162 113z" />
    <glyph glyph-name="lessequal" unicode="&#x2264;" horiz-adv-x="565" 
d="M471 0h-376v36h376v-36zM471 129l-376 202v12l376 203v-43l-314 -164v-2l314 -165v-43z" />
    <glyph glyph-name="greaterequal" unicode="&#x2265;" horiz-adv-x="565" 
d="M471 0h-376v36h376v-36zM471 332l-376 -203v43l313 164v2l-313 165v43l376 -202v-12z" />
    <glyph glyph-name="partialdiff" unicode="&#x2202;" horiz-adv-x="586" 
d="M527 495c0 -58 -8 -126 -25 -194c-38 -143 -128 -311 -280 -311c-99 0 -167 71 -167 183c0 195 137 328 270 328c78 0 125 -41 145 -82h2c3 22 5 46 5 76c0 123 -56 187 -150 187c-32 0 -70 -11 -99 -28c-6 13 -11 27 -17 39c23 15 73 32 122 32c115 0 194 -78 194 -230z
M462 357c-15 55 -60 100 -137 100c-116 0 -219 -124 -219 -284c0 -85 48 -140 118 -140c107 0 197 123 238 324z" />
    <glyph glyph-name="summation" unicode="&#x2211;" horiz-adv-x="641" 
d="M614 -230h-593v19c121 151 240 300 361 450c-112 145 -223 290 -334 436v25h538v-44h-464c106 -139 213 -277 319 -416c-113 -142 -227 -284 -340 -426h513v-44z" />
    <glyph glyph-name="product" unicode="&#x220f;" horiz-adv-x="731" 
d="M638 -230h-51v886h-442v-886h-52v930h545v-930z" />
    <glyph glyph-name="pi" unicode="&#x3c0;" horiz-adv-x="669" 
d="M600 44l12 -39c-14 -7 -35 -11 -55 -11c-75 0 -109 51 -109 121v341h-230v-329c0 -50 -5 -96 -13 -127h-52c10 36 14 86 14 128v328c-32 0 -79 -10 -108 -22c-6 14 -11 27 -16 41c26 11 75 25 135 25h434v-44h-113v-338c0 -49 20 -81 69 -81c9 0 21 3 32 7z" />
    <glyph glyph-name="integral" unicode="&#x222b;" horiz-adv-x="498" 
d="M414 694c-10 5 -29 10 -48 10c-62 0 -92 -40 -92 -107v-671c0 -99 -57 -151 -141 -151c-20 0 -50 5 -63 11l12 42c13 -5 29 -10 50 -10c61 0 91 38 91 107v673c0 94 54 150 141 150c24 0 51 -6 63 -12c-5 -14 -9 -28 -13 -42z" />
    <glyph glyph-name="uni03A9" unicode="&#x3a9;" horiz-adv-x="720" 
d="M667 0h-221v44c66 53 169 152 169 334c0 162 -87 289 -254 289c-153 0 -259 -120 -259 -288c0 -177 98 -277 170 -335v-44h-221v44h160c-65 52 -161 159 -161 338c0 189 127 330 311 330c193 0 306 -135 306 -329c0 -163 -89 -281 -162 -339h162v-44z" />
    <glyph glyph-name="radical" unicode="&#x221a;" horiz-adv-x="527" 
d="M528 728c-70 -247 -138 -493 -208 -740h-43c-51 120 -100 240 -151 360c-18 -11 -37 -22 -55 -32l-18 36c33 18 66 37 99 56c48 -114 97 -228 145 -342c61 220 123 442 184 662h47z" />
    <glyph glyph-name="approxequal" unicode="&#x2248;" horiz-adv-x="565" 
d="M478 417c-23 -38 -58 -73 -107 -73c-37 0 -69 14 -96 31c-24 15 -52 30 -80 30c-27 0 -60 -20 -83 -60l-24 24c24 38 57 72 109 72c35 0 65 -12 93 -31c27 -17 53 -30 80 -30c28 0 61 20 84 60zM478 214c-23 -37 -58 -72 -107 -72c-37 0 -69 14 -96 31
c-24 15 -52 30 -80 30c-27 0 -60 -20 -83 -60l-24 24c24 39 57 72 109 72c35 0 65 -12 93 -31c27 -17 53 -30 80 -30c28 0 61 20 84 60z" />
    <glyph glyph-name="Delta" unicode="&#x2206;" horiz-adv-x="621" 
d="M592 0h-562v30c85 224 170 446 255 670h54c84 -224 169 -446 253 -670v-30zM531 45c-68 181 -136 361 -203 542c-9 22 -11 37 -16 53h-3c-3 -15 -9 -35 -16 -53c-67 -180 -135 -361 -203 -542h441z" />
    <glyph glyph-name="lozenge" unicode="&#x25ca;" horiz-adv-x="570" 
d="M513 350c-71 -117 -142 -233 -213 -350h-31c-71 116 -142 233 -212 349c70 117 141 234 212 351h31c71 -117 142 -233 213 -350zM460 350c-58 96 -117 192 -176 289c-58 -97 -117 -193 -176 -289c59 -97 117 -193 176 -289c59 96 117 192 176 289z" />
    <glyph glyph-name="Euro" unicode="&#x20ac;" 
d="M463 61c-11 -16 -23 -28 -39 -40c-26 -19 -61 -31 -107 -31h-32c-103 0 -168 65 -168 160v51c0 6 -4 10 -10 10h-72c-7 0 -10 3 -10 10v26c0 7 3 10 10 10h72c6 0 10 4 10 10v97c0 6 -4 10 -10 10h-72c-7 0 -10 3 -10 10v27c0 7 3 10 10 10h72c6 0 10 4 10 10v50
c0 95 65 159 168 159h32c46 0 82 -13 110 -33c14 -10 26 -23 36 -37c4 -6 1 -11 -5 -14l-26 -13c-4 -2 -9 -2 -11 1c-28 34 -64 55 -104 55h-32c-68 0 -117 -50 -117 -118v-50c0 -6 4 -10 10 -10h171c7 0 10 -3 10 -10v-27c0 -7 -3 -10 -10 -10h-171c-6 0 -10 -4 -10 -10
v-97c0 -6 4 -10 10 -10h171c7 0 10 -3 10 -10v-26c0 -7 -3 -10 -10 -10h-171c-6 0 -10 -4 -10 -10v-51c0 -65 49 -120 117 -120h32c40 0 77 19 103 56c3 4 7 4 11 2l26 -12c6 -3 10 -9 6 -15z" />
    <glyph glyph-name="A.sc" unicode="&#xe000;" horiz-adv-x="394" 
d="M363 9c2 -5 0 -9 -7 -9h-37c-4 0 -7 1 -7 5l-33 101c-1 3 -4 4 -7 4h-149c-4 0 -7 -1 -8 -4l-32 -101c-1 -4 -4 -5 -8 -5h-37c-6 0 -9 4 -7 9l145 445c1 4 4 5 7 5h28c4 0 7 -1 7 -5zM263 158l-56 191c-2 7 -7 23 -8 28h-3c-1 -5 -6 -22 -8 -28l-58 -191c-2 -5 0 -9 7 -9
h119c7 0 9 4 7 9z" />
    <glyph glyph-name="AE.sc" unicode="&#xe001;" horiz-adv-x="584" 
d="M520 7c0 -5 -3 -7 -8 -7h-240c-5 0 -7 2 -7 7v96c0 5 -2 7 -7 7h-141c-2 0 -5 -1 -7 -3l-58 -103c-1 -3 -4 -4 -6 -4h-34c-7 0 -10 4 -6 11l262 445c2 2 5 3 7 3h237c5 0 8 -2 8 -7v-24c0 -5 -3 -7 -8 -7h-190c-5 0 -8 -3 -8 -8v-153c0 -5 3 -7 8 -7h156c5 0 7 -2 7 -7
v-24c0 -5 -2 -8 -7 -8h-156c-5 0 -8 -2 -8 -7v-161c0 -5 3 -7 8 -7h190c5 0 8 -3 8 -8v-24zM267 377h-3c-2 -5 -12 -22 -13 -25l-110 -192c-4 -7 -1 -11 6 -11h111c5 0 7 2 7 7v51c0 58 1 152 2 170z" />
    <glyph glyph-name="Aacute.sc" unicode="&#xe002;" horiz-adv-x="394" 
d="M313 621l-120 -98c-8 -6 -11 -8 -18 -8h-4c-7 0 -9 4 -5 10l78 109c2 3 5 4 9 4h53c11 0 16 -10 7 -17zM363 9c2 -5 0 -9 -7 -9h-37c-4 0 -7 1 -7 5l-33 101c-1 3 -4 4 -7 4h-149c-4 0 -7 -1 -8 -4l-32 -101c-1 -4 -4 -5 -8 -5h-37c-6 0 -9 4 -7 9l145 445c1 4 4 5 7 5
h28c4 0 7 -1 7 -5zM263 158l-56 191c-2 7 -7 23 -8 28h-3c-1 -5 -6 -22 -8 -28l-58 -191c-2 -5 0 -9 7 -9h119c7 0 9 4 7 9z" />
    <glyph glyph-name="Acircumflex.sc" unicode="&#xe003;" horiz-adv-x="394" 
d="M298 527c4 -5 2 -12 -6 -12h-27c-4 0 -7 2 -10 5l-46 60c-5 7 -10 7 -15 0l-46 -60c-3 -3 -6 -5 -10 -5h-27c-8 0 -10 7 -6 12l75 94c2 2 5 4 8 4h27c3 0 6 -2 8 -4zM363 9c2 -5 0 -9 -7 -9h-37c-4 0 -7 1 -7 5l-33 101c-1 3 -4 4 -7 4h-149c-4 0 -7 -1 -8 -4l-32 -101
c-1 -4 -4 -5 -8 -5h-37c-6 0 -9 4 -7 9l145 445c1 4 4 5 7 5h28c4 0 7 -1 7 -5zM263 158l-56 191c-2 7 -7 23 -8 28h-3c-1 -5 -6 -22 -8 -28l-58 -191c-2 -5 0 -9 7 -9h119c7 0 9 4 7 9z" />
    <glyph glyph-name="Adieresis.sc" unicode="&#xe004;" horiz-adv-x="394" 
d="M319 570c0 -22 -17 -40 -39 -40s-40 18 -40 40s18 39 40 39s39 -17 39 -39zM151 570c0 -22 -17 -40 -39 -40s-40 18 -40 40s18 39 40 39s39 -17 39 -39zM363 9c2 -5 0 -9 -7 -9h-37c-4 0 -7 1 -7 5l-33 101c-1 3 -4 4 -7 4h-149c-4 0 -7 -1 -8 -4l-32 -101
c-1 -4 -4 -5 -8 -5h-37c-6 0 -9 4 -7 9l145 445c1 4 4 5 7 5h28c4 0 7 -1 7 -5zM263 158l-56 191c-2 7 -7 23 -8 28h-3c-1 -5 -6 -22 -8 -28l-58 -191c-2 -5 0 -9 7 -9h119c7 0 9 4 7 9z" />
    <glyph glyph-name="Agrave.sc" unicode="&#xe005;" horiz-adv-x="394" 
d="M233 525c4 -6 2 -10 -5 -10h-4c-6 0 -10 2 -18 8l-120 98c-9 7 -4 17 7 17h53c4 0 7 -1 9 -4zM363 9c2 -5 0 -9 -7 -9h-37c-4 0 -7 1 -7 5l-33 101c-1 3 -4 4 -7 4h-149c-4 0 -7 -1 -8 -4l-32 -101c-1 -4 -4 -5 -8 -5h-37c-6 0 -9 4 -7 9l145 445c1 4 4 5 7 5h28
c4 0 7 -1 7 -5zM263 158l-56 191c-2 7 -7 23 -8 28h-3c-1 -5 -6 -22 -8 -28l-58 -191c-2 -5 0 -9 7 -9h119c7 0 9 4 7 9z" />
    <glyph glyph-name="Aring.sc" unicode="&#xe006;" horiz-adv-x="394" 
d="M363 9c2 -5 0 -9 -7 -9h-37c-4 0 -7 1 -7 5l-33 101c-1 3 -4 4 -7 4h-149c-4 0 -7 -1 -8 -4l-32 -101c-1 -4 -4 -5 -8 -5h-37c-6 0 -9 4 -7 9l144 442c-34 8 -55 33 -55 69v32c0 43 31 71 77 71c44 0 80 -28 80 -71v-32c0 -36 -25 -61 -58 -69c0 1 144 -442 144 -442z
M246 520v32c0 26 -19 43 -49 43s-46 -17 -46 -43v-32c0 -27 16 -43 46 -43s49 17 49 43zM263 158l-56 191c-2 7 -7 23 -8 28h-3c-1 -5 -6 -22 -8 -28l-58 -191c-2 -5 0 -9 7 -9h119c7 0 9 4 7 9z" />
    <glyph glyph-name="Atilde.sc" unicode="&#xe007;" horiz-adv-x="394" 
d="M336 575c-24 -36 -47 -54 -74 -54c-18 0 -37 12 -61 27l-20 12c-16 10 -33 16 -47 16c-15 0 -31 -4 -55 -24c-4 -3 -6 -3 -11 -1l-4 2c-5 2 -5 7 -2 12c23 38 45 54 72 54c21 0 35 -8 56 -23l23 -16c12 -8 33 -18 49 -18c15 0 35 7 58 26c4 3 3 4 9 2l5 -2
c6 -2 5 -8 2 -13zM363 9c2 -5 0 -9 -7 -9h-37c-4 0 -7 1 -7 5l-33 101c-1 3 -4 4 -7 4h-149c-4 0 -7 -1 -8 -4l-32 -101c-1 -4 -4 -5 -8 -5h-37c-6 0 -9 4 -7 9l145 445c1 4 4 5 7 5h28c4 0 7 -1 7 -5zM263 158l-56 191c-2 7 -7 23 -8 28h-3c-1 -5 -6 -22 -8 -28l-58 -191
c-2 -5 0 -9 7 -9h119c7 0 9 4 7 9z" />
    <glyph glyph-name="B.sc" unicode="&#xe008;" horiz-adv-x="470" 
d="M390 126c0 -77 -50 -126 -128 -126h-156c-5 0 -8 2 -8 7v445c0 5 3 7 8 7h156c78 0 128 -49 128 -126v-8c0 -28 -23 -70 -54 -85c-7 -3 -8 -9 -1 -13c27 -13 55 -47 55 -90v-11zM341 333v7c0 43 -35 81 -79 81h-107c-6 0 -8 -3 -8 -8v-153c0 -5 2 -7 8 -7h107
c44 0 79 36 79 80zM341 120v15c0 42 -35 79 -79 79h-107c-6 0 -8 -2 -8 -7v-161c0 -5 2 -7 8 -7h107c44 0 79 37 79 81z" />
    <glyph glyph-name="C.sc" unicode="&#xe009;" horiz-adv-x="425" 
d="M365 50c-20 -34 -51 -60 -113 -60h-38c-77 0 -127 49 -127 119v241c0 71 50 120 127 120h38c61 0 93 -26 113 -59c2 -4 0 -8 -4 -10l-31 -15c-3 -2 -6 -1 -9 2c-18 25 -45 43 -69 43h-38c-43 0 -77 -37 -77 -81v-241c0 -42 34 -81 77 -81h38c25 0 52 19 69 45
c3 4 6 4 9 2l31 -15c4 -2 6 -6 4 -10z" />
    <glyph glyph-name="Ccedilla.sc" unicode="&#xe00a;" horiz-adv-x="425" 
d="M365 50c-31 -49 -65 -60 -127 -60c-4 0 -6 -2 -7 -5l-29 -60c-2 -4 -2 -9 2 -11c34 -18 52 -39 52 -68v-9c0 -53 -43 -86 -95 -86h-32c-7 0 -13 4 -13 13v8c0 9 4 13 13 13h32c31 0 51 25 51 52v9c0 11 -7 20 -19 29c-8 6 -18 11 -29 17c-11 5 -12 15 -8 23l34 71
c1 3 -1 5 -4 6c-61 10 -99 56 -99 117v241c0 71 50 120 127 120h38c61 0 93 -26 113 -59c2 -4 0 -8 -4 -10l-31 -15c-3 -2 -6 -1 -9 2c-18 25 -45 43 -69 43h-38c-43 0 -77 -37 -77 -81v-241c0 -42 34 -81 77 -81h38c25 0 52 19 69 45c3 4 6 4 9 2l31 -15c4 -2 6 -7 4 -10z
" />
    <glyph glyph-name="D.sc" unicode="&#xe00b;" horiz-adv-x="478" 
d="M390 128c0 -78 -50 -128 -128 -128h-156c-5 0 -8 2 -8 7v445c0 5 3 7 8 7h156c78 0 128 -49 128 -126v-205zM341 120v220c0 43 -35 81 -79 81h-107c-6 0 -8 -3 -8 -8v-367c0 -5 2 -7 8 -7h107c44 0 79 37 79 81z" />
    <glyph glyph-name="Eth.sc" unicode="&#xe00c;" horiz-adv-x="478" 
d="M390 128c0 -78 -50 -128 -128 -128h-156c-5 0 -8 2 -8 7v198c0 6 -1 9 -7 9h-41c-6 0 -9 3 -9 10v19c0 7 3 10 9 10h41c5 0 7 4 7 9v190c0 5 3 7 8 7h156c78 0 128 -49 128 -126v-205zM341 120v220c0 43 -35 81 -79 81h-107c-6 0 -8 -3 -8 -8v-152c0 -6 4 -8 9 -8h86
c6 0 9 -3 9 -10v-19c0 -7 -3 -10 -9 -10h-87c-5 0 -8 -3 -8 -8v-160c0 -5 2 -7 8 -7h107c44 0 79 37 79 81z" />
    <glyph glyph-name="E.sc" unicode="&#xe00d;" horiz-adv-x="431" 
d="M367 7c0 -5 -2 -7 -7 -7h-254c-5 0 -8 2 -8 7v445c0 5 3 7 8 7h254c5 0 7 -2 7 -7v-24c0 -5 -2 -7 -7 -7h-205c-6 0 -8 -3 -8 -8v-153c0 -5 2 -7 8 -7h171c5 0 7 -2 7 -7v-24c0 -5 -2 -8 -7 -8h-171c-6 0 -8 -2 -8 -7v-161c0 -5 2 -7 8 -7h205c5 0 7 -3 7 -8v-24z" />
    <glyph glyph-name="Eacute.sc" unicode="&#xe00e;" horiz-adv-x="431" 
d="M359 621l-120 -98c-8 -6 -11 -8 -18 -8h-4c-7 0 -9 4 -5 10l78 109c2 3 5 4 9 4h53c11 0 16 -10 7 -17zM367 7c0 -5 -2 -7 -7 -7h-254c-5 0 -8 2 -8 7v445c0 5 3 7 8 7h254c5 0 7 -2 7 -7v-24c0 -5 -2 -7 -7 -7h-205c-6 0 -8 -3 -8 -8v-153c0 -5 2 -7 8 -7h171
c5 0 7 -2 7 -7v-24c0 -5 -2 -8 -7 -8h-171c-6 0 -8 -2 -8 -7v-161c0 -5 2 -7 8 -7h205c5 0 7 -3 7 -8v-24z" />
    <glyph glyph-name="Ecircumflex.sc" unicode="&#xe00f;" horiz-adv-x="431" 
d="M332 527c4 -5 2 -12 -6 -12h-27c-4 0 -7 2 -10 5l-46 60c-5 7 -10 7 -15 0l-46 -60c-3 -3 -6 -5 -10 -5h-27c-8 0 -10 7 -6 12l75 94c2 2 5 4 8 4h27c3 0 6 -2 8 -4zM367 7c0 -5 -2 -7 -7 -7h-254c-5 0 -8 2 -8 7v445c0 5 3 7 8 7h254c5 0 7 -2 7 -7v-24
c0 -5 -2 -7 -7 -7h-205c-6 0 -8 -3 -8 -8v-153c0 -5 2 -7 8 -7h171c5 0 7 -2 7 -7v-24c0 -5 -2 -8 -7 -8h-171c-6 0 -8 -2 -8 -7v-161c0 -5 2 -7 8 -7h205c5 0 7 -3 7 -8v-24z" />
    <glyph glyph-name="Edieresis.sc" unicode="&#xe010;" horiz-adv-x="431" 
d="M355 570c0 -22 -17 -40 -39 -40s-40 18 -40 40s18 39 40 39s39 -17 39 -39zM187 570c0 -22 -17 -40 -39 -40s-40 18 -40 40s18 39 40 39s39 -17 39 -39zM367 7c0 -5 -2 -7 -7 -7h-254c-5 0 -8 2 -8 7v445c0 5 3 7 8 7h254c5 0 7 -2 7 -7v-24c0 -5 -2 -7 -7 -7h-205
c-6 0 -8 -3 -8 -8v-153c0 -5 2 -7 8 -7h171c5 0 7 -2 7 -7v-24c0 -5 -2 -8 -7 -8h-171c-6 0 -8 -2 -8 -7v-161c0 -5 2 -7 8 -7h205c5 0 7 -3 7 -8v-24z" />
    <glyph glyph-name="Egrave.sc" unicode="&#xe011;" horiz-adv-x="431" 
d="M281 525c4 -6 2 -10 -5 -10h-4c-6 0 -10 2 -18 8l-120 98c-9 7 -4 17 7 17h53c4 0 7 -1 9 -4zM367 7c0 -5 -2 -7 -7 -7h-254c-5 0 -8 2 -8 7v445c0 5 3 7 8 7h254c5 0 7 -2 7 -7v-24c0 -5 -2 -7 -7 -7h-205c-6 0 -8 -3 -8 -8v-153c0 -5 2 -7 8 -7h171c5 0 7 -2 7 -7v-24
c0 -5 -2 -8 -7 -8h-171c-6 0 -8 -2 -8 -7v-161c0 -5 2 -7 8 -7h205c5 0 7 -3 7 -8v-24z" />
    <glyph glyph-name="F.sc" unicode="&#xe012;" horiz-adv-x="413" 
d="M367 428c0 -5 -2 -7 -7 -7h-205c-6 0 -8 -3 -8 -8v-153c0 -5 2 -7 8 -7h171c5 0 7 -2 7 -7v-24c0 -5 -2 -8 -7 -8h-171c-6 0 -8 -2 -8 -7v-200c0 -5 -2 -7 -7 -7h-34c-5 0 -8 2 -8 7v445c0 5 3 7 8 7h254c5 0 7 -2 7 -7v-24z" />
    <glyph glyph-name="G.sc" unicode="&#xe013;" horiz-adv-x="460" 
d="M380 109c0 -70 -51 -119 -128 -119h-38c-77 0 -127 49 -127 119v241c0 71 50 120 127 120h52c61 0 92 -25 112 -59c3 -4 0 -8 -4 -10l-31 -15c-3 -2 -6 -2 -8 2c-18 26 -45 43 -69 43h-52c-43 0 -77 -37 -77 -81v-241c0 -42 34 -81 77 -81h38c42 0 78 39 78 81v62
c0 5 -2 7 -7 7h-92c-5 0 -7 2 -7 7v25c0 5 2 7 7 7h142c5 0 7 -2 7 -7v-101z" />
    <glyph glyph-name="H.sc" unicode="&#xe014;" horiz-adv-x="500" 
d="M402 7c0 -5 -2 -7 -8 -7h-35c-5 0 -7 2 -7 7v200c0 5 -2 7 -7 7h-190c-6 0 -8 -2 -8 -7v-200c0 -5 -2 -7 -7 -7h-34c-5 0 -8 2 -8 7v445c0 5 3 7 8 7h34c5 0 7 -2 7 -7v-192c0 -5 2 -7 8 -7h190c5 0 7 2 7 7v192c0 5 2 7 7 7h35c6 0 8 -2 8 -7v-445z" />
    <glyph glyph-name="I.sc" unicode="&#xe015;" horiz-adv-x="246" 
d="M147 7c0 -5 -2 -7 -7 -7h-34c-5 0 -8 2 -8 7v445c0 5 3 7 8 7h34c5 0 7 -2 7 -7v-445z" />
    <glyph glyph-name="Iacute.sc" unicode="&#xe016;" horiz-adv-x="246" 
d="M249 621l-120 -98c-8 -6 -11 -8 -18 -8h-4c-7 0 -9 4 -5 10l78 109c2 3 5 4 9 4h53c11 0 16 -10 7 -17zM147 7c0 -5 -2 -7 -7 -7h-34c-5 0 -8 2 -8 7v445c0 5 3 7 8 7h34c5 0 7 -2 7 -7v-445z" />
    <glyph glyph-name="Icircumflex.sc" unicode="&#xe017;" horiz-adv-x="246" 
d="M220 527c4 -5 2 -12 -6 -12h-27c-4 0 -7 2 -10 5l-46 60c-5 7 -10 7 -15 0l-46 -60c-3 -3 -6 -5 -10 -5h-27c-8 0 -10 7 -6 12l75 94c2 2 5 4 8 4h27c3 0 6 -2 8 -4zM147 7c0 -5 -2 -7 -7 -7h-34c-5 0 -8 2 -8 7v445c0 5 3 7 8 7h34c5 0 7 -2 7 -7v-445z" />
    <glyph glyph-name="Idieresis.sc" unicode="&#xe018;" horiz-adv-x="246" 
d="M247 570c0 -22 -17 -40 -39 -40s-40 18 -40 40s18 39 40 39s39 -17 39 -39zM79 570c0 -22 -17 -40 -39 -40s-40 18 -40 40s18 39 40 39s39 -17 39 -39zM147 7c0 -5 -2 -7 -7 -7h-34c-5 0 -8 2 -8 7v445c0 5 3 7 8 7h34c5 0 7 -2 7 -7v-445z" />
    <glyph glyph-name="Igrave.sc" unicode="&#xe019;" horiz-adv-x="246" 
d="M149 525c4 -6 2 -10 -5 -10h-4c-6 0 -10 2 -18 8l-120 98c-9 7 -4 17 7 17h53c4 0 7 -1 9 -4zM147 7c0 -5 -2 -7 -7 -7h-34c-5 0 -8 2 -8 7v445c0 5 3 7 8 7h34c5 0 7 -2 7 -7v-445z" />
    <glyph glyph-name="J.sc" unicode="&#xe01a;" horiz-adv-x="353" 
d="M266 117c0 -70 -57 -127 -128 -127c-43 0 -86 27 -112 60c-3 4 -2 8 3 11l31 15c4 2 6 1 9 -3c16 -26 44 -42 69 -42c42 0 78 36 78 78v343c0 5 2 7 7 7h35c6 0 8 -2 8 -7v-335z" />
    <glyph glyph-name="K.sc" unicode="&#xe01b;" horiz-adv-x="444" 
d="M407 11c4 -7 1 -11 -6 -11h-44c-2 0 -5 1 -7 4l-133 218c-4 6 -8 6 -13 1l-57 -71v-145c0 -5 -2 -7 -7 -7h-34c-5 0 -8 2 -8 7v445c0 5 3 7 8 7h34c5 0 7 -2 7 -7v-219c0 -9 8 -12 13 -5l174 228c2 2 4 3 6 3h39c8 0 11 -6 6 -12l-138 -169c-2 -2 -1 -5 0 -8z" />
    <glyph glyph-name="L.sc" unicode="&#xe01c;" horiz-adv-x="395" 
d="M367 7c0 -5 -2 -7 -7 -7h-254c-5 0 -8 2 -8 7v445c0 5 3 7 8 7h34c5 0 7 -2 7 -7v-406c0 -5 2 -7 8 -7h205c5 0 7 -3 7 -8v-24z" />
    <glyph glyph-name="Lslash.sc" unicode="&#xe01d;" horiz-adv-x="395" 
d="M367 7c0 -5 -2 -7 -7 -7h-254c-5 0 -8 2 -8 7v155c0 10 -4 13 -11 6l-35 -36c-4 -4 -10 -4 -14 0l-17 17c-4 4 -4 10 0 14l68 67c7 7 9 13 9 24v198c0 5 3 7 8 7h34c5 0 7 -2 7 -7v-148c0 -8 6 -11 11 -5l36 36c4 4 10 4 13 0l17 -17c4 -3 4 -10 0 -14l-66 -66
c-7 -7 -11 -15 -11 -25v-167c0 -5 2 -7 8 -7h205c5 0 7 -3 7 -8v-24z" />
    <glyph glyph-name="M.sc" unicode="&#xe01e;" horiz-adv-x="563" 
d="M465 7c0 -5 -2 -7 -7 -7h-34c-5 0 -8 2 -8 7v174c0 58 6 152 7 169l-3 1c-2 -6 -16 -46 -19 -52l-106 -226c-1 -3 -3 -4 -6 -4h-15c-3 0 -5 1 -6 4l-105 226c-3 7 -17 46 -19 52l-3 -1c1 -17 6 -111 6 -169v-174c0 -5 -2 -7 -7 -7h-34c-5 0 -8 2 -8 7v445c0 5 3 7 8 7h33
c3 0 5 -1 7 -4l125 -278c2 -5 8 -23 10 -29h2c1 6 9 24 11 29l123 278c2 3 4 4 7 4h34c5 0 7 -2 7 -7v-445z" />
    <glyph glyph-name="N.sc" unicode="&#xe01f;" horiz-adv-x="495" 
d="M397 7c0 -5 -2 -7 -8 -7h-34c-2 0 -5 1 -6 4l-188 321c-3 5 -11 20 -13 26l-3 -1c2 -17 2 -111 2 -169v-174c0 -5 -2 -7 -7 -7h-34c-5 0 -8 2 -8 7v445c0 5 3 7 8 7h33c3 0 5 -1 7 -3l187 -325c2 -4 11 -21 13 -27l3 1c-1 18 -2 112 -2 169v178c0 5 2 7 7 7h35
c6 0 8 -2 8 -7v-445z" />
    <glyph glyph-name="Ntilde.sc" unicode="&#xe020;" horiz-adv-x="495" 
d="M392 575c-24 -36 -47 -54 -74 -54c-18 0 -37 12 -61 27l-20 12c-16 10 -33 16 -47 16c-15 0 -31 -4 -55 -24c-4 -3 -6 -3 -11 -1l-4 2c-5 2 -5 7 -2 12c23 38 45 54 72 54c21 0 35 -8 56 -23l23 -16c12 -8 33 -18 49 -18c15 0 35 7 58 26c4 3 3 4 9 2l5 -2
c6 -2 5 -8 2 -13zM397 7c0 -5 -2 -7 -8 -7h-34c-2 0 -5 1 -6 4l-188 321c-3 5 -11 19 -13 25h-3c2 -17 2 -111 2 -169v-174c0 -5 -2 -7 -7 -7h-34c-5 0 -8 2 -8 7v445c0 5 3 7 8 7h33c3 0 5 -1 7 -3l187 -325c2 -4 11 -21 13 -27l3 1c-1 18 -2 112 -2 169v178c0 5 2 7 7 7
h35c6 0 8 -2 8 -7v-445z" />
    <glyph glyph-name="O.sc" unicode="&#xe021;" horiz-adv-x="466" 
d="M379 109c0 -70 -51 -119 -128 -119h-37c-77 0 -127 49 -127 119v241c0 71 50 120 127 120h37c77 0 128 -49 128 -120v-241zM329 106v247c0 44 -36 78 -78 78h-37c-43 0 -77 -34 -77 -78v-247c0 -42 34 -78 77 -78h37c42 0 78 36 78 78z" />
    <glyph glyph-name="OE.sc" unicode="&#xe022;" horiz-adv-x="648" 
d="M584 7c0 -5 -2 -7 -7 -7h-278c-13 -4 -30 -7 -47 -7h-38c-77 0 -127 49 -127 119v235c0 71 50 120 127 120h38c16 0 35 -3 49 -8h276c5 0 7 -2 7 -7v-24c0 -5 -2 -7 -7 -7h-207c-6 0 -9 -5 -6 -11c11 -25 16 -44 16 -63v-87c0 -5 2 -7 7 -7h156c5 0 8 -2 8 -7v-24
c0 -5 -3 -8 -8 -8h-156c-5 0 -7 -2 -7 -7v-98c0 -18 -5 -35 -16 -60c-3 -6 0 -10 6 -10h207c5 0 7 -3 7 -8v-24zM330 109v241c0 44 -36 78 -78 78h-38c-43 0 -77 -34 -77 -78v-241c0 -42 34 -78 77 -78h38c42 0 78 36 78 78z" />
    <glyph glyph-name="Oacute.sc" unicode="&#xe023;" horiz-adv-x="466" 
d="M337 621l-120 -98c-8 -6 -11 -8 -18 -8h-4c-7 0 -9 4 -5 10l78 109c2 3 5 4 9 4h53c11 0 16 -10 7 -17zM379 109c0 -70 -51 -119 -128 -119h-37c-77 0 -127 49 -127 119v241c0 71 50 120 127 120h37c77 0 128 -49 128 -120v-241zM329 106v247c0 44 -36 78 -78 78h-37
c-43 0 -77 -34 -77 -78v-247c0 -42 34 -78 77 -78h37c42 0 78 36 78 78z" />
    <glyph glyph-name="Ocircumflex.sc" unicode="&#xe024;" horiz-adv-x="466" 
d="M331 527c4 -5 2 -12 -6 -12h-27c-4 0 -7 2 -10 5l-46 60c-5 7 -10 7 -15 0l-46 -60c-3 -3 -6 -5 -10 -5h-27c-8 0 -10 7 -6 12l75 94c2 2 5 4 8 4h27c3 0 6 -2 8 -4zM379 109c0 -70 -51 -119 -128 -119h-37c-77 0 -127 49 -127 119v241c0 71 50 120 127 120h37
c77 0 128 -49 128 -120v-241zM329 106v247c0 44 -36 78 -78 78h-37c-43 0 -77 -34 -77 -78v-247c0 -42 34 -78 77 -78h37c42 0 78 36 78 78z" />
    <glyph glyph-name="Odieresis.sc" unicode="&#xe025;" horiz-adv-x="466" 
d="M357 570c0 -22 -17 -40 -39 -40s-40 18 -40 40s18 39 40 39s39 -17 39 -39zM189 570c0 -22 -17 -40 -39 -40s-40 18 -40 40s18 39 40 39s39 -17 39 -39zM379 109c0 -70 -51 -119 -128 -119h-37c-77 0 -127 49 -127 119v241c0 71 50 120 127 120h37c77 0 128 -49 128 -120
v-241zM329 106v247c0 44 -36 78 -78 78h-37c-43 0 -77 -34 -77 -78v-247c0 -42 34 -78 77 -78h37c42 0 78 36 78 78z" />
    <glyph glyph-name="Ograve.sc" unicode="&#xe026;" horiz-adv-x="466" 
d="M261 525c4 -6 2 -10 -5 -10h-4c-6 0 -10 2 -18 8l-120 98c-9 7 -4 17 7 17h53c4 0 7 -1 9 -4zM379 109c0 -70 -51 -119 -128 -119h-37c-77 0 -127 49 -127 119v241c0 71 50 120 127 120h37c77 0 128 -49 128 -120v-241zM329 106v247c0 44 -36 78 -78 78h-37
c-43 0 -77 -34 -77 -78v-247c0 -42 34 -78 77 -78h37c42 0 78 36 78 78z" />
    <glyph glyph-name="Oslash.sc" unicode="&#xe027;" horiz-adv-x="466" 
d="M379 112c0 -70 -51 -119 -128 -119h-37c-77 0 -127 49 -127 119v235c0 71 50 120 127 120h37c77 0 128 -49 128 -120v-235zM297 407c2 3 0 6 -3 8c-12 8 -27 13 -43 13h-37c-43 0 -77 -34 -77 -78v-241c0 -4 0 -8 1 -11c2 -9 10 -10 14 -2zM329 109v241c0 6 -1 11 -1 17
c-2 8 -10 9 -14 1l-146 -313c-2 -3 -2 -7 1 -9c11 -8 26 -15 45 -15h37c42 0 78 36 78 78z" />
    <glyph glyph-name="Otilde.sc" unicode="&#xe028;" horiz-adv-x="466" 
d="M368 575c-24 -36 -47 -54 -74 -54c-18 0 -37 12 -61 27l-20 12c-16 10 -33 16 -47 16c-15 0 -31 -4 -55 -24c-4 -3 -6 -3 -11 -1l-4 2c-5 2 -5 7 -2 12c23 38 45 54 72 54c21 0 35 -8 56 -23l23 -16c12 -8 33 -18 49 -18c15 0 35 7 58 26c4 3 3 4 9 2l5 -2
c6 -2 5 -8 2 -13zM379 109c0 -70 -51 -119 -128 -119h-37c-77 0 -127 49 -127 119v241c0 71 50 120 127 120h37c77 0 128 -49 128 -120v-241zM329 106v247c0 44 -36 78 -78 78h-37c-43 0 -77 -34 -77 -78v-247c0 -42 34 -78 77 -78h37c42 0 78 36 78 78z" />
    <glyph glyph-name="P.sc" unicode="&#xe029;" horiz-adv-x="430" 
d="M390 333c0 -68 -50 -119 -128 -119h-107c-6 0 -8 -2 -8 -7v-200c0 -5 -2 -7 -7 -7h-34c-5 0 -8 2 -8 7v445c0 5 3 7 8 7h156c76 0 128 -49 128 -120v-6zM341 333v7c0 43 -35 81 -79 81h-107c-6 0 -8 -3 -8 -8v-153c0 -5 2 -7 8 -7h107c44 0 79 36 79 80z" />
    <glyph glyph-name="Thorn.sc" unicode="&#xe02a;" horiz-adv-x="430" 
d="M390 274c0 -68 -50 -119 -128 -119h-107c-6 0 -8 -2 -8 -7v-141c0 -5 -2 -7 -7 -7h-34c-5 0 -8 2 -8 7v445c0 5 3 7 8 7h34c5 0 7 -2 7 -7v-45c0 -5 2 -7 8 -7h107c76 0 128 -49 128 -120v-6zM341 274v7c0 43 -35 81 -79 81h-107c-6 0 -8 -3 -8 -8v-153c0 -5 2 -7 8 -7
h107c44 0 79 36 79 80z" />
    <glyph glyph-name="Q.sc" unicode="&#xe02b;" horiz-adv-x="466" 
d="M379 109c0 -69 -49 -108 -120 -119c-4 0 -5 -2 -5 -7v-72c0 -5 -3 -8 -8 -8h-27c-5 0 -7 3 -7 8v72c0 5 -3 7 -7 7c-72 11 -118 53 -118 119v238c0 71 50 120 127 120h38c77 0 127 -49 127 -120v-238zM329 106v244c0 44 -35 78 -77 78h-38c-43 0 -77 -34 -77 -78v-244
c0 -35 28 -65 65 -75c6 -2 10 0 10 7v59c0 5 2 7 7 7h27c5 0 8 -2 8 -7v-58c0 -7 3 -7 9 -6c38 4 66 41 66 73z" />
    <glyph glyph-name="R.sc" unicode="&#xe02c;" horiz-adv-x="467" 
d="M401 9c2 -5 0 -9 -7 -9h-39c-3 0 -6 2 -6 5l-82 205c0 3 -2 4 -5 4h-107c-6 0 -8 -2 -8 -7v-200c0 -5 -2 -7 -7 -7h-34c-5 0 -8 2 -8 7v445c0 5 3 7 8 7h156c78 0 128 -49 128 -126v-8c0 -37 -34 -80 -69 -95c-4 -1 -5 -4 -4 -8zM341 333v7c0 43 -35 81 -79 81h-107
c-6 0 -8 -3 -8 -8v-153c0 -5 2 -7 8 -7h107c44 0 79 36 79 80z" />
    <glyph glyph-name="S.sc" unicode="&#xe02d;" horiz-adv-x="423" 
d="M354 112c0 -70 -50 -122 -128 -122h-45c-62 0 -93 25 -112 59c-2 4 -1 8 3 10l31 16c3 2 7 1 9 -3c18 -26 44 -44 69 -44h45c44 0 79 41 79 84c0 52 -59 79 -110 102c-57 26 -121 50 -121 133c0 71 49 123 127 123h25c62 0 93 -25 113 -59c3 -4 0 -8 -4 -10l-31 -15
c-3 -2 -6 -2 -8 2c-18 26 -45 43 -70 43h-25c-43 0 -78 -40 -78 -84c0 -46 62 -71 117 -96c54 -25 114 -53 114 -139z" />
    <glyph glyph-name="Scaron.sc" unicode="&#xe02e;" horiz-adv-x="423" 
d="M315 613l-75 -94c-2 -2 -5 -4 -8 -4h-27c-3 0 -6 2 -8 4l-75 94c-4 5 -2 12 6 12h27c4 0 7 -2 10 -5l46 -60c5 -7 10 -7 15 0l46 60c3 3 6 5 10 5h27c8 0 10 -7 6 -12zM354 112c0 -70 -50 -122 -128 -122h-45c-62 0 -93 25 -112 59c-2 4 -1 8 3 10l31 16c3 2 7 1 9 -3
c18 -26 44 -44 69 -44h45c44 0 79 41 79 84c0 52 -59 79 -110 102c-57 26 -121 50 -121 133c0 71 49 123 127 123h25c62 0 93 -25 113 -59c3 -4 0 -8 -4 -10l-31 -15c-3 -2 -6 -2 -8 2c-18 26 -45 43 -70 43h-25c-43 0 -78 -40 -78 -84c0 -46 62 -71 117 -96
c54 -25 114 -53 114 -139z" />
    <glyph glyph-name="T.sc" unicode="&#xe02f;" horiz-adv-x="329" 
d="M309 428c0 -5 -2 -7 -7 -7h-106c-5 0 -7 -3 -7 -8v-406c0 -5 -2 -7 -7 -7h-34c-6 0 -8 2 -8 7v406c0 5 -2 8 -7 8h-105c-6 0 -8 2 -8 7v24c0 5 2 7 8 7h274c5 0 7 -2 7 -7v-24z" />
    <glyph glyph-name="U.sc" unicode="&#xe030;" horiz-adv-x="467" 
d="M380 109c0 -70 -51 -119 -128 -119h-38c-77 0 -127 49 -127 119v343c0 5 3 7 8 7h35c5 0 7 -2 7 -7v-346c0 -42 34 -78 77 -78h38c42 0 78 36 78 78v346c0 5 2 7 8 7h35c5 0 7 -2 7 -7v-343z" />
    <glyph glyph-name="Uacute.sc" unicode="&#xe031;" horiz-adv-x="467" 
d="M349 621l-120 -98c-8 -6 -11 -8 -18 -8h-4c-7 0 -9 4 -5 10l78 109c2 3 5 4 9 4h53c11 0 16 -10 7 -17zM380 109c0 -70 -51 -119 -128 -119h-38c-77 0 -127 49 -127 119v343c0 5 3 7 8 7h35c5 0 7 -2 7 -7v-346c0 -42 34 -78 77 -78h38c42 0 78 36 78 78v346c0 5 2 7 8 7
h35c5 0 7 -2 7 -7v-343z" />
    <glyph glyph-name="Ucircumflex.sc" unicode="&#xe032;" horiz-adv-x="467" 
d="M332 527c4 -5 2 -12 -6 -12h-27c-4 0 -7 2 -10 5l-46 60c-5 7 -10 7 -15 0l-46 -60c-3 -3 -6 -5 -10 -5h-27c-8 0 -10 7 -6 12l75 94c2 2 5 4 8 4h27c3 0 6 -2 8 -4zM380 109c0 -70 -51 -119 -128 -119h-38c-77 0 -127 49 -127 119v343c0 5 3 7 8 7h35c5 0 7 -2 7 -7
v-346c0 -42 34 -78 77 -78h38c42 0 78 36 78 78v346c0 5 2 7 8 7h35c5 0 7 -2 7 -7v-343z" />
    <glyph glyph-name="Udieresis.sc" unicode="&#xe033;" horiz-adv-x="467" 
d="M359 570c0 -22 -17 -40 -39 -40s-40 18 -40 40s18 39 40 39s39 -17 39 -39zM191 570c0 -22 -17 -40 -39 -40s-40 18 -40 40s18 39 40 39s39 -17 39 -39zM380 109c0 -70 -51 -119 -128 -119h-38c-77 0 -127 49 -127 119v343c0 5 3 7 8 7h35c5 0 7 -2 7 -7v-346
c0 -42 34 -78 77 -78h38c42 0 78 36 78 78v346c0 5 2 7 8 7h35c5 0 7 -2 7 -7v-343z" />
    <glyph glyph-name="Ugrave.sc" unicode="&#xe034;" horiz-adv-x="467" 
d="M261 525c4 -6 2 -10 -5 -10h-4c-6 0 -10 2 -18 8l-120 98c-9 7 -4 17 7 17h53c4 0 7 -1 9 -4zM380 109c0 -70 -51 -119 -128 -119h-38c-77 0 -127 49 -127 119v343c0 5 3 7 8 7h35c5 0 7 -2 7 -7v-346c0 -42 34 -78 77 -78h38c42 0 78 36 78 78v346c0 5 2 7 8 7h35
c5 0 7 -2 7 -7v-343z" />
    <glyph glyph-name="V.sc" unicode="&#xe035;" horiz-adv-x="394" 
d="M363 450l-145 -445c-1 -4 -4 -5 -8 -5h-26c-4 0 -7 1 -7 5l-146 445c-2 6 1 9 7 9h37c4 0 7 -1 8 -5l107 -342c1 -5 6 -24 7 -30h4c1 6 6 25 7 30l104 342c0 4 3 5 7 5h37c7 0 9 -3 7 -9z" />
    <glyph glyph-name="W.sc" unicode="&#xe036;" horiz-adv-x="556" 
d="M522 450l-107 -444c-1 -4 -4 -6 -8 -6h-26c-4 0 -6 1 -7 5l-86 294c-2 5 -6 27 -8 32h-3c-1 -5 -6 -27 -8 -32l-87 -294c-1 -4 -4 -5 -7 -5h-27c-3 0 -6 2 -7 6l-106 444c-2 6 1 9 7 9h38c4 0 6 -2 7 -6l71 -312c1 -5 6 -27 8 -33h3c2 6 7 27 8 32l90 316c0 3 3 5 7 5h10
c4 0 7 -2 7 -5l87 -317c2 -5 7 -27 8 -32h4c1 5 6 27 7 33l72 313c1 4 4 6 8 6h37c6 0 9 -3 8 -9z" />
    <glyph glyph-name="X.sc" unicode="&#xe037;" horiz-adv-x="411" 
d="M357 10c3 -6 0 -10 -7 -10h-41c-3 0 -5 1 -6 4l-89 174c-3 7 -9 7 -13 0l-93 -174c-2 -2 -4 -4 -7 -4h-41c-7 0 -10 4 -6 11l117 216c1 2 1 4 0 7l-116 214c-4 7 -1 11 6 11h40c3 0 5 -2 7 -4l93 -175c4 -7 10 -7 13 0l89 175c1 3 3 4 6 4h40c7 0 10 -4 7 -10l-116 -215
c-1 -2 -1 -5 0 -7z" />
    <glyph glyph-name="Y.sc" unicode="&#xe038;" horiz-adv-x="345" 
d="M330 448l-133 -236v-205c0 -5 -2 -7 -7 -7h-36c-5 0 -7 2 -7 7v205l-132 236c-3 7 -1 11 7 11h41c3 0 5 -2 7 -4l97 -184c4 -7 9 -7 13 0l95 184c2 2 4 4 7 4h41c8 0 11 -4 7 -11z" />
    <glyph glyph-name="Yacute.sc" unicode="&#xe039;" horiz-adv-x="345" 
d="M287 621l-120 -98c-8 -6 -11 -8 -18 -8h-4c-7 0 -9 4 -5 10l78 109c2 3 5 4 9 4h53c11 0 16 -10 7 -17zM330 448l-133 -236v-205c0 -5 -2 -7 -7 -7h-36c-5 0 -7 2 -7 7v205l-132 236c-3 7 -1 11 7 11h41c3 0 5 -2 7 -4l97 -184c4 -7 9 -7 13 0l95 184c2 2 4 4 7 4h41
c8 0 11 -4 7 -11z" />
    <glyph glyph-name="Ydieresis.sc" unicode="&#xe03a;" horiz-adv-x="345" 
d="M295 570c0 -22 -17 -40 -39 -40s-40 18 -40 40s18 39 40 39s39 -17 39 -39zM127 570c0 -22 -17 -40 -39 -40s-40 18 -40 40s18 39 40 39s39 -17 39 -39zM330 448l-133 -236v-205c0 -5 -2 -7 -7 -7h-36c-5 0 -7 2 -7 7v205l-132 236c-3 7 -1 11 7 11h41c3 0 5 -2 7 -4
l97 -184c4 -7 9 -7 13 0l95 184c2 2 4 4 7 4h41c8 0 11 -4 7 -11z" />
    <glyph glyph-name="Z.sc" unicode="&#xe03b;" horiz-adv-x="375" 
d="M321 7c0 -5 -3 -7 -8 -7h-261c-7 0 -10 4 -7 10l193 400c3 6 0 11 -7 11h-173c-5 0 -7 2 -7 7v24c0 5 2 7 7 7h245c7 0 10 -4 7 -10l-194 -400c-3 -6 0 -10 6 -10h191c5 0 8 -3 8 -8v-24z" />
    <glyph glyph-name="Zcaron.sc" unicode="&#xe03c;" horiz-adv-x="375" 
d="M276 613l-75 -94c-2 -2 -5 -4 -8 -4h-27c-3 0 -6 2 -8 4l-75 94c-4 5 -2 12 6 12h27c4 0 7 -2 10 -5l46 -60c5 -7 10 -7 15 0l46 60c3 3 6 5 10 5h27c8 0 10 -7 6 -12zM321 7c0 -5 -3 -7 -8 -7h-261c-7 0 -10 4 -7 10l193 400c3 6 0 11 -7 11h-173c-5 0 -7 2 -7 7v24
c0 5 2 7 7 7h245c7 0 10 -4 7 -10l-194 -400c-3 -6 0 -10 6 -10h191c5 0 8 -3 8 -8v-24z" />
    <glyph glyph-name="germandbls.sc" unicode="&#xe03d;" horiz-adv-x="846" 
d="M777 112c0 -70 -50 -122 -128 -122h-45c-62 0 -93 25 -112 59c-2 4 -1 8 3 10l31 16c3 2 7 1 9 -3c18 -26 44 -44 69 -44h45c44 0 79 41 79 84c0 52 -59 79 -110 102c-57 26 -121 50 -121 133c0 71 49 123 127 123h25c62 0 93 -25 113 -59c3 -4 0 -8 -4 -10l-31 -15
c-3 -2 -6 -2 -8 2c-18 26 -45 43 -70 43h-25c-43 0 -78 -40 -78 -84c0 -46 62 -71 117 -96c54 -25 114 -53 114 -139zM354 112c0 -70 -50 -122 -128 -122h-45c-62 0 -93 25 -112 59c-2 4 -1 8 3 10l31 16c3 2 7 1 9 -3c18 -26 44 -44 69 -44h45c44 0 79 41 79 84
c0 52 -59 79 -110 102c-57 26 -121 50 -121 133c0 71 49 123 127 123h25c62 0 93 -25 113 -59c3 -4 0 -8 -4 -10l-31 -15c-3 -2 -6 -2 -8 2c-18 26 -45 43 -70 43h-25c-43 0 -78 -40 -78 -84c0 -46 62 -71 117 -96c54 -25 114 -53 114 -139z" />
    <glyph glyph-name="f_i.sc" unicode="&#xe03e;" horiz-adv-x="659" 
d="M560 7c0 -5 -2 -7 -7 -7h-34c-5 0 -8 2 -8 7v445c0 5 3 7 8 7h34c5 0 7 -2 7 -7v-445zM367 428c0 -5 -2 -7 -7 -7h-205c-6 0 -8 -3 -8 -8v-153c0 -5 2 -7 8 -7h171c5 0 7 -2 7 -7v-24c0 -5 -2 -8 -7 -8h-171c-6 0 -8 -2 -8 -7v-200c0 -5 -2 -7 -7 -7h-34c-5 0 -8 2 -8 7
v445c0 5 3 7 8 7h254c5 0 7 -2 7 -7v-24z" />
    <glyph glyph-name="f_l.sc" unicode="&#xe03f;" horiz-adv-x="808" 
d="M780 7c0 -5 -2 -7 -7 -7h-254c-5 0 -8 2 -8 7v445c0 5 3 7 8 7h34c5 0 7 -2 7 -7v-406c0 -5 2 -7 8 -7h205c5 0 7 -3 7 -8v-24zM367 428c0 -5 -2 -7 -7 -7h-205c-6 0 -8 -3 -8 -8v-153c0 -5 2 -7 8 -7h171c5 0 7 -2 7 -7v-24c0 -5 -2 -8 -7 -8h-171c-6 0 -8 -2 -8 -7
v-200c0 -5 -2 -7 -7 -7h-34c-5 0 -8 2 -8 7v445c0 5 3 7 8 7h254c5 0 7 -2 7 -7v-24z" />
    <glyph glyph-name="f_f.sc" unicode="&#xe040;" horiz-adv-x="826" 
d="M780 428c0 -5 -2 -7 -7 -7h-205c-6 0 -8 -3 -8 -8v-153c0 -5 2 -7 8 -7h171c5 0 7 -2 7 -7v-24c0 -5 -2 -8 -7 -8h-171c-6 0 -8 -2 -8 -7v-200c0 -5 -2 -7 -7 -7h-34c-5 0 -8 2 -8 7v445c0 5 3 7 8 7h254c5 0 7 -2 7 -7v-24zM367 428c0 -5 -2 -7 -7 -7h-205
c-6 0 -8 -3 -8 -8v-153c0 -5 2 -7 8 -7h171c5 0 7 -2 7 -7v-24c0 -5 -2 -8 -7 -8h-171c-6 0 -8 -2 -8 -7v-200c0 -5 -2 -7 -7 -7h-34c-5 0 -8 2 -8 7v445c0 5 3 7 8 7h254c5 0 7 -2 7 -7v-24z" />
    <glyph glyph-name="f_f_i.sc" unicode="&#xe041;" horiz-adv-x="1072" 
d="M973 7c0 -5 -2 -7 -7 -7h-34c-5 0 -8 2 -8 7v445c0 5 3 7 8 7h34c5 0 7 -2 7 -7v-445zM780 428c0 -5 -2 -7 -7 -7h-205c-6 0 -8 -3 -8 -8v-153c0 -5 2 -7 8 -7h171c5 0 7 -2 7 -7v-24c0 -5 -2 -8 -7 -8h-171c-6 0 -8 -2 -8 -7v-200c0 -5 -2 -7 -7 -7h-34c-5 0 -8 2 -8 7
v445c0 5 3 7 8 7h254c5 0 7 -2 7 -7v-24zM367 428c0 -5 -2 -7 -7 -7h-205c-6 0 -8 -3 -8 -8v-153c0 -5 2 -7 8 -7h171c5 0 7 -2 7 -7v-24c0 -5 -2 -8 -7 -8h-171c-6 0 -8 -2 -8 -7v-200c0 -5 -2 -7 -7 -7h-34c-5 0 -8 2 -8 7v445c0 5 3 7 8 7h254c5 0 7 -2 7 -7v-24z" />
    <glyph glyph-name="f_f_l.sc" unicode="&#xe042;" horiz-adv-x="1221" 
d="M1193 7c0 -5 -2 -7 -7 -7h-254c-5 0 -8 2 -8 7v445c0 5 3 7 8 7h34c5 0 7 -2 7 -7v-406c0 -5 2 -7 8 -7h205c5 0 7 -3 7 -8v-24zM780 428c0 -5 -2 -7 -7 -7h-205c-6 0 -8 -3 -8 -8v-153c0 -5 2 -7 8 -7h171c5 0 7 -2 7 -7v-24c0 -5 -2 -8 -7 -8h-171c-6 0 -8 -2 -8 -7
v-200c0 -5 -2 -7 -7 -7h-34c-5 0 -8 2 -8 7v445c0 5 3 7 8 7h254c5 0 7 -2 7 -7v-24zM367 428c0 -5 -2 -7 -7 -7h-205c-6 0 -8 -3 -8 -8v-153c0 -5 2 -7 8 -7h171c5 0 7 -2 7 -7v-24c0 -5 -2 -8 -7 -8h-171c-6 0 -8 -2 -8 -7v-200c0 -5 -2 -7 -7 -7h-34c-5 0 -8 2 -8 7v445
c0 5 3 7 8 7h254c5 0 7 -2 7 -7v-24z" />
    <glyph glyph-name="E.alt" unicode="&#xe043;" horiz-adv-x="437" 
d="M410 61c-11 -15 -23 -29 -38 -40c-26 -19 -60 -31 -106 -31h-32c-103 0 -171 65 -171 168v31c0 70 50 119 90 131c7 2 7 7 0 9c-48 18 -90 70 -90 125v17c0 106 67 169 171 169h32c44 0 77 -11 103 -30c16 -11 29 -25 41 -40c4 -5 2 -11 -4 -14l-26 -15
c-4 -3 -9 -1 -12 3c-28 35 -65 55 -102 55h-32c-65 0 -120 -50 -120 -118v-15c0 -68 52 -122 120 -122h62c7 0 10 -3 10 -10v-20c0 -7 -3 -10 -10 -10h-62c-65 0 -120 -53 -120 -118v-36c0 -71 55 -120 120 -120h32c38 0 73 20 102 55c3 4 5 5 10 3l27 -12c6 -3 9 -9 5 -15z
" />
    <glyph glyph-name="zero.oldstyle" unicode="&#xf730;" horiz-adv-x="520" 
d="M446 150c0 -93 -68 -160 -171 -160h-32c-103 0 -169 65 -169 160v161c0 95 68 159 169 159h32c105 0 171 -64 171 -159v-161zM395 150v161c0 68 -55 118 -120 118h-32c-68 0 -118 -50 -118 -118v-161c0 -65 50 -120 118 -120h32c68 0 120 52 120 120z" />
    <glyph glyph-name="one.oldstyle" unicode="&#xf731;" horiz-adv-x="520" 
d="M426 10c0 -7 -3 -10 -10 -10h-287c-7 0 -10 3 -10 10v20c0 7 3 10 10 10h108c7 0 10 3 10 10v311c0 11 -9 15 -17 7l-79 -78c-5 -5 -10 -6 -14 0l-12 16c-4 5 -5 9 0 14l147 147c1 1 5 3 7 3h9c7 0 10 -3 10 -10v-410c0 -7 3 -10 10 -10h108c7 0 10 -3 10 -10v-20z" />
    <glyph glyph-name="two.oldstyle" unicode="&#xf732;" horiz-adv-x="520" 
d="M436 325c0 -99 -82 -116 -157 -149c-77 -33 -134 -54 -134 -117v-12c0 -5 3 -7 10 -7h268c7 0 10 -2 10 -7v-26c0 -5 -3 -7 -10 -7h-319c-7 0 -10 2 -10 7v52c0 86 76 123 149 154c88 38 142 46 142 112c0 54 -35 104 -113 104h-42c-37 0 -77 -23 -101 -55
c-2 -3 -7 -5 -11 -3l-25 14c-9 5 -10 9 -7 13c13 18 28 33 47 45c26 17 58 27 97 27h42c106 0 164 -58 164 -145z" />
    <glyph glyph-name="three.oldstyle" unicode="&#xf733;" horiz-adv-x="520" 
d="M431 -12c0 -103 -68 -168 -171 -168h-32c-51 0 -87 14 -114 37c-12 10 -21 21 -30 34c-4 6 -1 12 5 15l27 12c5 2 7 1 10 -3c29 -35 64 -55 102 -55h32c65 0 120 49 120 120v36c0 65 -55 118 -120 118h-62c-7 0 -10 3 -10 10v20c0 7 3 10 10 10h62c68 0 120 54 120 122
v15c0 68 -55 118 -120 118h-32c-37 0 -74 -20 -102 -55c-3 -4 -8 -6 -12 -3l-26 15c-6 3 -8 9 -4 14c11 15 24 28 39 39c27 19 60 31 105 31h32c104 0 171 -63 171 -169v-17c0 -55 -42 -107 -90 -125c-7 -2 -7 -7 0 -9c40 -12 90 -61 90 -131v-31z" />
    <glyph glyph-name="four.oldstyle" unicode="&#xf734;" horiz-adv-x="520" 
d="M486 10c0 -7 -3 -10 -10 -10h-77c-7 0 -10 -3 -10 -10v-149c0 -7 -3 -10 -10 -10h-31c-7 0 -10 3 -10 10v149c0 7 -3 10 -10 10h-268c-7 0 -10 3 -10 10v47l272 398c2 2 5 4 8 4h49c7 0 10 -3 10 -10v-400c0 -7 3 -10 10 -10h77c7 0 10 -3 10 -10v-19zM338 49v318
c0 12 -10 16 -17 6l-220 -318c-6 -9 -2 -16 8 -16h219c7 0 10 3 10 10z" />
    <glyph glyph-name="five.oldstyle" unicode="&#xf735;" horiz-adv-x="520" 
d="M444 -11c0 -99 -68 -168 -171 -168h-32c-42 0 -74 10 -99 26c-18 12 -33 27 -46 43c-4 5 -2 12 4 15l27 14c5 2 9 1 12 -3c27 -35 65 -55 102 -55h32c65 0 120 48 120 120v36c0 65 -49 118 -120 118h-148c-7 0 -10 3 -10 10v304c0 7 3 10 10 10h297c7 0 10 -3 10 -10v-26
c0 -7 -3 -10 -10 -10h-246c-7 0 -10 -3 -10 -10v-218c0 -7 3 -10 10 -10h97c103 0 171 -63 171 -166v-20z" />
    <glyph glyph-name="six.oldstyle" unicode="&#xf736;" horiz-adv-x="520" 
d="M454 150c0 -91 -68 -160 -171 -160h-30c-103 0 -168 65 -168 160v331c0 95 67 159 168 159h30c44 0 76 -10 101 -26c18 -12 33 -26 45 -44c4 -6 0 -11 -6 -14l-26 -13c-4 -2 -8 -1 -11 3c-26 32 -58 53 -103 53h-30c-70 0 -117 -47 -117 -118v-170c0 -11 8 -13 16 -5
c31 30 70 45 113 45h30c88 0 159 -65 159 -158v-43zM403 150v43c0 57 -42 118 -120 118h-30c-66 0 -117 -51 -117 -118v-43c0 -65 49 -120 117 -120h30c65 0 120 52 120 120z" />
    <glyph glyph-name="seven.oldstyle" unicode="&#xf737;" horiz-adv-x="520" 
d="M444 359c0 -118 -88 -178 -157 -222c-68 -43 -111 -87 -111 -156v-140c0 -7 -3 -10 -10 -10h-31c-7 0 -10 3 -10 10v140c0 98 67 151 130 192c77 50 138 95 138 186v44c0 7 -3 10 -10 10h-270c-7 0 -10 3 -10 10v26c0 7 3 10 10 10h321c7 0 10 -3 10 -10v-90z" />
    <glyph glyph-name="eight.oldstyle" unicode="&#xf738;" horiz-adv-x="520" 
d="M446 158c0 -100 -68 -168 -171 -168h-32c-103 0 -168 65 -168 168v26c0 66 49 115 93 129c6 2 7 6 0 8c-43 12 -94 63 -94 128v22c0 103 70 169 169 169h32c106 0 171 -68 171 -169v-22c0 -57 -41 -106 -86 -124c-6 -3 -7 -6 0 -9c41 -15 86 -66 86 -132v-26zM395 461v20
c0 68 -55 118 -120 118h-32c-68 0 -118 -50 -118 -118v-20c0 -68 50 -122 118 -122h32c68 0 120 54 120 122zM395 150v31c0 65 -53 118 -120 118h-32c-68 0 -118 -51 -118 -118v-31c0 -65 50 -120 118 -120h32c65 0 120 49 120 120z" />
    <glyph glyph-name="nine.oldstyle" unicode="&#xf739;" horiz-adv-x="520" 
d="M435 -21c0 -95 -67 -159 -168 -159h-30c-50 0 -84 12 -111 33c-14 10 -25 23 -35 37c-4 6 0 11 6 14l26 13c4 2 8 1 11 -3c26 -32 58 -53 103 -53h30c70 0 117 47 117 118v132c0 11 -8 13 -16 5c-31 -30 -70 -45 -113 -45h-30c-88 0 -159 65 -159 158v81
c0 91 68 160 171 160h30c103 0 168 -65 168 -160v-331zM384 230v81c0 65 -49 120 -117 120h-30c-65 0 -120 -52 -120 -120v-81c0 -57 42 -118 120 -118h30c66 0 117 51 117 118z" />
    <glyph glyph-name="uni00AD" unicode="&#xad;" horiz-adv-x="266" 
d="M207 202c0 -7 -3 -10 -10 -10h-128c-7 0 -10 3 -10 10v32c0 7 3 10 10 10h128c7 0 10 -3 10 -10v-32z" />
    <glyph glyph-name="uni02C9" unicode="&#x2c9;" horiz-adv-x="505" 
d="M354 531c0 -7 -3 -10 -10 -10h-182c-7 0 -10 3 -10 10v20c0 7 3 10 10 10h182c7 0 10 -3 10 -10v-20z" />
    <glyph glyph-name="uni03BC" unicode="&#x3bc;" horiz-adv-x="487" 
d="M412 10c0 -7 -3 -10 -10 -10h-21c-7 0 -10 3 -10 10v41c0 13 -12 14 -19 5c-29 -36 -65 -56 -113 -56c-42 0 -78 11 -106 31c-7 5 -12 2 -12 -5v-176c0 -7 -3 -10 -10 -10h-31c-7 0 -10 3 -10 10v576c0 7 3 10 10 10h31c7 0 10 -3 10 -10v-266c0 -70 53 -120 118 -120
c68 0 122 52 122 120v266c0 7 3 10 10 10h31c7 0 10 -3 10 -10v-416z" />
    <glyph glyph-name="litre" unicode="&#x2113;" horiz-adv-x="501" 
d="M409 58c-24 -28 -68 -70 -130 -70c-33 0 -58 11 -75 30c-23 23 -34 61 -34 110v133c-21 -23 -42 -46 -64 -70c-9 10 -20 19 -29 29c31 36 62 70 93 106v241c0 108 42 161 108 161c67 0 89 -58 89 -98c0 -94 -47 -178 -112 -265c-10 -13 -25 -34 -35 -45v-199
c0 -63 28 -90 67 -90c40 0 73 31 96 57c9 -10 18 -20 26 -30zM319 624c0 32 -12 61 -41 61c-36 0 -58 -33 -58 -123v-173c8 10 19 24 25 34c44 68 74 139 74 201z" />
    <glyph glyph-name="Omega" unicode="&#x2126;" horiz-adv-x="720" 
d="M667 0h-221v44c66 53 169 152 169 334c0 162 -87 289 -254 289c-153 0 -259 -120 -259 -288c0 -177 98 -277 170 -335v-44h-221v44h160c-65 52 -161 159 -161 338c0 189 127 330 311 330c193 0 306 -135 306 -329c0 -163 -89 -281 -162 -339h162v-44z" />
    <glyph glyph-name="estimated" unicode="&#x212e;" horiz-adv-x="667" 
d="M632 301h-464v-207c44 -44 99 -68 164 -68c108 0 173 55 224 137c12 -7 24 -15 36 -22c-61 -92 -132 -153 -260 -153c-179 0 -293 141 -293 314s111 313 295 313c186 0 294 -140 298 -314zM500 339v170c-43 42 -103 69 -167 69c-65 0 -122 -23 -165 -68v-171h332z" />
    <glyph glyph-name="uni2215" unicode="&#x2215;" horiz-adv-x="141" 
d="M224 614l-260 -608c-2 -4 -5 -6 -9 -6h-24c-9 0 -13 5 -9 14l260 608c2 4 5 6 9 6h24c9 0 13 -5 9 -14z" />
    <glyph glyph-name="uni2219" unicode="&#x2219;" 
d="M303 233c0 -25 -20 -45 -45 -45s-46 20 -46 45s20 45 45 45s46 -20 46 -45z" />
    <glyph glyph-name="uni00A0" unicode="&#xa0;" 
 />
    </font>
</defs>
</svg>
